STIXTwoText-Bold.ufo
<glyph name="exclam" format="2">
  <advance width="326"/>
  <unicode hex="0021"/>
  <outline>
    <contour>
      <point x="189" y="193" type="line"/>
      <point x="241" y="538" type="line" smooth="yes"/>
      <point x="244" y="561"/>
      <point x="246" y="584"/>
      <point x="246" y="601" type="curve" smooth="yes"/>
      <point x="246" y="641"/>
      <point x="224" y="669"/>
      <point x="163" y="669" type="curve" smooth="yes"/>
      <point x="97" y="669"/>
      <point x="80" y="640"/>
      <point x="80" y="603" type="curve" smooth="yes"/>
      <point x="80" y="587"/>
      <point x="83" y="566"/>
      <point x="86" y="538" type="curve"/>
      <point x="134" y="193" type="line"/>
    </contour>
    <contour>
      <point x="160" y="-8" type="curve" smooth="yes"/>
      <point x="212" y="-8"/>
      <point x="236" y="14"/>
      <point x="237" y="62" type="curve" smooth="yes"/>
      <point x="238" y="110"/>
      <point x="210" y="139"/>
      <point x="160" y="139" type="curve" smooth="yes"/>
      <point x="106" y="139"/>
      <point x="82" y="110"/>
      <point x="82" y="63" type="curve" smooth="yes"/>
      <point x="82" y="16"/>
      <point x="108" y="-8"/>
    </contour>
  </outline>
</glyph>
<glyph name="quotedbl" format="2">
  <advance width="347"/>
  <unicode hex="0022"/>
  <outline>
    <contour>
      <point x="267" y="505" type="line"/>
      <point x="324" y="659" type="line"/>
      <point x="324" y="706" type="line"/>
      <point x="206" y="706" type="line"/>
      <point x="206" y="505" type="line"/>
    </contour>
    <contour>
      <point x="113" y="505" type="line"/>
      <point x="170" y="659" type="line"/>
      <point x="170" y="706" type="line"/>
      <point x="52" y="706" type="line"/>
      <point x="52" y="505" type="line"/>
    </contour>
  </outline>
</glyph>
<glyph name="numbersign" format="2">
  <advance width="573"/>
  <unicode hex="0023"/>
  <outline>
    <contour>
      <point x="175" y="26" type="line"/>
      <point x="273" y="626" type="line"/>
      <point x="192" y="626" type="line"/>
      <point x="95" y="26" type="line"/>
    </contour>
    <contour>
      <point x="535" y="196" type="line"/>
      <point x="535" y="268" type="line"/>
      <point x="16" y="268" type="line"/>
      <point x="16" y="196" type="line"/>
    </contour>
    <contour>
      <point x="382" y="26" type="line"/>
      <point x="475" y="625" type="line"/>
      <point x="394" y="625" type="line"/>
      <point x="301" y="26" type="line"/>
    </contour>
    <contour>
      <point x="556" y="379" type="line"/>
      <point x="556" y="452" type="line"/>
      <point x="40" y="452" type="line"/>
      <point x="40" y="379" type="line"/>
    </contour>
  </outline>
</glyph>
<glyph name="dollar" format="2">
  <advance width="495"/>
  <unicode hex="0024"/>
  <outline>
    <contour>
      <point x="234" y="-6" type="curve" smooth="yes"/>
      <point x="383" y="-6"/>
      <point x="474" y="64"/>
      <point x="474" y="175" type="curve" smooth="yes"/>
      <point x="474" y="315"/>
      <point x="345" y="364"/>
      <point x="246" y="410" type="curve" smooth="yes"/>
      <point x="189" y="437"/>
      <point x="145" y="466"/>
      <point x="145" y="522" type="curve" smooth="yes"/>
      <point x="145" y="575"/>
      <point x="183" y="595"/>
      <point x="247" y="595" type="curve" smooth="yes"/>
      <point x="322" y="595"/>
      <point x="363" y="549"/>
      <point x="389" y="441" type="curve"/>
      <point x="434" y="441" type="line"/>
      <point x="434" y="588" type="line"/>
      <point x="404" y="613"/>
      <point x="303" y="641"/>
      <point x="246" y="641" type="curve" smooth="yes"/>
      <point x="115" y="641"/>
      <point x="30" y="585"/>
      <point x="30" y="481" type="curve" smooth="yes"/>
      <point x="30" y="378"/>
      <point x="91" y="319"/>
      <point x="248" y="249" type="curve" smooth="yes"/>
      <point x="301" y="225"/>
      <point x="341" y="187"/>
      <point x="341" y="131" type="curve" smooth="yes"/>
      <point x="341" y="79"/>
      <point x="298" y="47"/>
      <point x="217" y="47" type="curve" smooth="yes"/>
      <point x="142" y="47"/>
      <point x="108" y="87"/>
      <point x="79" y="207" type="curve"/>
      <point x="32" y="207" type="line"/>
      <point x="32" y="40" type="line"/>
      <point x="103" y="3"/>
      <point x="148" y="-6"/>
    </contour>
    <contour>
      <point x="274" y="-93" type="line"/>
      <point x="274" y="706" type="line"/>
      <point x="220" y="706" type="line"/>
      <point x="220" y="-93" type="line"/>
    </contour>
  </outline>
</glyph>
<glyph name="percent" format="2">
  <advance width="769"/>
  <unicode hex="0025"/>
  <outline>
    <contour>
      <point x="299" y="513" type="curve" smooth="yes"/>
      <point x="299" y="415"/>
      <point x="253" y="354"/>
      <point x="200" y="354" type="curve" smooth="yes"/>
      <point x="170" y="354"/>
      <point x="152" y="370"/>
      <point x="152" y="435" type="curve" smooth="yes"/>
      <point x="152" y="509"/>
      <point x="175" y="604"/>
      <point x="245" y="604" type="curve" smooth="yes"/>
      <point x="275" y="604"/>
      <point x="299" y="577"/>
    </contour>
    <contour>
      <point x="729" y="189" type="curve" smooth="yes"/>
      <point x="729" y="268"/>
      <point x="682" y="311"/>
      <point x="618" y="311" type="curve" smooth="yes"/>
      <point x="492" y="311"/>
      <point x="424" y="220"/>
      <point x="424" y="103" type="curve" smooth="yes"/>
      <point x="424" y="20"/>
      <point x="471" y="-20"/>
      <point x="547" y="-20" type="curve" smooth="yes"/>
      <point x="647" y="-20"/>
      <point x="729" y="44"/>
    </contour>
    <contour>
      <point x="684" y="188" type="curve" smooth="yes"/>
      <point x="684" y="89"/>
      <point x="640" y="24"/>
      <point x="582" y="24" type="curve" smooth="yes"/>
      <point x="557" y="24"/>
      <point x="535" y="37"/>
      <point x="535" y="103" type="curve" smooth="yes"/>
      <point x="535" y="186"/>
      <point x="559" y="273"/>
      <point x="631" y="273" type="curve" smooth="yes"/>
      <point x="660" y="273"/>
      <point x="684" y="249"/>
    </contour>
    <contour>
      <point x="560" y="668" type="line"/>
      <point x="477" y="588"/>
      <point x="447" y="584"/>
      <point x="400" y="584" type="curve" smooth="yes"/>
      <point x="321" y="584"/>
      <point x="303" y="639"/>
      <point x="230" y="639" type="curve" smooth="yes"/>
      <point x="122" y="639"/>
      <point x="40" y="566"/>
      <point x="40" y="434" type="curve" smooth="yes"/>
      <point x="40" y="356"/>
      <point x="84" y="308"/>
      <point x="161" y="308" type="curve" smooth="yes"/>
      <point x="284" y="308"/>
      <point x="345" y="405"/>
      <point x="345" y="509" type="curve" smooth="yes"/>
      <point x="345" y="529"/>
      <point x="342" y="543"/>
      <point x="337" y="558" type="curve"/>
      <point x="339" y="560" type="line"/>
      <point x="364" y="548"/>
      <point x="375" y="543"/>
      <point x="405" y="543" type="curve" smooth="yes"/>
      <point x="447" y="543"/>
      <point x="473" y="557"/>
      <point x="500" y="575" type="curve"/>
      <point x="505" y="575" type="line"/>
      <point x="146" y="-21" type="line"/>
      <point x="224" y="-21" type="line"/>
      <point x="631" y="668" type="line"/>
    </contour>
  </outline>
</glyph>
<glyph name="ampersand" format="2">
  <advance width="736"/>
  <unicode hex="0026"/>
  <anchor x="362" y="0" name="bottom"/>
  <anchor x="362" y="0" name="cedilla"/>
  <anchor x="553" y="0" name="ogonek"/>
  <anchor x="325" y="657" name="top"/>
  <outline>
    <contour>
      <point x="563" y="-16" type="curve" smooth="yes"/>
      <point x="640" y="-16"/>
      <point x="710" y="51"/>
      <point x="735" y="140" type="curve"/>
      <point x="708" y="153" type="line"/>
      <point x="681" y="113"/>
      <point x="651" y="97"/>
      <point x="610" y="97" type="curve" smooth="yes"/>
      <point x="557" y="97"/>
      <point x="528" y="123"/>
      <point x="476" y="180" type="curve" smooth="yes"/>
      <point x="379" y="288"/>
      <point x="260" y="463"/>
      <point x="260" y="560" type="curve" smooth="yes"/>
      <point x="260" y="600"/>
      <point x="281" y="627"/>
      <point x="327" y="627" type="curve" smooth="yes"/>
      <point x="367" y="627"/>
      <point x="386" y="591"/>
      <point x="386" y="548" type="curve" smooth="yes"/>
      <point x="386" y="494"/>
      <point x="356" y="428"/>
      <point x="303" y="406" type="curve"/>
      <point x="317" y="369" type="line"/>
      <point x="445" y="421"/>
      <point x="489" y="468"/>
      <point x="489" y="541" type="curve" smooth="yes"/>
      <point x="489" y="622"/>
      <point x="418" y="662"/>
      <point x="320" y="662" type="curve" smooth="yes"/>
      <point x="214" y="662"/>
      <point x="141" y="609"/>
      <point x="141" y="523" type="curve" smooth="yes"/>
      <point x="141" y="484"/>
      <point x="169" y="417"/>
      <point x="209" y="344" type="curve" smooth="yes"/>
      <point x="258" y="255"/>
      <point x="325" y="157"/>
      <point x="375" y="98" type="curve" smooth="yes"/>
      <point x="452" y="7"/>
      <point x="495" y="-16"/>
    </contour>
    <contour>
      <point x="198" y="-16" type="curve" smooth="yes"/>
      <point x="286" y="-16"/>
      <point x="325" y="8"/>
      <point x="405" y="85" type="curve"/>
      <point x="375" y="118" type="line"/>
      <point x="334" y="79"/>
      <point x="304" y="64"/>
      <point x="264" y="64" type="curve" smooth="yes"/>
      <point x="192" y="64"/>
      <point x="161" y="125"/>
      <point x="161" y="190" type="curve" smooth="yes"/>
      <point x="161" y="248"/>
      <point x="185" y="309"/>
      <point x="227" y="332" type="curve"/>
      <point x="213" y="367" type="line"/>
      <point x="67" y="302"/>
      <point x="12" y="236"/>
      <point x="12" y="142" type="curve" smooth="yes"/>
      <point x="12" y="41"/>
      <point x="78" y="-16"/>
    </contour>
    <contour>
      <point x="478" y="156" type="line"/>
      <point x="538" y="232"/>
      <point x="558" y="261"/>
      <point x="597" y="324" type="curve" smooth="yes"/>
      <point x="619" y="359"/>
      <point x="638" y="371"/>
      <point x="687" y="371" type="curve"/>
      <point x="687" y="409" type="line"/>
      <point x="477" y="409" type="line"/>
      <point x="477" y="371" type="line"/>
      <point x="521" y="371"/>
      <point x="530" y="361"/>
      <point x="530" y="336" type="curve" smooth="yes"/>
      <point x="530" y="305"/>
      <point x="510" y="271"/>
      <point x="448" y="182" type="curve"/>
    </contour>
  </outline>
</glyph>
<glyph name="quotesingle" format="2">
  <advance width="193"/>
  <unicode hex="0027"/>
  <outline>
    <contour>
      <point x="113" y="505" type="line"/>
      <point x="170" y="659" type="line"/>
      <point x="170" y="706" type="line"/>
      <point x="52" y="706" type="line"/>
      <point x="52" y="505" type="line"/>
    </contour>
  </outline>
</glyph>
<glyph name="parenleft" format="2">
  <advance width="403"/>
  <unicode hex="0028"/>
  <outline>
    <contour>
      <point x="378" y="-150" type="line"/>
      <point x="258" y="-54"/>
      <point x="202" y="73"/>
      <point x="202" y="274" type="curve" smooth="yes"/>
      <point x="202" y="473"/>
      <point x="255" y="597"/>
      <point x="375" y="694" type="curve"/>
      <point x="350" y="730" type="line"/>
      <point x="174" y="648"/>
      <point x="70" y="492"/>
      <point x="70" y="274" type="curve" smooth="yes"/>
      <point x="70" y="54"/>
      <point x="174" y="-103"/>
      <point x="350" y="-186" type="curve"/>
    </contour>
  </outline>
</glyph>
<glyph name="parenright" format="2">
  <advance width="403"/>
  <unicode hex="0029"/>
  <outline>
    <contour>
      <point x="53" y="-186" type="line"/>
      <point x="229" y="-103"/>
      <point x="333" y="54"/>
      <point x="333" y="274" type="curve" smooth="yes"/>
      <point x="333" y="492"/>
      <point x="229" y="648"/>
      <point x="53" y="730" type="curve"/>
      <point x="28" y="694" type="line"/>
      <point x="148" y="597"/>
      <point x="201" y="473"/>
      <point x="201" y="274" type="curve" smooth="yes"/>
      <point x="201" y="73"/>
      <point x="145" y="-54"/>
      <point x="25" y="-150" type="curve"/>
    </contour>
  </outline>
</glyph>
<glyph name="asterisk" format="2">
  <advance width="425"/>
  <unicode hex="002A"/>
  <outline>
    <contour>
      <point x="214" y="305" type="curve" smooth="yes"/>
      <point x="238" y="305"/>
      <point x="260" y="320"/>
      <point x="260" y="350" type="curve" smooth="yes"/>
      <point x="260" y="388"/>
      <point x="236" y="438"/>
      <point x="237" y="464" type="curve"/>
      <point x="240" y="466" type="line"/>
      <point x="268" y="443"/>
      <point x="307" y="374"/>
      <point x="344" y="374" type="curve" smooth="yes"/>
      <point x="370" y="374"/>
      <point x="390" y="404"/>
      <point x="390" y="427" type="curve" smooth="yes"/>
      <point x="390" y="480"/>
      <point x="298" y="482"/>
      <point x="257" y="504" type="curve"/>
      <point x="257" y="507" type="line"/>
      <point x="309" y="531"/>
      <point x="390" y="521"/>
      <point x="390" y="577" type="curve" smooth="yes"/>
      <point x="390" y="603"/>
      <point x="367" y="625"/>
      <point x="343" y="625" type="curve" smooth="yes"/>
      <point x="309" y="625"/>
      <point x="271" y="564"/>
      <point x="240" y="540" type="curve"/>
      <point x="238" y="542" type="line"/>
      <point x="238" y="578"/>
      <point x="260" y="617"/>
      <point x="260" y="654" type="curve" smooth="yes"/>
      <point x="260" y="685"/>
      <point x="238" y="699"/>
      <point x="214" y="699" type="curve" smooth="yes"/>
      <point x="192" y="699"/>
      <point x="167" y="685"/>
      <point x="167" y="653" type="curve" smooth="yes"/>
      <point x="167" y="614"/>
      <point x="188" y="578"/>
      <point x="188" y="542" type="curve"/>
      <point x="186" y="540" type="line"/>
      <point x="152" y="562"/>
      <point x="117" y="625"/>
      <point x="81" y="625" type="curve" smooth="yes"/>
      <point x="54" y="625"/>
      <point x="36" y="598"/>
      <point x="36" y="573" type="curve" smooth="yes"/>
      <point x="36" y="515"/>
      <point x="130" y="526"/>
      <point x="167" y="506" type="curve"/>
      <point x="167" y="502" type="line"/>
      <point x="129" y="481"/>
      <point x="35" y="482"/>
      <point x="35" y="428" type="curve" smooth="yes"/>
      <point x="35" y="402"/>
      <point x="57" y="378"/>
      <point x="83" y="378" type="curve" smooth="yes"/>
      <point x="117" y="378"/>
      <point x="152" y="440"/>
      <point x="185" y="464" type="curve"/>
      <point x="188" y="462" type="line"/>
      <point x="188" y="436"/>
      <point x="167" y="387"/>
      <point x="167" y="351" type="curve" smooth="yes"/>
      <point x="167" y="320"/>
      <point x="191" y="305"/>
    </contour>
  </outline>
</glyph>
<glyph name="plus" format="2">
  <advance width="752"/>
  <unicode hex="002B"/>
  <outline>
    <contour>
      <point x="424" y="-53" type="line"/>
      <point x="424" y="212" type="line"/>
      <point x="686" y="212" type="line"/>
      <point x="686" y="304" type="line"/>
      <point x="424" y="304" type="line"/>
      <point x="424" y="569" type="line"/>
      <point x="328" y="569" type="line"/>
      <point x="328" y="304" type="line"/>
      <point x="66" y="304" type="line"/>
      <point x="66" y="212" type="line"/>
      <point x="328" y="212" type="line"/>
      <point x="328" y="-53" type="line"/>
    </contour>
  </outline>
</glyph>
<glyph name="comma" format="2">
  <advance width="276"/>
  <unicode hex="002C"/>
  <outline>
    <contour>
      <point x="75" y="-144" type="line"/>
      <point x="118" y="-128"/>
      <point x="218" y="-82"/>
      <point x="218" y="35" type="curve" smooth="yes"/>
      <point x="218" y="115"/>
      <point x="172" y="139"/>
      <point x="131" y="139" type="curve" smooth="yes"/>
      <point x="83" y="139"/>
      <point x="57" y="105"/>
      <point x="57" y="68" type="curve" smooth="yes"/>
      <point x="57" y="29"/>
      <point x="85" y="4"/>
      <point x="118" y="4" type="curve" smooth="yes"/>
      <point x="125" y="4"/>
      <point x="132" y="5"/>
      <point x="140" y="7" type="curve"/>
      <point x="140" y="-69"/>
      <point x="100" y="-93"/>
      <point x="59" y="-114" type="curve"/>
    </contour>
  </outline>
</glyph>
<glyph name="hyphen" format="2">
  <advance width="315"/>
  <unicode hex="002D"/>
  <outline>
    <contour>
      <point x="275" y="209" type="line"/>
      <point x="275" y="294" type="line"/>
      <point x="40" y="294" type="line"/>
      <point x="40" y="209" type="line"/>
    </contour>
  </outline>
</glyph>
<glyph name="period" format="2">
  <advance width="276"/>
  <unicode hex="002E"/>
  <outline>
    <contour>
      <point x="138" y="-10" type="curve" smooth="yes"/>
      <point x="188" y="-10"/>
      <point x="216" y="20"/>
      <point x="216" y="66" type="curve" smooth="yes"/>
      <point x="216" y="111"/>
      <point x="189" y="141"/>
      <point x="139" y="141" type="curve" smooth="yes"/>
      <point x="88" y="141"/>
      <point x="60" y="111"/>
      <point x="60" y="66" type="curve" smooth="yes"/>
      <point x="60" y="20"/>
      <point x="88" y="-10"/>
    </contour>
  </outline>
</glyph>
<glyph name="zero" format="2">
  <advance width="495"/>
  <unicode hex="0030"/>
  <anchor x="247" y="0" name="bottom"/>
  <anchor x="247" y="0" name="cedilla"/>
  <anchor x="247" y="0" name="ogonek"/>
  <anchor x="250" y="657" name="top"/>
  <outline>
    <contour>
      <point x="248" y="-11" type="curve" smooth="yes"/>
      <point x="407" y="-11"/>
      <point x="469" y="133"/>
      <point x="469" y="317" type="curve" smooth="yes"/>
      <point x="469" y="532"/>
      <point x="382" y="642"/>
      <point x="250" y="642" type="curve" smooth="yes"/>
      <point x="103" y="642"/>
      <point x="26" y="523"/>
      <point x="26" y="320" type="curve" smooth="yes"/>
      <point x="26" y="132"/>
      <point x="84" y="-11"/>
    </contour>
    <contour>
      <point x="247" y="35" type="curve" smooth="yes"/>
      <point x="202" y="35"/>
      <point x="175" y="128"/>
      <point x="175" y="315" type="curve" smooth="yes"/>
      <point x="175" y="506"/>
      <point x="202" y="598"/>
      <point x="247" y="598" type="curve" smooth="yes"/>
      <point x="293" y="598"/>
      <point x="318" y="507"/>
      <point x="318" y="311" type="curve" smooth="yes"/>
      <point x="318" y="126"/>
      <point x="292" y="35"/>
    </contour>
  </outline>
</glyph>
<glyph name="one" format="2">
  <advance width="495"/>
  <unicode hex="0031"/>
  <anchor x="247" y="0" name="bottom"/>
  <anchor x="247" y="0" name="cedilla"/>
  <anchor x="247" y="0" name="ogonek"/>
  <anchor x="252" y="657" name="top"/>
  <outline>
    <contour>
      <point x="461" y="0" type="line"/>
      <point x="461" y="43" type="line"/>
      <point x="369" y="43"/>
      <point x="326" y="61"/>
      <point x="326" y="110" type="curve" smooth="yes"/>
      <point x="326" y="639" type="line"/>
      <point x="260" y="639" type="line"/>
      <point x="38" y="584" type="line"/>
      <point x="38" y="535" type="line"/>
      <point x="70" y="542"/>
      <point x="125" y="547"/>
      <point x="145" y="547" type="curve" smooth="yes"/>
      <point x="170" y="547"/>
      <point x="178" y="533"/>
      <point x="178" y="498" type="curve" smooth="yes"/>
      <point x="178" y="110" type="line" smooth="yes"/>
      <point x="178" y="60"/>
      <point x="138" y="43"/>
      <point x="44" y="43" type="curve"/>
      <point x="44" y="0" type="line"/>
    </contour>
  </outline>
</glyph>
<glyph name="two" format="2">
  <advance width="495"/>
  <unicode hex="0032"/>
  <anchor x="229" y="0" name="bottom"/>
  <anchor x="229" y="0" name="cedilla"/>
  <anchor x="229" y="0" name="ogonek"/>
  <anchor x="250" y="657" name="top"/>
  <outline>
    <contour>
      <point x="431" y="0" type="line"/>
      <point x="463" y="200" type="line"/>
      <point x="420" y="200" type="line"/>
      <point x="397" y="140"/>
      <point x="384" y="118"/>
      <point x="331" y="118" type="curve" smooth="yes"/>
      <point x="216" y="118" type="line"/>
      <point x="153" y="111" type="line"/>
      <point x="153" y="119" type="line"/>
      <point x="269" y="215" type="line" smooth="yes"/>
      <point x="389" y="314"/>
      <point x="448" y="382"/>
      <point x="448" y="480" type="curve" smooth="yes"/>
      <point x="448" y="581"/>
      <point x="365" y="649"/>
      <point x="250" y="649" type="curve" smooth="yes"/>
      <point x="142" y="649"/>
      <point x="63" y="595"/>
      <point x="27" y="497" type="curve"/>
      <point x="71" y="481" type="line"/>
      <point x="105" y="551"/>
      <point x="145" y="568"/>
      <point x="201" y="568" type="curve" smooth="yes"/>
      <point x="268" y="568"/>
      <point x="295" y="527"/>
      <point x="295" y="465" type="curve" smooth="yes"/>
      <point x="295" y="356"/>
      <point x="249" y="293"/>
      <point x="157" y="199" type="curve" smooth="yes"/>
      <point x="27" y="67" type="line"/>
      <point x="27" y="0" type="line"/>
    </contour>
  </outline>
</glyph>
<glyph name="three" format="2">
  <advance width="495"/>
  <unicode hex="0033"/>
  <anchor x="238" y="0" name="bottom"/>
  <anchor x="238" y="0" name="cedilla"/>
  <anchor x="238" y="0" name="ogonek"/>
  <anchor x="248" y="657" name="top"/>
  <outline>
    <contour>
      <point x="163" y="-15" type="curve" smooth="yes"/>
      <point x="325" y="-15"/>
      <point x="458" y="51"/>
      <point x="458" y="188" type="curve" smooth="yes"/>
      <point x="458" y="268"/>
      <point x="403" y="328"/>
      <point x="297" y="364" type="curve"/>
      <point x="297" y="372" type="line"/>
      <point x="372" y="403"/>
      <point x="421" y="434"/>
      <point x="421" y="513" type="curve" smooth="yes"/>
      <point x="421" y="593"/>
      <point x="351" y="653"/>
      <point x="236" y="653" type="curve" smooth="yes"/>
      <point x="144" y="653"/>
      <point x="75" y="605"/>
      <point x="33" y="518" type="curve"/>
      <point x="68" y="498" type="line"/>
      <point x="100" y="544"/>
      <point x="135" y="568"/>
      <point x="192" y="568" type="curve" smooth="yes"/>
      <point x="246" y="568"/>
      <point x="280" y="538"/>
      <point x="280" y="488" type="curve" smooth="yes"/>
      <point x="280" y="418"/>
      <point x="222" y="371"/>
      <point x="160" y="371" type="curve" smooth="yes"/>
      <point x="138" y="371" type="line"/>
      <point x="138" y="308" type="line"/>
      <point x="157" y="308" type="line" smooth="yes"/>
      <point x="264" y="308"/>
      <point x="316" y="257"/>
      <point x="316" y="170" type="curve" smooth="yes"/>
      <point x="316" y="72"/>
      <point x="281" y="40"/>
      <point x="233" y="40" type="curve" smooth="yes"/>
      <point x="178" y="40"/>
      <point x="144" y="111"/>
      <point x="90" y="111" type="curve" smooth="yes"/>
      <point x="54" y="111"/>
      <point x="36" y="83"/>
      <point x="36" y="51" type="curve" smooth="yes"/>
      <point x="36" y="9"/>
      <point x="67" y="-15"/>
    </contour>
  </outline>
</glyph>
<glyph name="four" format="2">
  <advance width="495"/>
  <unicode hex="0034"/>
  <anchor x="256" y="0" name="bottom"/>
  <anchor x="256" y="0" name="cedilla"/>
  <anchor x="256" y="0" name="ogonek"/>
  <anchor x="256" y="657" name="top"/>
  <outline>
    <contour>
      <point x="401" y="0" type="line"/>
      <point x="401" y="122" type="line"/>
      <point x="483" y="122" type="line"/>
      <point x="483" y="239" type="line"/>
      <point x="401" y="239" type="line"/>
      <point x="401" y="645" type="line"/>
      <point x="284" y="645" type="line"/>
      <point x="15" y="232" type="line"/>
      <point x="15" y="122" type="line"/>
      <point x="256" y="122" type="line"/>
      <point x="256" y="0" type="line"/>
    </contour>
    <contour>
      <point x="95" y="243" type="line"/>
      <point x="253" y="491" type="line"/>
      <point x="256" y="491" type="line"/>
      <point x="256" y="239" type="line"/>
      <point x="95" y="239" type="line"/>
    </contour>
  </outline>
</glyph>
<glyph name="five" format="2">
  <advance width="495"/>
  <unicode hex="0035"/>
  <anchor x="238" y="0" name="bottom"/>
  <anchor x="239" y="0" name="cedilla"/>
  <anchor x="239" y="0" name="ogonek"/>
  <anchor x="267" y="657" name="top"/>
  <outline>
    <contour>
      <point x="149" y="-16" type="curve" smooth="yes"/>
      <point x="313" y="-16"/>
      <point x="468" y="46"/>
      <point x="468" y="219" type="curve" smooth="yes"/>
      <point x="468" y="394"/>
      <point x="265" y="425"/>
      <point x="140" y="425" type="curve"/>
      <point x="161" y="519" type="line"/>
      <point x="426" y="519" type="line"/>
      <point x="444" y="630" type="line"/>
      <point x="130" y="630" type="line"/>
      <point x="59" y="327" type="line"/>
      <point x="76" y="300" type="line"/>
      <point x="235" y="300"/>
      <point x="336" y="281"/>
      <point x="336" y="173" type="curve" smooth="yes"/>
      <point x="336" y="72"/>
      <point x="295" y="41"/>
      <point x="222" y="41" type="curve" smooth="yes"/>
      <point x="160" y="41"/>
      <point x="130" y="111"/>
      <point x="76" y="111" type="curve" smooth="yes"/>
      <point x="40" y="111"/>
      <point x="22" y="79"/>
      <point x="22" y="47" type="curve" smooth="yes"/>
      <point x="22" y="5"/>
      <point x="53" y="-16"/>
    </contour>
  </outline>
</glyph>
<glyph name="six" format="2">
  <advance width="495"/>
  <unicode hex="0036"/>
  <anchor x="249" y="0" name="bottom"/>
  <anchor x="249" y="0" name="cedilla"/>
  <anchor x="273" y="0" name="ogonek"/>
  <anchor x="264" y="657" name="top"/>
  <outline>
    <contour>
      <point x="261" y="-14" type="curve" smooth="yes"/>
      <point x="399" y="-14"/>
      <point x="473" y="61"/>
      <point x="473" y="213" type="curve" smooth="yes"/>
      <point x="473" y="342"/>
      <point x="407" y="415"/>
      <point x="305" y="415" type="curve" smooth="yes"/>
      <point x="256" y="415"/>
      <point x="227" y="396"/>
      <point x="188" y="357" type="curve"/>
      <point x="177" y="358" type="line"/>
      <point x="207" y="498"/>
      <point x="314" y="578"/>
      <point x="454" y="599" type="curve"/>
      <point x="449" y="646" type="line"/>
      <point x="224" y="637"/>
      <point x="26" y="504"/>
      <point x="26" y="251" type="curve" smooth="yes"/>
      <point x="26" y="96"/>
      <point x="97" y="-14"/>
    </contour>
    <contour>
      <point x="264" y="33" type="curve" smooth="yes"/>
      <point x="204" y="33"/>
      <point x="177" y="118"/>
      <point x="177" y="236" type="curve" smooth="yes"/>
      <point x="177" y="312"/>
      <point x="206" y="340"/>
      <point x="244" y="340" type="curve" smooth="yes"/>
      <point x="299" y="340"/>
      <point x="326" y="277"/>
      <point x="326" y="195" type="curve" smooth="yes"/>
      <point x="326" y="75"/>
      <point x="306" y="33"/>
    </contour>
  </outline>
</glyph>
<glyph name="seven" format="2">
  <advance width="493"/>
  <unicode hex="0037"/>
  <anchor x="234" y="0" name="bottom"/>
  <anchor x="234" y="0" name="cedilla"/>
  <anchor x="234" y="0" name="ogonek"/>
  <anchor x="263" y="657" name="top"/>
  <outline>
    <contour>
      <point x="233" y="-8" type="line"/>
      <point x="470" y="559" type="line"/>
      <point x="470" y="630" type="line"/>
      <point x="68" y="630" type="line"/>
      <point x="28" y="437" type="line"/>
      <point x="69" y="434" type="line"/>
      <point x="96" y="499"/>
      <point x="104" y="509"/>
      <point x="160" y="509" type="curve" smooth="yes"/>
      <point x="374" y="509" type="line"/>
      <point x="106" y="-8" type="line"/>
    </contour>
  </outline>
</glyph>
<glyph name="eight" format="2">
  <advance width="495"/>
  <unicode hex="0038"/>
  <anchor x="238" y="0" name="bottom"/>
  <anchor x="238" y="0" name="cedilla"/>
  <anchor x="255" y="0" name="ogonek"/>
  <anchor x="254" y="657" name="top"/>
  <outline>
    <contour>
      <point x="236" y="-14" type="curve" smooth="yes"/>
      <point x="369" y="-14"/>
      <point x="472" y="44"/>
      <point x="472" y="160" type="curve" smooth="yes"/>
      <point x="472" y="247"/>
      <point x="430" y="288"/>
      <point x="300" y="369" type="curve"/>
      <point x="293" y="376" type="line"/>
      <point x="206" y="427"/>
      <point x="174" y="463"/>
      <point x="174" y="517" type="curve" smooth="yes"/>
      <point x="174" y="572"/>
      <point x="208" y="604"/>
      <point x="258" y="604" type="curve" smooth="yes"/>
      <point x="299" y="604"/>
      <point x="329" y="571"/>
      <point x="329" y="513" type="curve" smooth="yes"/>
      <point x="329" y="452"/>
      <point x="304" y="414"/>
      <point x="267" y="377" type="curve"/>
      <point x="317" y="346" type="line"/>
      <point x="317" y="361" type="line"/>
      <point x="411" y="406"/>
      <point x="444" y="446"/>
      <point x="444" y="514" type="curve" smooth="yes"/>
      <point x="444" y="592"/>
      <point x="364" y="649"/>
      <point x="254" y="649" type="curve" smooth="yes"/>
      <point x="128" y="649"/>
      <point x="39" y="591"/>
      <point x="39" y="494" type="curve" smooth="yes"/>
      <point x="39" y="427"/>
      <point x="64" y="378"/>
      <point x="183" y="303" type="curve"/>
      <point x="187" y="298" type="line"/>
      <point x="297" y="216"/>
      <point x="331" y="184"/>
      <point x="331" y="121" type="curve" smooth="yes"/>
      <point x="331" y="60"/>
      <point x="282" y="29"/>
      <point x="240" y="29" type="curve" smooth="yes"/>
      <point x="181" y="29"/>
      <point x="141" y="67"/>
      <point x="141" y="150" type="curve" smooth="yes"/>
      <point x="141" y="218"/>
      <point x="177" y="245"/>
      <point x="210" y="296" type="curve"/>
      <point x="167" y="324" type="line"/>
      <point x="167" y="310" type="line"/>
      <point x="75" y="255"/>
      <point x="23" y="220"/>
      <point x="23" y="142" type="curve" smooth="yes"/>
      <point x="23" y="39"/>
      <point x="113" y="-14"/>
    </contour>
  </outline>
</glyph>
<glyph name="nine" format="2">
  <advance width="495"/>
  <unicode hex="0039"/>
  <anchor x="243" y="0" name="bottom"/>
  <anchor x="243" y="0" name="cedilla"/>
  <anchor x="244" y="0" name="ogonek"/>
  <anchor x="238" y="657" name="top"/>
  <outline>
    <contour>
      <point x="62" y="-13" type="line"/>
      <point x="282" y="-11"/>
      <point x="469" y="105"/>
      <point x="469" y="374" type="curve" smooth="yes"/>
      <point x="469" y="522"/>
      <point x="402" y="646"/>
      <point x="238" y="646" type="curve" smooth="yes"/>
      <point x="100" y="646"/>
      <point x="26" y="567"/>
      <point x="26" y="432" type="curve" smooth="yes"/>
      <point x="26" y="300"/>
      <point x="94" y="220"/>
      <point x="198" y="220" type="curve" smooth="yes"/>
      <point x="246" y="220"/>
      <point x="277" y="241"/>
      <point x="315" y="274" type="curve"/>
      <point x="324" y="273" type="line"/>
      <point x="301" y="108"/>
      <point x="192" y="47"/>
      <point x="60" y="31" type="curve"/>
    </contour>
    <contour>
      <point x="255" y="296" type="curve" smooth="yes"/>
      <point x="200" y="296"/>
      <point x="173" y="354"/>
      <point x="173" y="438" type="curve" smooth="yes"/>
      <point x="173" y="559"/>
      <point x="195" y="600"/>
      <point x="237" y="600" type="curve" smooth="yes"/>
      <point x="296" y="600"/>
      <point x="319" y="517"/>
      <point x="319" y="398" type="curve" smooth="yes"/>
      <point x="319" y="323"/>
      <point x="292" y="296"/>
    </contour>
  </outline>
</glyph>
<glyph name="less" format="2">
  <advance width="733"/>
  <unicode hex="003C"/>
  <outline>
    <contour>
      <point x="664" y="47" type="line"/>
      <point x="215" y="260" type="line"/>
      <point x="664" y="473" type="line"/>
      <point x="664" y="565" type="line"/>
      <point x="61" y="277" type="line"/>
      <point x="61" y="241" type="line"/>
      <point x="664" y="-43" type="line"/>
    </contour>
  </outline>
</glyph>
<glyph name="equal" format="2">
  <advance width="752"/>
  <unicode hex="003D"/>
  <outline>
    <contour>
      <point x="686" y="330" type="line"/>
      <point x="686" y="422" type="line"/>
      <point x="66" y="422" type="line"/>
      <point x="66" y="330" type="line"/>
    </contour>
    <contour>
      <point x="686" y="93" type="line"/>
      <point x="686" y="184" type="line"/>
      <point x="66" y="184" type="line"/>
      <point x="66" y="93" type="line"/>
    </contour>
  </outline>
</glyph>
<glyph name="greater" format="2">
  <advance width="733"/>
  <unicode hex="003E"/>
  <outline>
    <contour>
      <point x="672" y="241" type="line"/>
      <point x="672" y="277" type="line"/>
      <point x="69" y="565" type="line"/>
      <point x="69" y="473" type="line"/>
      <point x="518" y="260" type="line"/>
      <point x="69" y="47" type="line"/>
      <point x="69" y="-43" type="line"/>
    </contour>
  </outline>
</glyph>
<glyph name="question" format="2">
  <advance width="461"/>
  <unicode hex="003F"/>
  <outline>
    <contour>
      <point x="253" y="193" type="line"/>
      <point x="253" y="209" type="line" smooth="yes"/>
      <point x="253" y="318"/>
      <point x="430" y="357"/>
      <point x="430" y="520" type="curve" smooth="yes"/>
      <point x="430" y="633"/>
      <point x="328" y="672"/>
      <point x="227" y="672" type="curve" smooth="yes"/>
      <point x="109" y="672"/>
      <point x="26" y="615"/>
      <point x="26" y="531" type="curve" smooth="yes"/>
      <point x="26" y="476"/>
      <point x="58" y="447"/>
      <point x="99" y="447" type="curve" smooth="yes"/>
      <point x="129" y="447"/>
      <point x="159" y="462"/>
      <point x="159" y="503" type="curve" smooth="yes"/>
      <point x="159" y="541"/>
      <point x="138" y="542"/>
      <point x="138" y="575" type="curve" smooth="yes"/>
      <point x="138" y="606"/>
      <point x="160" y="627"/>
      <point x="201" y="627" type="curve" smooth="yes"/>
      <point x="246" y="627"/>
      <point x="280" y="596"/>
      <point x="280" y="517" type="curve" smooth="yes"/>
      <point x="280" y="363"/>
      <point x="191" y="350"/>
      <point x="191" y="220" type="curve" smooth="yes"/>
      <point x="191" y="193" type="line"/>
    </contour>
    <contour>
      <point x="224" y="-8" type="curve" smooth="yes"/>
      <point x="276" y="-8"/>
      <point x="300" y="14"/>
      <point x="301" y="62" type="curve" smooth="yes"/>
      <point x="302" y="110"/>
      <point x="274" y="139"/>
      <point x="224" y="139" type="curve" smooth="yes"/>
      <point x="170" y="139"/>
      <point x="146" y="110"/>
      <point x="146" y="63" type="curve" smooth="yes"/>
      <point x="146" y="16"/>
      <point x="172" y="-8"/>
    </contour>
  </outline>
</glyph>
<glyph name="at" format="2">
  <advance width="937"/>
  <unicode hex="0040"/>
  <outline>
    <contour>
      <point x="488" y="-186" type="curve" smooth="yes"/>
      <point x="575" y="-186"/>
      <point x="653" y="-166"/>
      <point x="743" y="-111" type="curve"/>
      <point x="723" y="-69" type="line"/>
      <point x="639" y="-109"/>
      <point x="569" y="-122"/>
      <point x="495" y="-122" type="curve" smooth="yes"/>
      <point x="277" y="-122"/>
      <point x="148" y="2"/>
      <point x="148" y="226" type="curve" smooth="yes"/>
      <point x="148" y="443"/>
      <point x="284" y="566"/>
      <point x="484" y="566" type="curve" smooth="yes"/>
      <point x="669" y="566"/>
      <point x="795" y="452"/>
      <point x="795" y="266" type="curve" smooth="yes"/>
      <point x="795" y="128"/>
      <point x="761" y="65"/>
      <point x="692" y="65" type="curve" smooth="yes"/>
      <point x="665" y="65"/>
      <point x="659" y="90"/>
      <point x="659" y="118" type="curve" smooth="yes"/>
      <point x="663" y="439" type="line"/>
      <point x="599" y="439" type="line"/>
      <point x="562" y="396" type="line"/>
      <point x="552" y="396" type="line"/>
      <point x="530" y="422"/>
      <point x="500" y="445"/>
      <point x="450" y="445" type="curve" smooth="yes"/>
      <point x="309" y="445"/>
      <point x="243" y="340"/>
      <point x="243" y="197" type="curve" smooth="yes"/>
      <point x="243" y="38"/>
      <point x="325" y="-12"/>
      <point x="401" y="-12" type="curve" smooth="yes"/>
      <point x="470" y="-12"/>
      <point x="516" y="26"/>
      <point x="540" y="81" type="curve"/>
      <point x="547" y="81" type="line"/>
      <point x="556" y="16"/>
      <point x="580" y="-11"/>
      <point x="666" y="-11" type="curve" smooth="yes"/>
      <point x="794" y="-11"/>
      <point x="882" y="66"/>
      <point x="882" y="266" type="curve" smooth="yes"/>
      <point x="882" y="476"/>
      <point x="733" y="626"/>
      <point x="485" y="626" type="curve" smooth="yes"/>
      <point x="228" y="626"/>
      <point x="55" y="461"/>
      <point x="55" y="219" type="curve" smooth="yes"/>
      <point x="55" y="-39"/>
      <point x="213" y="-186"/>
    </contour>
    <contour>
      <point x="447" y="68" type="curve" smooth="yes"/>
      <point x="415" y="68"/>
      <point x="385" y="92"/>
      <point x="385" y="212" type="curve" smooth="yes"/>
      <point x="385" y="298"/>
      <point x="404" y="397"/>
      <point x="465" y="397" type="curve" smooth="yes"/>
      <point x="497" y="397"/>
      <point x="517" y="357"/>
      <point x="523" y="314" type="curve"/>
      <point x="521" y="137" type="line"/>
      <point x="511" y="103"/>
      <point x="488" y="68"/>
    </contour>
  </outline>
</glyph>
<glyph name="A" format="2">
  <advance width="749"/>
  <unicode hex="0041"/>
  <anchor x="337" y="0" name="bottom"/>
  <anchor x="338" y="0" name="cedilla"/>
  <anchor x="444" y="0" name="ogonek"/>
  <anchor x="370" y="657" name="top"/>
  <outline>
    <contour>
      <point x="230" y="0" type="line"/>
      <point x="230" y="43" type="line"/>
      <point x="180" y="43"/>
      <point x="162" y="48"/>
      <point x="162" y="80" type="curve" smooth="yes"/>
      <point x="162" y="97"/>
      <point x="170" y="121"/>
      <point x="176" y="138" type="curve"/>
      <point x="210" y="224" type="line"/>
      <point x="218" y="250" type="line"/>
      <point x="324" y="512" type="line"/>
      <point x="328" y="512" type="line"/>
      <point x="422" y="250" type="line"/>
      <point x="430" y="224" type="line"/>
      <point x="458" y="151" type="line" smooth="yes"/>
      <point x="469" y="123"/>
      <point x="478" y="90"/>
      <point x="478" y="75" type="curve" smooth="yes"/>
      <point x="478" y="45"/>
      <point x="444" y="43"/>
      <point x="419" y="43" type="curve"/>
      <point x="419" y="0" type="line"/>
      <point x="740" y="0" type="line"/>
      <point x="740" y="43" type="line"/>
      <point x="694" y="43"/>
      <point x="668" y="74"/>
      <point x="641" y="138" type="curve" smooth="yes"/>
      <point x="425" y="662" type="line"/>
      <point x="320" y="662" type="line"/>
      <point x="103" y="140" type="line"/>
      <point x="72" y="61"/>
      <point x="53" y="43"/>
      <point x="2" y="43" type="curve"/>
      <point x="2" y="0" type="line"/>
    </contour>
    <contour>
      <point x="449" y="211" type="line"/>
      <point x="431" y="263" type="line"/>
      <point x="209" y="263" type="line"/>
      <point x="191" y="211" type="line"/>
    </contour>
  </outline>
</glyph>
<glyph name="C" format="2">
  <advance width="685"/>
  <unicode hex="0043"/>
  <anchor x="361" y="0" name="bottom"/>
  <anchor x="360" y="0" name="cedilla"/>
  <anchor x="360" y="0" name="ogonek"/>
  <anchor x="382" y="657" name="top"/>
  <outline>
    <contour>
      <point x="361" y="-12" type="curve" smooth="yes"/>
      <point x="521" y="-12"/>
      <point x="586" y="63"/>
      <point x="652" y="157" type="curve"/>
      <point x="620" y="185" type="line"/>
      <point x="562" y="121"/>
      <point x="508" y="85"/>
      <point x="410" y="85" type="curve" smooth="yes"/>
      <point x="269" y="85"/>
      <point x="202" y="160"/>
      <point x="202" y="347" type="curve" smooth="yes"/>
      <point x="202" y="522"/>
      <point x="261" y="615"/>
      <point x="382" y="615" type="curve" smooth="yes"/>
      <point x="484" y="615"/>
      <point x="548" y="548"/>
      <point x="575" y="423" type="curve"/>
      <point x="623" y="423" type="line"/>
      <point x="623" y="669" type="line"/>
      <point x="580" y="669" type="line"/>
      <point x="576" y="654"/>
      <point x="570" y="636"/>
      <point x="548" y="636" type="curve" smooth="yes"/>
      <point x="518" y="636"/>
      <point x="490" y="669"/>
      <point x="384" y="669" type="curve" smooth="yes"/>
      <point x="183" y="669"/>
      <point x="45" y="551"/>
      <point x="45" y="321" type="curve" smooth="yes"/>
      <point x="45" y="127"/>
      <point x="143" y="-12"/>
    </contour>
  </outline>
</glyph>
<glyph name="D" format="2">
  <advance width="766"/>
  <unicode hex="0044"/>
  <anchor x="341" y="0" name="bottom"/>
  <anchor x="334" y="0" name="cedilla"/>
  <anchor x="340" y="0" name="ogonek"/>
  <anchor x="362" y="657" name="top"/>
  <outline>
    <contour>
      <point x="327" y="0" type="line" smooth="yes"/>
      <point x="544" y="0"/>
      <point x="721" y="79"/>
      <point x="721" y="340" type="curve" smooth="yes"/>
      <point x="721" y="603"/>
      <point x="523" y="657"/>
      <point x="323" y="657" type="curve" smooth="yes"/>
      <point x="35" y="657" type="line"/>
      <point x="35" y="611" type="line"/>
      <point x="105" y="611"/>
      <point x="128" y="603"/>
      <point x="128" y="529" type="curve" smooth="yes"/>
      <point x="128" y="137" type="line" smooth="yes"/>
      <point x="128" y="55"/>
      <point x="117" y="43"/>
      <point x="35" y="43" type="curve"/>
      <point x="35" y="0" type="line"/>
    </contour>
    <contour>
      <point x="322" y="57" type="curve" smooth="yes"/>
      <point x="308" y="57"/>
      <point x="292" y="57"/>
      <point x="276" y="58" type="curve"/>
      <point x="276" y="599" type="line"/>
      <point x="293" y="600"/>
      <point x="303" y="600"/>
      <point x="315" y="600" type="curve" smooth="yes"/>
      <point x="484" y="600"/>
      <point x="563" y="503"/>
      <point x="563" y="329" type="curve" smooth="yes"/>
      <point x="563" y="107"/>
      <point x="472" y="57"/>
    </contour>
  </outline>
</glyph>
<glyph name="E" format="2">
  <advance width="660"/>
  <unicode hex="0045"/>
  <anchor x="352" y="0" name="bottom"/>
  <anchor x="352" y="0" name="cedilla"/>
  <anchor x="511" y="0" name="ogonek"/>
  <anchor x="352" y="657" name="top"/>
  <outline>
    <contour>
      <point x="608" y="0" type="line"/>
      <point x="632" y="197" type="line"/>
      <point x="584" y="197" type="line"/>
      <point x="553" y="87"/>
      <point x="525" y="61"/>
      <point x="394" y="61" type="curve" smooth="yes"/>
      <point x="276" y="61" type="line"/>
      <point x="276" y="310" type="line"/>
      <point x="365" y="310" type="line" smooth="yes"/>
      <point x="465" y="310"/>
      <point x="474" y="301"/>
      <point x="474" y="218" type="curve"/>
      <point x="521" y="218" type="line"/>
      <point x="521" y="449" type="line"/>
      <point x="474" y="449" type="line"/>
      <point x="474" y="371"/>
      <point x="465" y="364"/>
      <point x="365" y="364" type="curve" smooth="yes"/>
      <point x="276" y="364" type="line"/>
      <point x="276" y="594" type="line"/>
      <point x="408" y="594" type="line" smooth="yes"/>
      <point x="519" y="594"/>
      <point x="537" y="566"/>
      <point x="552" y="476" type="curve"/>
      <point x="603" y="476" type="line"/>
      <point x="597" y="657" type="line"/>
      <point x="35" y="657" type="line"/>
      <point x="35" y="613" type="line"/>
      <point x="117" y="613"/>
      <point x="128" y="598"/>
      <point x="128" y="523" type="curve" smooth="yes"/>
      <point x="128" y="126" type="line" smooth="yes"/>
      <point x="128" y="52"/>
      <point x="103" y="43"/>
      <point x="35" y="43" type="curve"/>
      <point x="35" y="0" type="line"/>
    </contour>
  </outline>
</glyph>
<glyph name="F" format="2">
  <advance width="618"/>
  <unicode hex="0046"/>
  <anchor x="200" y="0" name="bottom"/>
  <anchor x="204" y="0" name="cedilla"/>
  <anchor x="220" y="0" name="ogonek"/>
  <anchor x="340" y="657" name="top"/>
  <outline>
    <contour>
      <point x="380" y="0" type="line"/>
      <point x="380" y="43" type="line"/>
      <point x="300" y="43"/>
      <point x="276" y="55"/>
      <point x="276" y="123" type="curve" smooth="yes"/>
      <point x="276" y="305" type="line"/>
      <point x="353" y="305" type="line" smooth="yes"/>
      <point x="439" y="305"/>
      <point x="469" y="299"/>
      <point x="469" y="218" type="curve"/>
      <point x="516" y="218" type="line"/>
      <point x="516" y="452" type="line"/>
      <point x="469" y="452" type="line"/>
      <point x="469" y="371"/>
      <point x="439" y="359"/>
      <point x="353" y="359" type="curve" smooth="yes"/>
      <point x="276" y="359" type="line"/>
      <point x="276" y="594" type="line"/>
      <point x="395" y="594" type="line" smooth="yes"/>
      <point x="526" y="594"/>
      <point x="535" y="568"/>
      <point x="552" y="473" type="curve"/>
      <point x="604" y="473" type="line"/>
      <point x="597" y="657" type="line"/>
      <point x="35" y="657" type="line"/>
      <point x="35" y="613" type="line"/>
      <point x="111" y="613"/>
      <point x="128" y="601"/>
      <point x="128" y="530" type="curve" smooth="yes"/>
      <point x="128" y="130" type="line" smooth="yes"/>
      <point x="128" y="56"/>
      <point x="110" y="43"/>
      <point x="35" y="43" type="curve"/>
      <point x="35" y="0" type="line"/>
    </contour>
  </outline>
</glyph>
<glyph name="G" format="2">
  <advance width="739"/>
  <unicode hex="0047"/>
  <anchor x="368" y="0" name="bottom"/>
  <anchor x="370" y="0" name="cedilla"/>
  <anchor x="368" y="0" name="ogonek"/>
  <anchor x="379" y="657" name="top"/>
  <outline>
    <contour>
      <point x="379" y="-11" type="curve" smooth="yes"/>
      <point x="489" y="-11"/>
      <point x="566" y="15"/>
      <point x="639" y="57" type="curve"/>
      <point x="639" y="189" type="line" smooth="yes"/>
      <point x="639" y="252"/>
      <point x="649" y="266"/>
      <point x="705" y="266" type="curve"/>
      <point x="705" y="310" type="line"/>
      <point x="422" y="310" type="line"/>
      <point x="422" y="266" type="line"/>
      <point x="498" y="266"/>
      <point x="509" y="251"/>
      <point x="509" y="179" type="curve" smooth="yes"/>
      <point x="509" y="92" type="line"/>
      <point x="471" y="61"/>
      <point x="438" y="49"/>
      <point x="379" y="49" type="curve" smooth="yes"/>
      <point x="252" y="49"/>
      <point x="202" y="147"/>
      <point x="202" y="345" type="curve" smooth="yes"/>
      <point x="202" y="522"/>
      <point x="256" y="615"/>
      <point x="380" y="615" type="curve" smooth="yes"/>
      <point x="485" y="615"/>
      <point x="550" y="560"/>
      <point x="576" y="428" type="curve"/>
      <point x="625" y="428" type="line"/>
      <point x="625" y="669" type="line"/>
      <point x="581" y="669" type="line"/>
      <point x="576" y="650"/>
      <point x="569" y="632"/>
      <point x="548" y="632" type="curve" smooth="yes"/>
      <point x="521" y="632"/>
      <point x="487" y="669"/>
      <point x="381" y="669" type="curve" smooth="yes"/>
      <point x="189" y="669"/>
      <point x="45" y="562"/>
      <point x="45" y="327" type="curve" smooth="yes"/>
      <point x="45" y="112"/>
      <point x="152" y="-11"/>
    </contour>
  </outline>
</glyph>
<glyph name="H" format="2">
  <advance width="844"/>
  <unicode hex="0048"/>
  <anchor x="422" y="0" name="bottom"/>
  <anchor x="200" y="0" name="cedilla"/>
  <anchor x="666" y="0" name="ogonek"/>
  <anchor x="423" y="657" name="top"/>
  <outline>
    <contour>
      <point x="367" y="0" type="line"/>
      <point x="367" y="43" type="line"/>
      <point x="284" y="43"/>
      <point x="277" y="56"/>
      <point x="277" y="144" type="curve" smooth="yes"/>
      <point x="277" y="305" type="line"/>
      <point x="567" y="305" type="line"/>
      <point x="567" y="144" type="line" smooth="yes"/>
      <point x="567" y="57"/>
      <point x="561" y="43"/>
      <point x="473" y="43" type="curve"/>
      <point x="473" y="0" type="line"/>
      <point x="811" y="0" type="line"/>
      <point x="811" y="43" type="line"/>
      <point x="725" y="43"/>
      <point x="716" y="57"/>
      <point x="716" y="144" type="curve" smooth="yes"/>
      <point x="716" y="511" type="line" smooth="yes"/>
      <point x="716" y="590"/>
      <point x="720" y="614"/>
      <point x="811" y="614" type="curve"/>
      <point x="811" y="657" type="line"/>
      <point x="473" y="657" type="line"/>
      <point x="473" y="614" type="line"/>
      <point x="560" y="614"/>
      <point x="567" y="590"/>
      <point x="567" y="511" type="curve" smooth="yes"/>
      <point x="567" y="360" type="line"/>
      <point x="277" y="360" type="line"/>
      <point x="277" y="511" type="line" smooth="yes"/>
      <point x="277" y="590"/>
      <point x="281" y="614"/>
      <point x="371" y="614" type="curve"/>
      <point x="371" y="657" type="line"/>
      <point x="35" y="657" type="line"/>
      <point x="35" y="614" type="line"/>
      <point x="124" y="614"/>
      <point x="128" y="589"/>
      <point x="128" y="511" type="curve" smooth="yes"/>
      <point x="128" y="144" type="line" smooth="yes"/>
      <point x="128" y="56"/>
      <point x="120" y="43"/>
      <point x="35" y="43" type="curve"/>
      <point x="35" y="0" type="line"/>
    </contour>
  </outline>
</glyph>
<glyph name="I" format="2">
  <advance width="405"/>
  <unicode hex="0049"/>
  <anchor x="203" y="0" name="bottom"/>
  <anchor x="211" y="0" name="cedilla"/>
  <anchor x="220" y="0" name="ogonek"/>
  <anchor x="203" y="657" name="top"/>
  <outline>
    <contour>
      <point x="366" y="0" type="line"/>
      <point x="366" y="43" type="line"/>
      <point x="281" y="43"/>
      <point x="277" y="59"/>
      <point x="277" y="144" type="curve" smooth="yes"/>
      <point x="277" y="511" type="line" smooth="yes"/>
      <point x="277" y="589"/>
      <point x="281" y="614"/>
      <point x="370" y="614" type="curve"/>
      <point x="370" y="657" type="line"/>
      <point x="35" y="657" type="line"/>
      <point x="35" y="614" type="line"/>
      <point x="121" y="614"/>
      <point x="128" y="590"/>
      <point x="128" y="511" type="curve" smooth="yes"/>
      <point x="128" y="144" type="line" smooth="yes"/>
      <point x="128" y="58"/>
      <point x="123" y="43"/>
      <point x="35" y="43" type="curve"/>
      <point x="35" y="0" type="line"/>
    </contour>
  </outline>
</glyph>
<glyph name="J" format="2">
  <advance width="470"/>
  <unicode hex="004A"/>
  <anchor x="170" y="0" name="bottom"/>
  <anchor x="179" y="0" name="cedilla"/>
  <anchor x="192" y="0" name="ogonek"/>
  <anchor x="283" y="657" name="top"/>
  <outline>
    <contour>
      <point x="140" y="-13" type="curve" smooth="yes"/>
      <point x="240" y="-13"/>
      <point x="362" y="9"/>
      <point x="362" y="165" type="curve" smooth="yes"/>
      <point x="362" y="511" type="line" smooth="yes"/>
      <point x="362" y="589"/>
      <point x="366" y="614"/>
      <point x="457" y="614" type="curve"/>
      <point x="457" y="657" type="line"/>
      <point x="110" y="657" type="line"/>
      <point x="110" y="614" type="line"/>
      <point x="205" y="614"/>
      <point x="213" y="590"/>
      <point x="213" y="511" type="curve" smooth="yes"/>
      <point x="213" y="132" type="line" smooth="yes"/>
      <point x="213" y="53"/>
      <point x="204" y="34"/>
      <point x="167" y="34" type="curve" smooth="yes"/>
      <point x="119" y="34"/>
      <point x="138" y="143"/>
      <point x="60" y="143" type="curve" smooth="yes"/>
      <point x="22" y="143"/>
      <point x="0" y="117"/>
      <point x="0" y="79" type="curve" smooth="yes"/>
      <point x="0" y="7"/>
      <point x="73" y="-13"/>
    </contour>
  </outline>
</glyph>
<glyph name="K" format="2">
  <advance width="786"/>
  <unicode hex="004B"/>
  <anchor x="398" y="0" name="bottom"/>
  <anchor x="399" y="0" name="cedilla"/>
  <anchor x="651" y="0" name="ogonek"/>
  <anchor x="393" y="657" name="top"/>
  <outline>
    <contour>
      <point x="367" y="0" type="line"/>
      <point x="367" y="43" type="line"/>
      <point x="283" y="43"/>
      <point x="277" y="59"/>
      <point x="277" y="143" type="curve" smooth="yes"/>
      <point x="277" y="303" type="line"/>
      <point x="285" y="303" type="line"/>
      <point x="366" y="216" type="line"/>
      <point x="462" y="117"/>
      <point x="488" y="94"/>
      <point x="488" y="65" type="curve" smooth="yes"/>
      <point x="488" y="50"/>
      <point x="471" y="43"/>
      <point x="450" y="43" type="curve" smooth="yes"/>
      <point x="434" y="43" type="line"/>
      <point x="434" y="0" type="line"/>
      <point x="785" y="0" type="line"/>
      <point x="785" y="43" type="line"/>
      <point x="739" y="43"/>
      <point x="716" y="55"/>
      <point x="685" y="87" type="curve" smooth="yes"/>
      <point x="405" y="379" type="line"/>
      <point x="592" y="547" type="line"/>
      <point x="647" y="598"/>
      <point x="670" y="610"/>
      <point x="727" y="613" type="curve"/>
      <point x="727" y="657" type="line"/>
      <point x="456" y="657" type="line"/>
      <point x="456" y="613" type="line"/>
      <point x="473" y="613" type="line" smooth="yes"/>
      <point x="498" y="613"/>
      <point x="510" y="603"/>
      <point x="510" y="581" type="curve" smooth="yes"/>
      <point x="510" y="552"/>
      <point x="494" y="535"/>
      <point x="453" y="496" type="curve" smooth="yes"/>
      <point x="282" y="338" type="line"/>
      <point x="277" y="338" type="line"/>
      <point x="277" y="510" type="line" smooth="yes"/>
      <point x="277" y="589"/>
      <point x="280" y="614"/>
      <point x="371" y="614" type="curve"/>
      <point x="371" y="657" type="line"/>
      <point x="35" y="657" type="line"/>
      <point x="35" y="614" type="line"/>
      <point x="123" y="614"/>
      <point x="128" y="590"/>
      <point x="128" y="511" type="curve" smooth="yes"/>
      <point x="128" y="144" type="line" smooth="yes"/>
      <point x="128" y="58"/>
      <point x="123" y="43"/>
      <point x="35" y="43" type="curve"/>
      <point x="35" y="0" type="line"/>
    </contour>
  </outline>
</glyph>
<glyph name="L" format="2">
  <advance width="648"/>
  <unicode hex="004C"/>
  <anchor x="319" y="0" name="bottom"/>
  <anchor x="318" y="0" name="cedilla"/>
  <anchor x="469" y="0" name="ogonek"/>
  <anchor x="205" y="657" name="top"/>
  <outline>
    <contour>
      <point x="603" y="0" type="line"/>
      <point x="631" y="211" type="line"/>
      <point x="580" y="211" type="line"/>
      <point x="550" y="94"/>
      <point x="526" y="61"/>
      <point x="413" y="61" type="curve" smooth="yes"/>
      <point x="352" y="61" type="line" smooth="yes"/>
      <point x="293" y="61"/>
      <point x="277" y="70"/>
      <point x="277" y="120" type="curve" smooth="yes"/>
      <point x="277" y="516" type="line" smooth="yes"/>
      <point x="277" y="594"/>
      <point x="289" y="614"/>
      <point x="375" y="614" type="curve"/>
      <point x="375" y="657" type="line"/>
      <point x="35" y="657" type="line"/>
      <point x="35" y="614" type="line"/>
      <point x="119" y="614"/>
      <point x="128" y="593"/>
      <point x="128" y="517" type="curve" smooth="yes"/>
      <point x="128" y="136" type="line" smooth="yes"/>
      <point x="128" y="58"/>
      <point x="118" y="43"/>
      <point x="34" y="43" type="curve"/>
      <point x="34" y="0" type="line"/>
    </contour>
  </outline>
</glyph>
<glyph name="M" format="2">
  <advance width="996"/>
  <unicode hex="004D"/>
  <anchor x="459" y="0" name="bottom"/>
  <anchor x="459" y="0" name="cedilla"/>
  <anchor x="820" y="0" name="ogonek"/>
  <anchor x="498" y="657" name="top"/>
  <outline>
    <contour>
      <point x="280" y="0" type="line"/>
      <point x="280" y="43" type="line"/>
      <point x="205" y="43"/>
      <point x="192" y="50"/>
      <point x="192" y="152" type="curve" smooth="yes"/>
      <point x="192" y="522" type="line"/>
      <point x="198" y="522" type="line"/>
      <point x="418" y="0" type="line"/>
      <point x="497" y="0" type="line"/>
      <point x="714" y="522" type="line"/>
      <point x="720" y="522" type="line"/>
      <point x="720" y="124" type="line" smooth="yes"/>
      <point x="720" y="57"/>
      <point x="708" y="43"/>
      <point x="632" y="43" type="curve"/>
      <point x="632" y="0" type="line"/>
      <point x="955" y="0" type="line"/>
      <point x="955" y="43" type="line"/>
      <point x="886" y="43"/>
      <point x="868" y="57"/>
      <point x="868" y="124" type="curve" smooth="yes"/>
      <point x="868" y="522" type="line" smooth="yes"/>
      <point x="868" y="596"/>
      <point x="885" y="614"/>
      <point x="954" y="614" type="curve"/>
      <point x="954" y="657" type="line"/>
      <point x="692" y="657" type="line"/>
      <point x="505" y="194" type="line"/>
      <point x="497" y="194" type="line"/>
      <point x="309" y="657" type="line"/>
      <point x="28" y="657" type="line"/>
      <point x="28" y="614" type="line"/>
      <point x="104" y="614"/>
      <point x="118" y="596"/>
      <point x="118" y="521" type="curve" smooth="yes"/>
      <point x="118" y="152" type="line" smooth="yes"/>
      <point x="118" y="50"/>
      <point x="106" y="43"/>
      <point x="26" y="43" type="curve"/>
      <point x="26" y="0" type="line"/>
    </contour>
  </outline>
</glyph>
<glyph name="N" format="2">
  <advance width="795"/>
  <unicode hex="004E"/>
  <anchor x="387" y="0" name="bottom"/>
  <anchor x="389" y="0" name="cedilla"/>
  <anchor x="388" y="0" name="ogonek"/>
  <anchor x="417" y="657" name="top"/>
  <outline>
    <contour>
      <point x="687" y="-7" type="line"/>
      <point x="687" y="485" type="line" smooth="yes"/>
      <point x="687" y="562"/>
      <point x="691" y="614"/>
      <point x="777" y="614" type="curve"/>
      <point x="777" y="657" type="line"/>
      <point x="525" y="657" type="line"/>
      <point x="525" y="614" type="line"/>
      <point x="618" y="614"/>
      <point x="620" y="562"/>
      <point x="620" y="485" type="curve" smooth="yes"/>
      <point x="620" y="186" type="line"/>
      <point x="615" y="186" type="line"/>
      <point x="264" y="657" type="line"/>
      <point x="24" y="657" type="line"/>
      <point x="24" y="614" type="line"/>
      <point x="66" y="614"/>
      <point x="89" y="607"/>
      <point x="123" y="558" type="curve"/>
      <point x="153" y="509" type="line"/>
      <point x="189" y="509" type="line"/>
      <point x="572" y="-7" type="line"/>
    </contour>
    <contour>
      <point x="275" y="0" type="line"/>
      <point x="275" y="43" type="line"/>
      <point x="200" y="43"/>
      <point x="184" y="62"/>
      <point x="184" y="162" type="curve" smooth="yes"/>
      <point x="184" y="581" type="line"/>
      <point x="118" y="581" type="line"/>
      <point x="118" y="234" type="line" smooth="yes"/>
      <point x="118" y="134"/>
      <point x="104" y="43"/>
      <point x="24" y="43" type="curve"/>
      <point x="24" y="0" type="line"/>
    </contour>
  </outline>
</glyph>
<glyph name="P" format="2">
  <advance width="648"/>
  <unicode hex="0050"/>
  <anchor x="198" y="0" name="bottom"/>
  <anchor x="211" y="0" name="cedilla"/>
  <anchor x="220" y="0" name="ogonek"/>
  <anchor x="324" y="657" name="top"/>
  <outline>
    <contour>
      <point x="389" y="0" type="line"/>
      <point x="389" y="43" type="line"/>
      <point x="286" y="43"/>
      <point x="277" y="55"/>
      <point x="277" y="136" type="curve" smooth="yes"/>
      <point x="277" y="284" type="line"/>
      <point x="299" y="279"/>
      <point x="328" y="272"/>
      <point x="352" y="272" type="curve" smooth="yes"/>
      <point x="494" y="272"/>
      <point x="621" y="320"/>
      <point x="621" y="481" type="curve" smooth="yes"/>
      <point x="621" y="628"/>
      <point x="495" y="657"/>
      <point x="358" y="657" type="curve" smooth="yes"/>
      <point x="35" y="657" type="line"/>
      <point x="35" y="614" type="line"/>
      <point x="105" y="614"/>
      <point x="128" y="600"/>
      <point x="128" y="535" type="curve" smooth="yes"/>
      <point x="128" y="139" type="line" smooth="yes"/>
      <point x="128" y="56"/>
      <point x="120" y="43"/>
      <point x="35" y="43" type="curve"/>
      <point x="35" y="0" type="line"/>
    </contour>
    <contour>
      <point x="330" y="330" type="curve" smooth="yes"/>
      <point x="301" y="330"/>
      <point x="291" y="333"/>
      <point x="277" y="335" type="curve"/>
      <point x="277" y="605" type="line"/>
      <point x="297" y="607"/>
      <point x="308" y="608"/>
      <point x="326" y="608" type="curve" smooth="yes"/>
      <point x="428" y="608"/>
      <point x="467" y="566"/>
      <point x="467" y="474" type="curve" smooth="yes"/>
      <point x="467" y="355"/>
      <point x="422" y="330"/>
    </contour>
  </outline>
</glyph>
<glyph name="Q" format="2">
  <advance width="748"/>
  <unicode hex="0051"/>
  <anchor x="374" y="-120" name="bottom"/>
  <anchor x="376" y="-120" name="cedilla"/>
  <anchor x="375" y="-120" name="ogonek"/>
  <anchor x="374" y="657" name="top"/>
  <outline>
    <contour>
      <point x="453" y="-5" type="line"/>
      <point x="613" y="23"/>
      <point x="703" y="150"/>
      <point x="703" y="338" type="curve" smooth="yes"/>
      <point x="703" y="546"/>
      <point x="583" y="669"/>
      <point x="374" y="669" type="curve" smooth="yes"/>
      <point x="167" y="669"/>
      <point x="45" y="538"/>
      <point x="45" y="329" type="curve" smooth="yes"/>
      <point x="45" y="122"/>
      <point x="147" y="2"/>
      <point x="335" y="-12" type="curve"/>
    </contour>
    <contour>
      <point x="706" y="-175" type="line"/>
      <point x="706" y="-132" type="line"/>
      <point x="586" y="-132"/>
      <point x="536" y="-106"/>
      <point x="469" y="-5" type="curve"/>
      <point x="469" y="14" type="line"/>
      <point x="310" y="4" type="line"/>
      <point x="339" y="-53" type="line" smooth="yes"/>
      <point x="385" y="-147"/>
      <point x="483" y="-175"/>
      <point x="657" y="-175" type="curve" smooth="yes"/>
    </contour>
    <contour>
      <point x="375" y="38" type="curve" smooth="yes"/>
      <point x="257" y="38"/>
      <point x="201" y="147"/>
      <point x="201" y="335" type="curve" smooth="yes"/>
      <point x="201" y="519"/>
      <point x="266" y="619"/>
      <point x="371" y="619" type="curve" smooth="yes"/>
      <point x="478" y="619"/>
      <point x="547" y="520"/>
      <point x="547" y="335" type="curve" smooth="yes"/>
      <point x="547" y="130"/>
      <point x="491" y="38"/>
    </contour>
  </outline>
</glyph>
<glyph name="R" format="2">
  <advance width="729"/>
  <unicode hex="0052"/>
  <anchor x="365" y="0" name="bottom"/>
  <anchor x="371" y="0" name="cedilla"/>
  <anchor x="376" y="0" name="ogonek"/>
  <anchor x="350" y="657" name="top"/>
  <outline>
    <contour>
      <point x="376" y="0" type="line"/>
      <point x="376" y="43" type="line"/>
      <point x="290" y="43"/>
      <point x="277" y="54"/>
      <point x="277" y="135" type="curve" smooth="yes"/>
      <point x="277" y="290" type="line"/>
      <point x="297" y="290" type="line" smooth="yes"/>
      <point x="331" y="290"/>
      <point x="345" y="286"/>
      <point x="363" y="255" type="curve" smooth="yes"/>
      <point x="403" y="190"/>
      <point x="422" y="161"/>
      <point x="512" y="0" type="curve"/>
      <point x="739" y="0" type="line"/>
      <point x="739" y="43" type="line"/>
      <point x="693" y="43"/>
      <point x="664" y="50"/>
      <point x="633" y="94" type="curve" smooth="yes"/>
      <point x="525" y="245"/>
      <point x="497" y="292"/>
      <point x="465" y="313" type="curve"/>
      <point x="465" y="318" type="line"/>
      <point x="548" y="337"/>
      <point x="623" y="379"/>
      <point x="623" y="489" type="curve" smooth="yes"/>
      <point x="623" y="616"/>
      <point x="500" y="657"/>
      <point x="361" y="657" type="curve" smooth="yes"/>
      <point x="35" y="657" type="line"/>
      <point x="35" y="614" type="line"/>
      <point x="115" y="614"/>
      <point x="128" y="595"/>
      <point x="128" y="536" type="curve" smooth="yes"/>
      <point x="128" y="136" type="line" smooth="yes"/>
      <point x="128" y="54"/>
      <point x="111" y="43"/>
      <point x="35" y="43" type="curve"/>
      <point x="35" y="0" type="line"/>
    </contour>
    <contour>
      <point x="277" y="339" type="line"/>
      <point x="277" y="605" type="line"/>
      <point x="296" y="608"/>
      <point x="316" y="608"/>
      <point x="337" y="608" type="curve" smooth="yes"/>
      <point x="430" y="608"/>
      <point x="468" y="558"/>
      <point x="468" y="482" type="curve" smooth="yes"/>
      <point x="468" y="373"/>
      <point x="415" y="343"/>
      <point x="315" y="338" type="curve"/>
    </contour>
  </outline>
</glyph>
<glyph name="U" format="2">
  <advance width="799"/>
  <unicode hex="0055"/>
  <anchor x="408" y="0" name="bottom"/>
  <anchor x="407" y="0" name="cedilla"/>
  <anchor x="494" y="0" name="ogonek"/>
  <anchor x="448" y="657" name="top"/>
  <outline>
    <contour>
      <point x="416" y="-14" type="curve" smooth="yes"/>
      <point x="614" y="-14"/>
      <point x="692" y="79"/>
      <point x="692" y="264" type="curve" smooth="yes"/>
      <point x="692" y="488" type="line" smooth="yes"/>
      <point x="692" y="591"/>
      <point x="700" y="614"/>
      <point x="787" y="614" type="curve"/>
      <point x="787" y="657" type="line"/>
      <point x="527" y="657" type="line"/>
      <point x="527" y="614" type="line"/>
      <point x="611" y="614"/>
      <point x="621" y="591"/>
      <point x="621" y="485" type="curve" smooth="yes"/>
      <point x="621" y="258" type="line" smooth="yes"/>
      <point x="621" y="120"/>
      <point x="566" y="70"/>
      <point x="441" y="70" type="curve" smooth="yes"/>
      <point x="308" y="70"/>
      <point x="271" y="134"/>
      <point x="271" y="265" type="curve" smooth="yes"/>
      <point x="271" y="521" type="line" smooth="yes"/>
      <point x="271" y="596"/>
      <point x="284" y="614"/>
      <point x="365" y="614" type="curve"/>
      <point x="365" y="657" type="line"/>
      <point x="28" y="657" type="line"/>
      <point x="28" y="614" type="line"/>
      <point x="107" y="614"/>
      <point x="122" y="596"/>
      <point x="122" y="526" type="curve" smooth="yes"/>
      <point x="122" y="247" type="line" smooth="yes"/>
      <point x="122" y="61"/>
      <point x="208" y="-14"/>
    </contour>
  </outline>
</glyph>
<glyph name="W" format="2">
  <advance width="1046"/>
  <unicode hex="0057"/>
  <anchor x="538" y="0" name="bottom"/>
  <anchor x="539" y="0" name="cedilla"/>
  <anchor x="698" y="0" name="ogonek"/>
  <anchor x="553" y="657" name="top"/>
  <outline>
    <contour>
      <point x="771" y="-8" type="line"/>
      <point x="961" y="544" type="line" smooth="yes"/>
      <point x="979" y="595"/>
      <point x="997" y="614"/>
      <point x="1042" y="614" type="curve"/>
      <point x="1042" y="657" type="line"/>
      <point x="817" y="657" type="line"/>
      <point x="817" y="614" type="line"/>
      <point x="855" y="614"/>
      <point x="886" y="608"/>
      <point x="886" y="563" type="curve" smooth="yes"/>
      <point x="886" y="536"/>
      <point x="872" y="496"/>
      <point x="872" y="496" type="curve"/>
      <point x="769" y="182" type="line"/>
      <point x="762" y="182" type="line"/>
      <point x="737" y="263" type="line"/>
      <point x="642" y="519" type="line"/>
      <point x="635" y="541"/>
      <point x="627" y="560"/>
      <point x="627" y="575" type="curve" smooth="yes"/>
      <point x="627" y="599"/>
      <point x="653" y="614"/>
      <point x="701" y="614" type="curve"/>
      <point x="701" y="657" type="line"/>
      <point x="389" y="657" type="line"/>
      <point x="389" y="614" type="line"/>
      <point x="444" y="614"/>
      <point x="456" y="604"/>
      <point x="486" y="518" type="curve" smooth="yes"/>
      <point x="519" y="422" type="line"/>
      <point x="530" y="389" type="line"/>
      <point x="677" y="-8" type="line"/>
    </contour>
    <contour>
      <point x="394" y="-8" type="line"/>
      <point x="537" y="353" type="line"/>
      <point x="559" y="353" type="line"/>
      <point x="515" y="465" type="line"/>
      <point x="401" y="182" type="line"/>
      <point x="394" y="182" type="line"/>
      <point x="368" y="261" type="line"/>
      <point x="256" y="535" type="line"/>
      <point x="249" y="555"/>
      <point x="246" y="570"/>
      <point x="246" y="583" type="curve" smooth="yes"/>
      <point x="246" y="604"/>
      <point x="259" y="614"/>
      <point x="309" y="614" type="curve"/>
      <point x="309" y="657" type="line"/>
      <point x="0" y="657" type="line"/>
      <point x="0" y="614" type="line"/>
      <point x="46" y="609"/>
      <point x="65" y="588"/>
      <point x="93" y="516" type="curve"/>
      <point x="306" y="-8" type="line"/>
    </contour>
  </outline>
</glyph>
<glyph name="X" format="2">
  <advance width="700"/>
  <unicode hex="0058"/>
  <anchor x="339" y="0" name="bottom"/>
  <anchor x="340" y="0" name="cedilla"/>
  <anchor x="548" y="0" name="ogonek"/>
  <anchor x="348" y="657" name="top"/>
  <outline>
    <contour>
      <point x="701" y="0" type="line"/>
      <point x="701" y="43" type="line"/>
      <point x="654" y="45"/>
      <point x="630" y="59"/>
      <point x="595" y="106" type="curve" smooth="yes"/>
      <point x="402" y="368" type="line"/>
      <point x="380" y="388" type="line"/>
      <point x="322" y="485" type="line" smooth="yes"/>
      <point x="309" y="506"/>
      <point x="272" y="553"/>
      <point x="272" y="582" type="curve" smooth="yes"/>
      <point x="272" y="607"/>
      <point x="287" y="613"/>
      <point x="325" y="613" type="curve" smooth="yes"/>
      <point x="335" y="613" type="line"/>
      <point x="335" y="657" type="line"/>
      <point x="-3" y="657" type="line"/>
      <point x="-3" y="613" type="line"/>
      <point x="64" y="613"/>
      <point x="75" y="593"/>
      <point x="111" y="545" type="curve" smooth="yes"/>
      <point x="285" y="310" type="line"/>
      <point x="305" y="288" type="line"/>
      <point x="341" y="224" type="line"/>
      <point x="392" y="145" type="line" smooth="yes"/>
      <point x="419" y="105"/>
      <point x="421" y="92"/>
      <point x="421" y="71" type="curve" smooth="yes"/>
      <point x="421" y="48"/>
      <point x="408" y="43"/>
      <point x="361" y="43" type="curve" smooth="yes"/>
      <point x="354" y="43" type="line"/>
      <point x="354" y="0" type="line"/>
    </contour>
    <contour>
      <point x="248" y="0" type="line"/>
      <point x="248" y="43" type="line"/>
      <point x="192" y="43"/>
      <point x="176" y="53"/>
      <point x="176" y="75" type="curve" smooth="yes"/>
      <point x="176" y="102"/>
      <point x="190" y="119"/>
      <point x="201" y="134" type="curve" smooth="yes"/>
      <point x="308" y="275" type="line"/>
      <point x="327" y="275" type="line"/>
      <point x="285" y="333" type="line"/>
      <point x="99" y="106" type="line" smooth="yes"/>
      <point x="60" y="59"/>
      <point x="43" y="43"/>
      <point x="-1" y="43" type="curve"/>
      <point x="-1" y="0" type="line"/>
    </contour>
    <contour>
      <point x="540" y="518" type="line" smooth="yes"/>
      <point x="599" y="591"/>
      <point x="617" y="609"/>
      <point x="677" y="613" type="curve"/>
      <point x="677" y="657" type="line"/>
      <point x="432" y="657" type="line"/>
      <point x="432" y="613" type="line"/>
      <point x="481" y="613"/>
      <point x="497" y="606"/>
      <point x="497" y="587" type="curve" smooth="yes"/>
      <point x="497" y="563"/>
      <point x="486" y="549"/>
      <point x="469" y="525" type="curve" smooth="yes"/>
      <point x="377" y="400" type="line"/>
      <point x="359" y="400" type="line"/>
      <point x="401" y="346" type="line"/>
    </contour>
  </outline>
</glyph>
<glyph name="Y" format="2">
  <advance width="676"/>
  <unicode hex="0059"/>
  <anchor x="342" y="0" name="bottom"/>
  <anchor x="343" y="0" name="cedilla"/>
  <anchor x="358" y="0" name="ogonek"/>
  <anchor x="356" y="657" name="top"/>
  <outline>
    <contour>
      <point x="516" y="0" type="line"/>
      <point x="516" y="43" type="line"/>
      <point x="436" y="43"/>
      <point x="415" y="50"/>
      <point x="415" y="137" type="curve" smooth="yes"/>
      <point x="415" y="249" type="line"/>
      <point x="565" y="528" type="line"/>
      <point x="608" y="603"/>
      <point x="629" y="611"/>
      <point x="686" y="614" type="curve"/>
      <point x="686" y="657" type="line"/>
      <point x="459" y="657" type="line"/>
      <point x="459" y="614" type="line"/>
      <point x="510" y="614"/>
      <point x="516" y="603"/>
      <point x="516" y="589" type="curve" smooth="yes"/>
      <point x="516" y="579"/>
      <point x="511" y="565"/>
      <point x="506" y="557" type="curve"/>
      <point x="383" y="315" type="line"/>
      <point x="376" y="315" type="line"/>
      <point x="338" y="396" type="line"/>
      <point x="254" y="548" type="line" smooth="yes"/>
      <point x="245" y="564"/>
      <point x="239" y="580"/>
      <point x="239" y="591" type="curve" smooth="yes"/>
      <point x="239" y="606"/>
      <point x="247" y="614"/>
      <point x="301" y="614" type="curve"/>
      <point x="301" y="657" type="line"/>
      <point x="-10" y="657" type="line"/>
      <point x="-10" y="614" type="line"/>
      <point x="37" y="614"/>
      <point x="56" y="606"/>
      <point x="131" y="479" type="curve" smooth="yes"/>
      <point x="266" y="250" type="line"/>
      <point x="266" y="137" type="line" smooth="yes"/>
      <point x="266" y="49"/>
      <point x="255" y="43"/>
      <point x="167" y="43" type="curve"/>
      <point x="167" y="0" type="line"/>
    </contour>
  </outline>
</glyph>
<glyph name="bracketleft" format="2">
  <advance width="394"/>
  <unicode hex="005B"/>
  <outline>
    <contour>
      <point x="349" y="-186" type="line"/>
      <point x="349" y="-136" type="line"/>
      <point x="219" y="-136" type="line"/>
      <point x="219" y="682" type="line"/>
      <point x="349" y="682" type="line"/>
      <point x="349" y="732" type="line"/>
      <point x="100" y="732" type="line"/>
      <point x="100" y="-186" type="line"/>
    </contour>
  </outline>
</glyph>
<glyph name="bracketright" format="2">
  <advance width="394"/>
  <unicode hex="005D"/>
  <outline>
    <contour>
      <point x="294" y="-186" type="line"/>
      <point x="294" y="732" type="line"/>
      <point x="45" y="732" type="line"/>
      <point x="45" y="682" type="line"/>
      <point x="175" y="682" type="line"/>
      <point x="175" y="-136" type="line"/>
      <point x="45" y="-136" type="line"/>
      <point x="45" y="-186" type="line"/>
    </contour>
  </outline>
</glyph>
<glyph name="grave" format="2">
  <advance width="222"/>
  <unicode hex="0060"/>
  <outline>
    <contour>
      <point x="200" y="521" type="line"/>
      <point x="131" y="674" type="line"/>
      <point x="18" y="674" type="line"/>
      <point x="18" y="642" type="line"/>
      <point x="151" y="521" type="line"/>
    </contour>
  </outline>
</glyph>
<glyph name="a" format="2">
  <advance width="528"/>
  <unicode hex="0061"/>
  <anchor x="257" y="0" name="bottom"/>
  <anchor x="257" y="0" name="cedilla"/>
  <anchor x="420" y="0" name="ogonek"/>
  <anchor x="257" y="473" name="top"/>
  <outline>
    <contour>
      <point x="159" y="-11" type="curve" smooth="yes"/>
      <point x="228" y="-11"/>
      <point x="250" y="13"/>
      <point x="298" y="53" type="curve"/>
      <point x="313" y="53" type="line"/>
      <point x="307" y="109" type="line"/>
      <point x="271" y="72"/>
      <point x="251" y="60"/>
      <point x="222" y="60" type="curve" smooth="yes"/>
      <point x="191" y="60"/>
      <point x="176" y="82"/>
      <point x="176" y="131" type="curve" smooth="yes"/>
      <point x="176" y="206"/>
      <point x="217" y="228"/>
      <point x="295" y="252" type="curve"/>
      <point x="295" y="86" type="line"/>
      <point x="300" y="66" type="line"/>
      <point x="308" y="10"/>
      <point x="325" y="-10"/>
      <point x="397" y="-10" type="curve" smooth="yes"/>
      <point x="472" y="-10"/>
      <point x="506" y="22"/>
      <point x="539" y="71" type="curve"/>
      <point x="517" y="93" type="line"/>
      <point x="502" y="78"/>
      <point x="485" y="66"/>
      <point x="469" y="66" type="curve" smooth="yes"/>
      <point x="448" y="66"/>
      <point x="438" y="74"/>
      <point x="438" y="114" type="curve" smooth="yes"/>
      <point x="438" y="331" type="line" smooth="yes"/>
      <point x="438" y="441"/>
      <point x="369" y="486"/>
      <point x="244" y="486" type="curve" smooth="yes"/>
      <point x="128" y="486"/>
      <point x="55" y="434"/>
      <point x="55" y="374" type="curve" smooth="yes"/>
      <point x="55" y="329"/>
      <point x="87" y="307"/>
      <point x="116" y="307" type="curve" smooth="yes"/>
      <point x="151" y="307"/>
      <point x="182" y="325"/>
      <point x="182" y="371" type="curve" smooth="yes"/>
      <point x="182" y="428"/>
      <point x="193" y="442"/>
      <point x="233" y="442" type="curve" smooth="yes"/>
      <point x="281" y="442"/>
      <point x="295" y="424"/>
      <point x="295" y="339" type="curve" smooth="yes"/>
      <point x="295" y="291" type="line"/>
      <point x="200" y="263"/>
      <point x="33" y="242"/>
      <point x="33" y="103" type="curve" smooth="yes"/>
      <point x="33" y="22"/>
      <point x="86" y="-11"/>
    </contour>
  </outline>
</glyph>
<glyph name="b" format="2">
  <advance width="571"/>
  <unicode hex="0062"/>
  <anchor x="275" y="0" name="bottom"/>
  <anchor x="275" y="0" name="cedilla"/>
  <anchor x="275" y="0" name="ogonek"/>
  <anchor x="275" y="693" name="top"/>
  <outline>
    <contour>
      <point x="161" y="706" type="line"/>
      <point x="0" y="671" type="line"/>
      <point x="0" y="628" type="line"/>
      <point x="0" y="628"/>
      <point x="12" y="630"/>
      <point x="29" y="630" type="curve" smooth="yes"/>
      <point x="66" y="630"/>
      <point x="72" y="622"/>
      <point x="72" y="577" type="curve" smooth="yes"/>
      <point x="72" y="30" type="line"/>
      <point x="101" y="17"/>
      <point x="163" y="-11"/>
      <point x="262" y="-11" type="curve" smooth="yes"/>
      <point x="425" y="-11"/>
      <point x="538" y="72"/>
      <point x="538" y="264" type="curve" smooth="yes"/>
      <point x="538" y="409"/>
      <point x="478" y="485"/>
      <point x="371" y="485" type="curve" smooth="yes"/>
      <point x="300" y="485"/>
      <point x="254" y="442"/>
      <point x="219" y="402" type="curve"/>
      <point x="215" y="402" type="line"/>
      <point x="215" y="706" type="line"/>
    </contour>
    <contour>
      <point x="215" y="343" type="line"/>
      <point x="232" y="361"/>
      <point x="265" y="392"/>
      <point x="308" y="392" type="curve" smooth="yes"/>
      <point x="361" y="392"/>
      <point x="383" y="338"/>
      <point x="383" y="237" type="curve" smooth="yes"/>
      <point x="383" y="124"/>
      <point x="360" y="41"/>
      <point x="291" y="41" type="curve" smooth="yes"/>
      <point x="253" y="41"/>
      <point x="228" y="63"/>
      <point x="215" y="86" type="curve"/>
    </contour>
  </outline>
</glyph>
<glyph name="c" format="2">
  <advance width="495"/>
  <unicode hex="0063"/>
  <anchor x="279" y="0" name="bottom"/>
  <anchor x="279" y="0" name="cedilla"/>
  <anchor x="279" y="0" name="ogonek"/>
  <anchor x="273" y="473" name="top"/>
  <outline>
    <contour>
      <point x="453" y="169" type="line"/>
      <point x="415" y="121"/>
      <point x="377" y="96"/>
      <point x="309" y="96" type="curve" smooth="yes"/>
      <point x="202" y="96"/>
      <point x="174" y="159"/>
      <point x="174" y="274" type="curve" smooth="yes"/>
      <point x="174" y="380"/>
      <point x="198" y="438"/>
      <point x="259" y="438" type="curve" smooth="yes"/>
      <point x="350" y="438"/>
      <point x="303" y="311"/>
      <point x="396" y="311" type="curve" smooth="yes"/>
      <point x="434" y="311"/>
      <point x="468" y="332"/>
      <point x="468" y="376" type="curve" smooth="yes"/>
      <point x="468" y="438"/>
      <point x="400" y="486"/>
      <point x="285" y="486" type="curve" smooth="yes"/>
      <point x="112" y="486"/>
      <point x="31" y="377"/>
      <point x="31" y="226" type="curve" smooth="yes"/>
      <point x="31" y="70"/>
      <point x="117" y="-11"/>
      <point x="256" y="-11" type="curve" smooth="yes"/>
      <point x="390" y="-11"/>
      <point x="438" y="65"/>
      <point x="479" y="153" type="curve"/>
    </contour>
  </outline>
</glyph>
<glyph name="d" format="2">
  <advance width="592"/>
  <unicode hex="0064"/>
  <anchor x="298" y="0" name="bottom"/>
  <anchor x="298" y="0" name="cedilla"/>
  <anchor x="431" y="0" name="ogonek"/>
  <anchor x="297" y="693" name="top"/>
  <outline>
    <contour>
      <point x="203" y="-10" type="curve" smooth="yes"/>
      <point x="269" y="-10"/>
      <point x="319" y="26"/>
      <point x="357" y="59" type="curve"/>
      <point x="361" y="59" type="line"/>
      <point x="361" y="-5" type="line"/>
      <point x="396" y="-5" type="line"/>
      <point x="575" y="12" type="line"/>
      <point x="575" y="53" type="line"/>
      <point x="554" y="53" type="line" smooth="yes"/>
      <point x="517" y="53"/>
      <point x="502" y="63"/>
      <point x="502" y="114" type="curve" smooth="yes"/>
      <point x="502" y="706" type="line"/>
      <point x="446" y="706" type="line"/>
      <point x="286" y="671" type="line"/>
      <point x="286" y="628" type="line"/>
      <point x="286" y="628"/>
      <point x="305" y="629"/>
      <point x="315" y="629" type="curve" smooth="yes"/>
      <point x="353" y="629"/>
      <point x="359" y="621"/>
      <point x="359" y="577" type="curve" smooth="yes"/>
      <point x="359" y="463" type="line"/>
      <point x="356" y="463" type="line"/>
      <point x="323" y="479"/>
      <point x="290" y="485"/>
      <point x="259" y="485" type="curve" smooth="yes"/>
      <point x="133" y="485"/>
      <point x="32" y="406"/>
      <point x="32" y="222" type="curve" smooth="yes"/>
      <point x="32" y="94"/>
      <point x="88" y="-10"/>
    </contour>
    <contour>
      <point x="267" y="73" type="curve" smooth="yes"/>
      <point x="214" y="73"/>
      <point x="187" y="126"/>
      <point x="187" y="252" type="curve" smooth="yes"/>
      <point x="187" y="372"/>
      <point x="218" y="426"/>
      <point x="269" y="426" type="curve" smooth="yes"/>
      <point x="324" y="426"/>
      <point x="350" y="387"/>
      <point x="359" y="351" type="curve"/>
      <point x="359" y="109" type="line"/>
      <point x="326" y="86"/>
      <point x="306" y="73"/>
    </contour>
  </outline>
</glyph>
<glyph name="e" format="2">
  <advance width="515"/>
  <unicode hex="0065"/>
  <anchor x="265" y="0" name="bottom"/>
  <anchor x="265" y="0" name="cedilla"/>
  <anchor x="309" y="0" name="ogonek"/>
  <anchor x="265" y="473" name="top"/>
  <outline>
    <contour>
      <point x="259" y="-11" type="curve" smooth="yes"/>
      <point x="407" y="-11"/>
      <point x="447" y="68"/>
      <point x="489" y="146" type="curve"/>
      <point x="463" y="164" type="line"/>
      <point x="430" y="123"/>
      <point x="390" y="97"/>
      <point x="312" y="97" type="curve" smooth="yes"/>
      <point x="223" y="97"/>
      <point x="178" y="140"/>
      <point x="178" y="272" type="curve" smooth="yes"/>
      <point x="178" y="391"/>
      <point x="196" y="441"/>
      <point x="258" y="441" type="curve" smooth="yes"/>
      <point x="311" y="441"/>
      <point x="326" y="386"/>
      <point x="326" y="304" type="curve"/>
      <point x="166" y="304" type="line"/>
      <point x="167" y="257" type="line"/>
      <point x="483" y="257" type="line"/>
      <point x="481" y="408"/>
      <point x="398" y="485"/>
      <point x="272" y="485" type="curve" smooth="yes"/>
      <point x="142" y="485"/>
      <point x="32" y="406"/>
      <point x="32" y="234" type="curve" smooth="yes"/>
      <point x="32" y="75"/>
      <point x="113" y="-11"/>
    </contour>
  </outline>
</glyph>
<glyph name="f" format="2">
  <advance width="362"/>
  <unicode hex="0066"/>
  <anchor x="159" y="0" name="bottom"/>
  <anchor x="179" y="0" name="cedilla"/>
  <anchor x="196" y="0" name="ogonek"/>
  <anchor x="173" y="693" name="top"/>
  <outline>
    <contour>
      <point x="340" y="0" type="line"/>
      <point x="340" y="40" type="line"/>
      <point x="254" y="40"/>
      <point x="237" y="54"/>
      <point x="237" y="134" type="curve" smooth="yes"/>
      <point x="237" y="560" type="line" smooth="yes"/>
      <point x="237" y="638"/>
      <point x="249" y="668"/>
      <point x="288" y="668" type="curve" smooth="yes"/>
      <point x="306" y="668"/>
      <point x="317" y="663"/>
      <point x="335" y="626" type="curve" smooth="yes"/>
      <point x="353" y="587"/>
      <point x="366" y="574"/>
      <point x="397" y="574" type="curve" smooth="yes"/>
      <point x="424" y="574"/>
      <point x="455" y="590"/>
      <point x="455" y="631" type="curve" smooth="yes"/>
      <point x="455" y="697"/>
      <point x="393" y="717"/>
      <point x="319" y="717" type="curve" smooth="yes"/>
      <point x="240" y="717"/>
      <point x="194" y="697"/>
      <point x="150" y="650" type="curve" smooth="yes"/>
      <point x="95" y="592"/>
      <point x="94" y="544"/>
      <point x="94" y="448" type="curve" smooth="yes"/>
      <point x="94" y="134" type="line" smooth="yes"/>
      <point x="94" y="50"/>
      <point x="81" y="40"/>
      <point x="6" y="40" type="curve"/>
      <point x="6" y="0" type="line"/>
    </contour>
    <contour>
      <point x="362" y="407" type="line"/>
      <point x="362" y="468" type="line"/>
      <point x="13" y="468" type="line"/>
      <point x="13" y="407" type="line"/>
    </contour>
  </outline>
</glyph>
<glyph name="g" format="2">
  <advance width="530"/>
  <unicode hex="0067"/>
  <anchor x="229" y="-220" name="bottom"/>
  <anchor x="229" y="-220" name="cedilla"/>
  <anchor x="269" y="-220" name="ogonek"/>
  <anchor x="257" y="473" name="top"/>
  <outline>
    <contour>
      <point x="198" y="-235" type="curve" smooth="yes"/>
      <point x="324" y="-235"/>
      <point x="508" y="-190"/>
      <point x="508" y="-44" type="curve" smooth="yes"/>
      <point x="508" y="57"/>
      <point x="436" y="82"/>
      <point x="268" y="84" type="curve" smooth="yes"/>
      <point x="148" y="85"/>
      <point x="137" y="93"/>
      <point x="137" y="116" type="curve" smooth="yes"/>
      <point x="137" y="137"/>
      <point x="144" y="153"/>
      <point x="163" y="179" type="curve"/>
      <point x="113" y="200" type="line"/>
      <point x="113" y="182" type="line"/>
      <point x="67" y="143"/>
      <point x="27" y="118"/>
      <point x="27" y="55" type="curve" smooth="yes"/>
      <point x="27" y="-9"/>
      <point x="84" y="-23"/>
      <point x="98" y="-26" type="curve"/>
      <point x="132" y="-35" type="line"/>
      <point x="145" y="-35"/>
      <point x="174" y="-36"/>
      <point x="260" y="-37" type="curve" smooth="yes"/>
      <point x="337" y="-38"/>
      <point x="403" y="-40"/>
      <point x="403" y="-98" type="curve" smooth="yes"/>
      <point x="403" y="-136"/>
      <point x="378" y="-169"/>
      <point x="265" y="-169" type="curve" smooth="yes"/>
      <point x="158" y="-169"/>
      <point x="117" y="-146"/>
      <point x="117" y="-102" type="curve" smooth="yes"/>
      <point x="117" y="-74"/>
      <point x="129" y="-44"/>
      <point x="139" y="-28" type="curve"/>
      <point x="94" y="-14" type="line"/>
      <point x="94" y="-28" type="line"/>
      <point x="43" y="-67"/>
      <point x="19" y="-92"/>
      <point x="19" y="-130" type="curve" smooth="yes"/>
      <point x="19" y="-191"/>
      <point x="59" y="-235"/>
    </contour>
    <contour>
      <point x="251" y="149" type="curve" smooth="yes"/>
      <point x="354" y="149"/>
      <point x="456" y="188"/>
      <point x="456" y="304" type="curve" smooth="yes"/>
      <point x="456" y="356"/>
      <point x="441" y="381"/>
      <point x="429" y="400" type="curve"/>
      <point x="429" y="447" type="line"/>
      <point x="389" y="471"/>
      <point x="300" y="482"/>
      <point x="247" y="482" type="curve" smooth="yes"/>
      <point x="144" y="482"/>
      <point x="39" y="434"/>
      <point x="39" y="318" type="curve" smooth="yes"/>
      <point x="39" y="226"/>
      <point x="89" y="203"/>
      <point x="120" y="184" type="curve"/>
      <point x="144" y="171" type="line"/>
      <point x="177" y="155"/>
      <point x="212" y="149"/>
    </contour>
    <contour>
      <point x="250" y="197" type="curve" smooth="yes"/>
      <point x="204" y="197"/>
      <point x="172" y="232"/>
      <point x="172" y="322" type="curve" smooth="yes"/>
      <point x="172" y="405"/>
      <point x="202" y="432"/>
      <point x="244" y="432" type="curve" smooth="yes"/>
      <point x="292" y="432"/>
      <point x="320" y="397"/>
      <point x="320" y="312" type="curve" smooth="yes"/>
      <point x="320" y="223"/>
      <point x="290" y="197"/>
    </contour>
    <contour>
      <point x="522" y="404" type="line"/>
      <point x="522" y="466" type="line"/>
      <point x="381" y="466" type="line"/>
      <point x="413" y="404" type="line"/>
    </contour>
  </outline>
</glyph>
<glyph name="h" format="2">
  <advance width="640"/>
  <unicode hex="0068"/>
  <anchor x="322" y="0" name="bottom"/>
  <anchor x="162" y="0" name="cedilla"/>
  <anchor x="486" y="0" name="ogonek"/>
  <anchor x="303" y="693" name="top"/>
  <outline>
    <contour>
      <point x="623" y="0" type="line"/>
      <point x="623" y="40" type="line"/>
      <point x="564" y="40"/>
      <point x="553" y="58"/>
      <point x="553" y="112" type="curve" smooth="yes"/>
      <point x="553" y="295" type="line" smooth="yes"/>
      <point x="553" y="420"/>
      <point x="497" y="485"/>
      <point x="394" y="485" type="curve" smooth="yes"/>
      <point x="333" y="485"/>
      <point x="294" y="458"/>
      <point x="239" y="401" type="curve"/>
      <point x="221" y="401" type="line"/>
      <point x="219" y="332" type="line"/>
      <point x="269" y="376"/>
      <point x="294" y="389"/>
      <point x="333" y="389" type="curve" smooth="yes"/>
      <point x="407" y="389"/>
      <point x="410" y="323"/>
      <point x="410" y="247" type="curve" smooth="yes"/>
      <point x="410" y="109" type="line" smooth="yes"/>
      <point x="410" y="59"/>
      <point x="407" y="40"/>
      <point x="345" y="40" type="curve"/>
      <point x="345" y="0" type="line"/>
    </contour>
    <contour>
      <point x="307" y="0" type="line"/>
      <point x="307" y="40" type="line"/>
      <point x="239" y="40"/>
      <point x="235" y="60"/>
      <point x="235" y="108" type="curve" smooth="yes"/>
      <point x="235" y="706" type="line"/>
      <point x="173" y="706" type="line"/>
      <point x="15" y="675" type="line"/>
      <point x="15" y="634" type="line"/>
      <point x="15" y="634"/>
      <point x="28" y="637"/>
      <point x="44" y="637" type="curve" smooth="yes"/>
      <point x="71" y="637"/>
      <point x="92" y="632"/>
      <point x="92" y="597" type="curve" smooth="yes"/>
      <point x="92" y="104" type="line" smooth="yes"/>
      <point x="92" y="49"/>
      <point x="76" y="40"/>
      <point x="22" y="40" type="curve"/>
      <point x="22" y="0" type="line"/>
    </contour>
  </outline>
</glyph>
<glyph name="i" format="2">
  <advance width="329"/>
  <unicode hex="0069"/>
  <anchor x="165" y="0" name="bottom"/>
  <anchor x="171" y="0" name="cedilla"/>
  <anchor x="183" y="0" name="ogonek"/>
  <anchor x="162" y="700" name="top.mkmk"/>
  <outline>
    <contour>
      <point x="314" y="0" type="line"/>
      <point x="314" y="40" type="line"/>
      <point x="247" y="40"/>
      <point x="237" y="55"/>
      <point x="237" y="113" type="curve" smooth="yes"/>
      <point x="237" y="482" type="line"/>
      <point x="167" y="482" type="line"/>
      <point x="17" y="454" type="line"/>
      <point x="17" y="412" type="line"/>
      <point x="17" y="412"/>
      <point x="29" y="414"/>
      <point x="43" y="414" type="curve" smooth="yes"/>
      <point x="73" y="414"/>
      <point x="94" y="410"/>
      <point x="94" y="365" type="curve" smooth="yes"/>
      <point x="94" y="110" type="line" smooth="yes"/>
      <point x="94" y="53"/>
      <point x="83" y="40"/>
      <point x="18" y="40" type="curve"/>
      <point x="18" y="0" type="line"/>
    </contour>
    <contour>
      <point x="162" y="545" type="curve" smooth="yes"/>
      <point x="215" y="545"/>
      <point x="243" y="576"/>
      <point x="243" y="624" type="curve" smooth="yes"/>
      <point x="243" y="670"/>
      <point x="215" y="701"/>
      <point x="162" y="701" type="curve" smooth="yes"/>
      <point x="111" y="701"/>
      <point x="82" y="670"/>
      <point x="82" y="623" type="curve" smooth="yes"/>
      <point x="82" y="576"/>
      <point x="112" y="545"/>
    </contour>
  </outline>
</glyph>
<glyph name="j" format="2">
  <advance width="312"/>
  <unicode hex="006A"/>
  <anchor x="59" y="-220" name="bottom"/>
  <anchor x="59" y="-220" name="cedilla"/>
  <anchor x="59" y="-220" name="ogonek"/>
  <anchor x="164" y="700" name="top"/>
  <outline>
    <contour>
      <point x="23" y="-235" type="curve" smooth="yes"/>
      <point x="140" y="-235"/>
      <point x="235" y="-164"/>
      <point x="235" y="-2" type="curve" smooth="yes"/>
      <point x="235" y="482" type="line"/>
      <point x="164" y="482" type="line"/>
      <point x="15" y="454" type="line"/>
      <point x="15" y="412" type="line"/>
      <point x="15" y="412"/>
      <point x="30" y="414"/>
      <point x="46" y="414" type="curve" smooth="yes"/>
      <point x="80" y="414"/>
      <point x="92" y="404"/>
      <point x="92" y="360" type="curve" smooth="yes"/>
      <point x="92" y="-25" type="line" smooth="yes"/>
      <point x="92" y="-134"/>
      <point x="91" y="-179"/>
      <point x="49" y="-179" type="curve" smooth="yes"/>
      <point x="2" y="-179"/>
      <point x="9" y="-87"/>
      <point x="-60" y="-87" type="curve" smooth="yes"/>
      <point x="-91" y="-87"/>
      <point x="-114" y="-109"/>
      <point x="-114" y="-142" type="curve" smooth="yes"/>
      <point x="-114" y="-210"/>
      <point x="-53" y="-235"/>
    </contour>
    <contour>
      <point x="163" y="545" type="curve" smooth="yes"/>
      <point x="216" y="545"/>
      <point x="244" y="576"/>
      <point x="244" y="624" type="curve" smooth="yes"/>
      <point x="244" y="670"/>
      <point x="216" y="701"/>
      <point x="163" y="701" type="curve" smooth="yes"/>
      <point x="112" y="701"/>
      <point x="82" y="670"/>
      <point x="82" y="623" type="curve" smooth="yes"/>
      <point x="82" y="576"/>
      <point x="113" y="545"/>
    </contour>
  </outline>
</glyph>
<glyph name="k" format="2">
  <advance width="613"/>
  <unicode hex="006B"/>
  <anchor x="311" y="0" name="bottom"/>
  <anchor x="306" y="0" name="cedilla"/>
  <anchor x="476" y="0" name="ogonek"/>
  <anchor x="304" y="693" name="top"/>
  <outline>
    <contour>
      <point x="307" y="0" type="line"/>
      <point x="307" y="40" type="line"/>
      <point x="249" y="40"/>
      <point x="235" y="50"/>
      <point x="235" y="103" type="curve" smooth="yes"/>
      <point x="235" y="229" type="line"/>
      <point x="244" y="229" type="line"/>
      <point x="376" y="78" type="line" smooth="yes"/>
      <point x="385" y="68"/>
      <point x="387" y="60"/>
      <point x="387" y="55" type="curve" smooth="yes"/>
      <point x="387" y="45"/>
      <point x="383" y="40"/>
      <point x="353" y="40" type="curve"/>
      <point x="353" y="0" type="line"/>
      <point x="615" y="0" type="line"/>
      <point x="615" y="40" type="line"/>
      <point x="587" y="40"/>
      <point x="574" y="42"/>
      <point x="540" y="79" type="curve" smooth="yes"/>
      <point x="338" y="294" type="line"/>
      <point x="377" y="326" type="line" smooth="yes"/>
      <point x="485" y="414"/>
      <point x="522" y="433"/>
      <point x="573" y="433" type="curve"/>
      <point x="573" y="473" type="line"/>
      <point x="313" y="473" type="line"/>
      <point x="313" y="433" type="line"/>
      <point x="355" y="433"/>
      <point x="363" y="426"/>
      <point x="363" y="411" type="curve" smooth="yes"/>
      <point x="363" y="399"/>
      <point x="356" y="390"/>
      <point x="349" y="382" type="curve" smooth="yes"/>
      <point x="243" y="266" type="line"/>
      <point x="235" y="266" type="line"/>
      <point x="235" y="706" type="line"/>
      <point x="168" y="706" type="line"/>
      <point x="12" y="675" type="line"/>
      <point x="12" y="635" type="line"/>
      <point x="12" y="635"/>
      <point x="35" y="637"/>
      <point x="48" y="637" type="curve" smooth="yes"/>
      <point x="73" y="637"/>
      <point x="92" y="628"/>
      <point x="92" y="597" type="curve" smooth="yes"/>
      <point x="92" y="109" type="line" smooth="yes"/>
      <point x="92" y="52"/>
      <point x="81" y="40"/>
      <point x="18" y="40" type="curve"/>
      <point x="18" y="0" type="line"/>
    </contour>
  </outline>
</glyph>
<glyph name="l" format="2">
  <advance width="327"/>
  <unicode hex="006C"/>
  <anchor x="166" y="0" name="bottom"/>
  <anchor x="171" y="0" name="cedilla"/>
  <anchor x="183" y="0" name="ogonek"/>
  <anchor x="165" y="693" name="top"/>
  <outline>
    <contour>
      <point x="315" y="0" type="line"/>
      <point x="315" y="40" type="line"/>
      <point x="243" y="40"/>
      <point x="235" y="55"/>
      <point x="235" y="112" type="curve" smooth="yes"/>
      <point x="235" y="706" type="line"/>
      <point x="169" y="706" type="line"/>
      <point x="12" y="675" type="line"/>
      <point x="12" y="635" type="line"/>
      <point x="12" y="635"/>
      <point x="27" y="637"/>
      <point x="43" y="637" type="curve" smooth="yes"/>
      <point x="68" y="637"/>
      <point x="92" y="633"/>
      <point x="92" y="595" type="curve" smooth="yes"/>
      <point x="92" y="112" type="line" smooth="yes"/>
      <point x="92" y="57"/>
      <point x="85" y="40"/>
      <point x="19" y="40" type="curve"/>
      <point x="19" y="0" type="line"/>
    </contour>
  </outline>
</glyph>
<glyph name="m" format="2">
  <advance width="948"/>
  <unicode hex="006D"/>
  <anchor x="476" y="0" name="bottom"/>
  <anchor x="474" y="0" name="cedilla"/>
  <anchor x="476" y="0" name="ogonek"/>
  <anchor x="476" y="473" name="top"/>
  <outline>
    <contour>
      <point x="618" y="0" type="line"/>
      <point x="618" y="40" type="line"/>
      <point x="560" y="40"/>
      <point x="549" y="57"/>
      <point x="549" y="112" type="curve" smooth="yes"/>
      <point x="549" y="290" type="line" smooth="yes"/>
      <point x="549" y="313"/>
      <point x="547" y="335"/>
      <point x="544" y="356" type="curve" smooth="yes"/>
      <point x="532" y="437"/>
      <point x="483" y="485"/>
      <point x="395" y="485" type="curve" smooth="yes"/>
      <point x="325" y="485"/>
      <point x="283" y="443"/>
      <point x="239" y="400" type="curve"/>
      <point x="220" y="400" type="line"/>
      <point x="227" y="334" type="line"/>
      <point x="256" y="367"/>
      <point x="291" y="389"/>
      <point x="332" y="389" type="curve" smooth="yes"/>
      <point x="379" y="389"/>
      <point x="406" y="362"/>
      <point x="406" y="268" type="curve" smooth="yes"/>
      <point x="406" y="112" type="line" smooth="yes"/>
      <point x="406" y="56"/>
      <point x="401" y="40"/>
      <point x="341" y="40" type="curve"/>
      <point x="341" y="0" type="line"/>
    </contour>
    <contour>
      <point x="309" y="0" type="line"/>
      <point x="309" y="40" type="line"/>
      <point x="243" y="40"/>
      <point x="237" y="57"/>
      <point x="237" y="112" type="curve" smooth="yes"/>
      <point x="237" y="359" type="line"/>
      <point x="234" y="386" type="line"/>
      <point x="234" y="482" type="line"/>
      <point x="180" y="482" type="line"/>
      <point x="26" y="453" type="line"/>
      <point x="26" y="412" type="line"/>
      <point x="26" y="412"/>
      <point x="36" y="414"/>
      <point x="53" y="414" type="curve" smooth="yes"/>
      <point x="81" y="414"/>
      <point x="94" y="406"/>
      <point x="94" y="369" type="curve" smooth="yes"/>
      <point x="94" y="112" type="line" smooth="yes"/>
      <point x="94" y="57"/>
      <point x="91" y="40"/>
      <point x="25" y="40" type="curve"/>
      <point x="25" y="0" type="line"/>
    </contour>
    <contour>
      <point x="930" y="0" type="line"/>
      <point x="930" y="40" type="line"/>
      <point x="872" y="40"/>
      <point x="861" y="57"/>
      <point x="861" y="112" type="curve" smooth="yes"/>
      <point x="861" y="290" type="line" smooth="yes"/>
      <point x="861" y="422"/>
      <point x="801" y="485"/>
      <point x="707" y="485" type="curve" smooth="yes"/>
      <point x="640" y="485"/>
      <point x="588" y="444"/>
      <point x="539" y="394" type="curve"/>
      <point x="522" y="394" type="line"/>
      <point x="537" y="335" type="line"/>
      <point x="564" y="365"/>
      <point x="604" y="389"/>
      <point x="645" y="389" type="curve" smooth="yes"/>
      <point x="692" y="389"/>
      <point x="718" y="362"/>
      <point x="718" y="268" type="curve" smooth="yes"/>
      <point x="718" y="112" type="line" smooth="yes"/>
      <point x="718" y="56"/>
      <point x="712" y="40"/>
      <point x="653" y="40" type="curve"/>
      <point x="653" y="0" type="line"/>
    </contour>
  </outline>
</glyph>
<glyph name="n" format="2">
  <advance width="646"/>
  <unicode hex="006E"/>
  <anchor x="328" y="0" name="bottom"/>
  <anchor x="329" y="0" name="cedilla"/>
  <anchor x="506" y="0" name="ogonek"/>
  <anchor x="318" y="473" name="top"/>
  <outline>
    <contour>
      <point x="628" y="0" type="line"/>
      <point x="628" y="40" type="line"/>
      <point x="570" y="40"/>
      <point x="559" y="57"/>
      <point x="559" y="112" type="curve" smooth="yes"/>
      <point x="559" y="290" type="line" smooth="yes"/>
      <point x="559" y="422"/>
      <point x="498" y="485"/>
      <point x="393" y="485" type="curve" smooth="yes"/>
      <point x="333" y="485"/>
      <point x="290" y="450"/>
      <point x="239" y="400" type="curve"/>
      <point x="221" y="400" type="line"/>
      <point x="227" y="337" type="line"/>
      <point x="260" y="365"/>
      <point x="289" y="389"/>
      <point x="335" y="389" type="curve" smooth="yes"/>
      <point x="388" y="389"/>
      <point x="416" y="362"/>
      <point x="416" y="268" type="curve" smooth="yes"/>
      <point x="416" y="112" type="line" smooth="yes"/>
      <point x="416" y="56"/>
      <point x="409" y="40"/>
      <point x="350" y="40" type="curve"/>
      <point x="350" y="0" type="line"/>
    </contour>
    <contour>
      <point x="309" y="0" type="line"/>
      <point x="309" y="40" type="line"/>
      <point x="243" y="40"/>
      <point x="238" y="57"/>
      <point x="238" y="112" type="curve" smooth="yes"/>
      <point x="238" y="360" type="line"/>
      <point x="235" y="386" type="line"/>
      <point x="235" y="482" type="line"/>
      <point x="180" y="482" type="line"/>
      <point x="26" y="453" type="line"/>
      <point x="26" y="412" type="line"/>
      <point x="26" y="412"/>
      <point x="36" y="414"/>
      <point x="53" y="414" type="curve" smooth="yes"/>
      <point x="81" y="414"/>
      <point x="94" y="406"/>
      <point x="94" y="369" type="curve" smooth="yes"/>
      <point x="94" y="112" type="line" smooth="yes"/>
      <point x="94" y="57"/>
      <point x="91" y="40"/>
      <point x="25" y="40" type="curve"/>
      <point x="25" y="0" type="line"/>
    </contour>
  </outline>
</glyph>
<glyph name="o" format="2">
  <advance width="548"/>
  <unicode hex="006F"/>
  <anchor x="274" y="0" name="bottom"/>
  <anchor x="274" y="0" name="cedilla"/>
  <anchor x="319" y="0" name="ogonek"/>
  <anchor x="278" y="473" name="top"/>
  <outline>
    <contour>
      <point x="274" y="-10" type="curve" smooth="yes"/>
      <point x="431" y="-10"/>
      <point x="516" y="80"/>
      <point x="516" y="251" type="curve" smooth="yes"/>
      <point x="516" y="395"/>
      <point x="437" y="485"/>
      <point x="277" y="485" type="curve" smooth="yes"/>
      <point x="109" y="485"/>
      <point x="32" y="380"/>
      <point x="32" y="240" type="curve" smooth="yes"/>
      <point x="32" y="66"/>
      <point x="117" y="-10"/>
    </contour>
    <contour>
      <point x="277" y="39" type="curve" smooth="yes"/>
      <point x="212" y="39"/>
      <point x="184" y="107"/>
      <point x="184" y="250" type="curve" smooth="yes"/>
      <point x="184" y="364"/>
      <point x="205" y="437"/>
      <point x="269" y="437" type="curve" smooth="yes"/>
      <point x="335" y="437"/>
      <point x="364" y="368"/>
      <point x="364" y="243" type="curve" smooth="yes"/>
      <point x="364" y="105"/>
      <point x="343" y="39"/>
    </contour>
  </outline>
</glyph>
<glyph name="p" format="2">
  <advance width="586"/>
  <unicode hex="0070"/>
  <anchor x="254" y="-220" name="bottom"/>
  <anchor x="188" y="-220" name="cedilla"/>
  <anchor x="188" y="-220" name="ogonek"/>
  <anchor x="292" y="473" name="top"/>
  <outline>
    <contour>
      <point x="327" y="-220" type="line"/>
      <point x="327" y="-179" type="line"/>
      <point x="249" y="-179"/>
      <point x="230" y="-166"/>
      <point x="230" y="-101" type="curve" smooth="yes"/>
      <point x="230" y="15" type="line"/>
      <point x="233" y="15" type="line"/>
      <point x="264" y="-5"/>
      <point x="294" y="-11"/>
      <point x="332" y="-11" type="curve" smooth="yes"/>
      <point x="453" y="-11"/>
      <point x="553" y="91"/>
      <point x="553" y="261" type="curve" smooth="yes"/>
      <point x="553" y="418"/>
      <point x="488" y="486"/>
      <point x="392" y="486" type="curve" smooth="yes"/>
      <point x="326" y="486"/>
      <point x="285" y="454"/>
      <point x="233" y="402" type="curve"/>
      <point x="228" y="402" type="line"/>
      <point x="228" y="484" type="line"/>
      <point x="171" y="484" type="line"/>
      <point x="17" y="456" type="line"/>
      <point x="17" y="414" type="line"/>
      <point x="17" y="414"/>
      <point x="36" y="416"/>
      <point x="49" y="416" type="curve" smooth="yes"/>
      <point x="82" y="416"/>
      <point x="87" y="403"/>
      <point x="87" y="363" type="curve" smooth="yes"/>
      <point x="87" y="-108" type="line" smooth="yes"/>
      <point x="87" y="-164"/>
      <point x="77" y="-180"/>
      <point x="14" y="-180" type="curve"/>
      <point x="14" y="-220" type="line"/>
    </contour>
    <contour>
      <point x="307" y="45" type="curve" smooth="yes"/>
      <point x="267" y="45"/>
      <point x="244" y="74"/>
      <point x="230" y="95" type="curve"/>
      <point x="230" y="343" type="line"/>
      <point x="251" y="364"/>
      <point x="282" y="392"/>
      <point x="322" y="392" type="curve" smooth="yes"/>
      <point x="371" y="392"/>
      <point x="397" y="348"/>
      <point x="397" y="233" type="curve" smooth="yes"/>
      <point x="397" y="93"/>
      <point x="359" y="45"/>
    </contour>
  </outline>
</glyph>
<glyph name="q" format="2">
  <advance width="578"/>
  <unicode hex="0071"/>
  <anchor x="307" y="-220" name="bottom"/>
  <anchor x="435" y="-220" name="cedilla"/>
  <anchor x="436" y="-220" name="ogonek"/>
  <anchor x="272" y="473" name="top"/>
  <outline>
    <contour>
      <point x="565" y="-220" type="line"/>
      <point x="565" y="-179" type="line"/>
      <point x="509" y="-179"/>
      <point x="501" y="-160"/>
      <point x="501" y="-110" type="curve" smooth="yes"/>
      <point x="501" y="480" type="line"/>
      <point x="431" y="480" type="line"/>
      <point x="393" y="449" type="line"/>
      <point x="345" y="476"/>
      <point x="303" y="485"/>
      <point x="262" y="485" type="curve" smooth="yes"/>
      <point x="111" y="485"/>
      <point x="32" y="384"/>
      <point x="32" y="221" type="curve" smooth="yes"/>
      <point x="32" y="93"/>
      <point x="89" y="-10"/>
      <point x="201" y="-10" type="curve" smooth="yes"/>
      <point x="268" y="-10"/>
      <point x="315" y="23"/>
      <point x="355" y="56" type="curve"/>
      <point x="358" y="56" type="line"/>
      <point x="358" y="-101" type="line" smooth="yes"/>
      <point x="358" y="-160"/>
      <point x="348" y="-179"/>
      <point x="264" y="-179" type="curve"/>
      <point x="264" y="-220" type="line"/>
    </contour>
    <contour>
      <point x="268" y="73" type="curve" smooth="yes"/>
      <point x="201" y="73"/>
      <point x="187" y="153"/>
      <point x="187" y="261" type="curve" smooth="yes"/>
      <point x="187" y="371"/>
      <point x="219" y="426"/>
      <point x="272" y="426" type="curve" smooth="yes"/>
      <point x="313" y="426"/>
      <point x="338" y="403"/>
      <point x="358" y="364" type="curve"/>
      <point x="358" y="109" type="line"/>
      <point x="335" y="92"/>
      <point x="310" y="73"/>
    </contour>
  </outline>
</glyph>
<glyph name="r" format="2">
  <advance width="449"/>
  <unicode hex="0072"/>
  <anchor x="178" y="0" name="bottom"/>
  <anchor x="182" y="0" name="cedilla"/>
  <anchor x="182" y="0" name="ogonek"/>
  <anchor x="225" y="473" name="top"/>
  <outline>
    <contour>
      <point x="334" y="0" type="line"/>
      <point x="334" y="40" type="line"/>
      <point x="263" y="40"/>
      <point x="237" y="51"/>
      <point x="237" y="116" type="curve" smooth="yes"/>
      <point x="237" y="322" type="line"/>
      <point x="260" y="348"/>
      <point x="281" y="367"/>
      <point x="303" y="367" type="curve" smooth="yes"/>
      <point x="319" y="367"/>
      <point x="342" y="325"/>
      <point x="386" y="325" type="curve" smooth="yes"/>
      <point x="416" y="325"/>
      <point x="447" y="348"/>
      <point x="447" y="406" type="curve" smooth="yes"/>
      <point x="447" y="457"/>
      <point x="422" y="488"/>
      <point x="370" y="488" type="curve" smooth="yes"/>
      <point x="307" y="488"/>
      <point x="292" y="448"/>
      <point x="239" y="378" type="curve"/>
      <point x="235" y="378" type="line"/>
      <point x="235" y="482" type="line"/>
      <point x="178" y="482" type="line"/>
      <point x="21" y="451" type="line"/>
      <point x="21" y="408" type="line"/>
      <point x="21" y="408"/>
      <point x="32" y="410"/>
      <point x="52" y="410" type="curve" smooth="yes"/>
      <point x="87" y="410"/>
      <point x="94" y="390"/>
      <point x="94" y="354" type="curve" smooth="yes"/>
      <point x="94" y="109" type="line" smooth="yes"/>
      <point x="94" y="53"/>
      <point x="85" y="40"/>
      <point x="20" y="40" type="curve"/>
      <point x="20" y="0" type="line"/>
    </contour>
  </outline>
</glyph>
<glyph name="t" format="2">
  <advance width="382"/>
  <unicode hex="0074"/>
  <anchor x="211" y="0" name="bottom"/>
  <anchor x="211" y="0" name="cedilla"/>
  <anchor x="238" y="0" name="ogonek"/>
  <anchor x="191" y="583" name="top"/>
  <outline>
    <contour>
      <point x="357" y="112" type="line"/>
      <point x="333" y="92"/>
      <point x="316" y="79"/>
      <point x="277" y="79" type="curve" smooth="yes"/>
      <point x="239" y="79"/>
      <point x="227" y="98"/>
      <point x="227" y="171" type="curve" smooth="yes"/>
      <point x="227" y="407" type="line"/>
      <point x="352" y="407" type="line"/>
      <point x="352" y="468" type="line"/>
      <point x="227" y="468" type="line"/>
      <point x="227" y="615" type="line"/>
      <point x="168" y="615" type="line"/>
      <point x="128" y="531"/>
      <point x="77" y="483"/>
      <point x="21" y="449" type="curve"/>
      <point x="21" y="407" type="line"/>
      <point x="84" y="407" type="line"/>
      <point x="84" y="136" type="line" smooth="yes"/>
      <point x="84" y="21"/>
      <point x="123" y="-14"/>
      <point x="201" y="-14" type="curve" smooth="yes"/>
      <point x="306" y="-14"/>
      <point x="341" y="30"/>
      <point x="382" y="84" type="curve"/>
    </contour>
  </outline>
</glyph>
<glyph name="u" format="2">
  <advance width="631"/>
  <unicode hex="0075"/>
  <anchor x="306" y="0" name="bottom"/>
  <anchor x="307" y="0" name="cedilla"/>
  <anchor x="452" y="0" name="ogonek"/>
  <anchor x="313" y="473" name="top"/>
  <outline>
    <contour>
      <point x="231" y="-10" type="curve" smooth="yes"/>
      <point x="298" y="-10"/>
      <point x="334" y="13"/>
      <point x="399" y="81" type="curve"/>
      <point x="403" y="81" type="line"/>
      <point x="403" y="-6" type="line"/>
      <point x="442" y="-6" type="line"/>
      <point x="615" y="23" type="line"/>
      <point x="615" y="60" type="line"/>
      <point x="609" y="60" type="line" smooth="yes"/>
      <point x="555" y="60"/>
      <point x="541" y="72"/>
      <point x="541" y="135" type="curve" smooth="yes"/>
      <point x="541" y="478" type="line"/>
      <point x="500" y="478" type="line"/>
      <point x="313" y="465" type="line"/>
      <point x="313" y="424" type="line"/>
      <point x="379" y="424"/>
      <point x="398" y="421"/>
      <point x="398" y="363" type="curve" smooth="yes"/>
      <point x="398" y="133" type="line"/>
      <point x="361" y="102"/>
      <point x="338" y="88"/>
      <point x="296" y="88" type="curve" smooth="yes"/>
      <point x="253" y="88"/>
      <point x="226" y="100"/>
      <point x="226" y="195" type="curve" smooth="yes"/>
      <point x="226" y="478" type="line"/>
      <point x="179" y="478" type="line"/>
      <point x="13" y="465" type="line"/>
      <point x="13" y="424" type="line"/>
      <point x="67" y="423"/>
      <point x="83" y="421"/>
      <point x="83" y="359" type="curve" smooth="yes"/>
      <point x="83" y="166" type="line" smooth="yes"/>
      <point x="83" y="34"/>
      <point x="131" y="-10"/>
    </contour>
  </outline>
</glyph>
<glyph name="v" format="2">
  <advance width="530"/>
  <unicode hex="0076"/>
  <anchor x="264" y="0" name="bottom"/>
  <anchor x="263" y="0" name="cedilla"/>
  <anchor x="261" y="0" name="ogonek"/>
  <anchor x="274" y="473" name="top"/>
  <outline>
    <contour>
      <point x="307" y="-7" type="line"/>
      <point x="475" y="361" type="line" smooth="yes"/>
      <point x="500" y="417"/>
      <point x="518" y="433"/>
      <point x="558" y="433" type="curve"/>
      <point x="558" y="473" type="line"/>
      <point x="366" y="473" type="line"/>
      <point x="366" y="433" type="line"/>
      <point x="404" y="433"/>
      <point x="421" y="427"/>
      <point x="421" y="405" type="curve" smooth="yes"/>
      <point x="421" y="384"/>
      <point x="415" y="369"/>
      <point x="415" y="369" type="curve"/>
      <point x="339" y="192" type="line"/>
      <point x="315" y="127" type="line"/>
      <point x="307" y="127" type="line"/>
      <point x="285" y="190" type="line"/>
      <point x="213" y="365" type="line"/>
      <point x="207" y="378"/>
      <point x="203" y="393"/>
      <point x="203" y="405" type="curve" smooth="yes"/>
      <point x="203" y="422"/>
      <point x="219" y="433"/>
      <point x="260" y="433" type="curve"/>
      <point x="260" y="473" type="line"/>
      <point x="-21" y="473" type="line"/>
      <point x="-21" y="433" type="line"/>
      <point x="19" y="433"/>
      <point x="40" y="420"/>
      <point x="68" y="350" type="curve"/>
      <point x="219" y="-7" type="line"/>
    </contour>
  </outline>
</glyph>
<glyph name="w" format="2">
  <advance width="847"/>
  <unicode hex="0077"/>
  <anchor x="428" y="0" name="bottom"/>
  <anchor x="428" y="0" name="cedilla"/>
  <anchor x="427" y="0" name="ogonek"/>
  <anchor x="443" y="473" name="top"/>
  <outline>
    <contour>
      <point x="632" y="-7" type="line"/>
      <point x="794" y="373" type="line" smooth="yes"/>
      <point x="813" y="419"/>
      <point x="833" y="433"/>
      <point x="869" y="433" type="curve"/>
      <point x="869" y="473" type="line"/>
      <point x="668" y="473" type="line"/>
      <point x="668" y="433" type="line"/>
      <point x="706" y="433"/>
      <point x="733" y="429"/>
      <point x="733" y="409" type="curve" smooth="yes"/>
      <point x="733" y="397"/>
      <point x="731" y="390"/>
      <point x="727" y="379" type="curve" smooth="yes"/>
      <point x="655" y="185" type="line"/>
      <point x="636" y="128" type="line"/>
      <point x="629" y="128" type="line"/>
      <point x="611" y="184" type="line"/>
      <point x="540" y="372" type="line" smooth="yes"/>
      <point x="534" y="388"/>
      <point x="530" y="399"/>
      <point x="530" y="413" type="curve" smooth="yes"/>
      <point x="530" y="427"/>
      <point x="540" y="433"/>
      <point x="577" y="433" type="curve"/>
      <point x="577" y="473" type="line"/>
      <point x="329" y="473" type="line"/>
      <point x="329" y="433" type="line"/>
      <point x="374" y="433"/>
      <point x="380" y="426"/>
      <point x="400" y="371" type="curve" smooth="yes"/>
      <point x="416" y="325" type="line"/>
      <point x="433" y="276" type="line"/>
      <point x="536" y="-7" type="line"/>
    </contour>
    <contour>
      <point x="314" y="-7" type="line"/>
      <point x="434" y="261" type="line"/>
      <point x="454" y="261" type="line"/>
      <point x="418" y="355" type="line"/>
      <point x="341" y="185" type="line"/>
      <point x="320" y="128" type="line"/>
      <point x="312" y="128" type="line"/>
      <point x="294" y="184" type="line"/>
      <point x="215" y="372" type="line"/>
      <point x="209" y="388"/>
      <point x="205" y="397"/>
      <point x="205" y="413" type="curve" smooth="yes"/>
      <point x="205" y="427"/>
      <point x="215" y="433"/>
      <point x="253" y="433" type="curve"/>
      <point x="253" y="473" type="line"/>
      <point x="-17" y="473" type="line"/>
      <point x="-17" y="433" type="line"/>
      <point x="27" y="433"/>
      <point x="38" y="425"/>
      <point x="60" y="371" type="curve" smooth="yes"/>
      <point x="219" y="-7" type="line"/>
    </contour>
  </outline>
</glyph>
<glyph name="x" format="2">
  <advance width="531"/>
  <unicode hex="0078"/>
  <anchor x="251" y="0" name="bottom"/>
  <anchor x="254" y="0" name="cedilla"/>
  <anchor x="252" y="0" name="ogonek"/>
  <anchor x="265" y="473" name="top"/>
  <outline>
    <contour>
      <point x="539" y="0" type="line"/>
      <point x="539" y="40" type="line"/>
      <point x="498" y="40"/>
      <point x="483" y="62"/>
      <point x="453" y="103" type="curve"/>
      <point x="319" y="275" type="line"/>
      <point x="303" y="290" type="line"/>
      <point x="280" y="330" type="line"/>
      <point x="238" y="392"/>
      <point x="230" y="399"/>
      <point x="230" y="414" type="curve" smooth="yes"/>
      <point x="230" y="430"/>
      <point x="242" y="435"/>
      <point x="270" y="435" type="curve"/>
      <point x="270" y="473" type="line"/>
      <point x="-2" y="473" type="line"/>
      <point x="-2" y="435" type="line"/>
      <point x="38" y="435"/>
      <point x="63" y="419"/>
      <point x="99" y="372" type="curve" smooth="yes"/>
      <point x="215" y="221" type="line"/>
      <point x="231" y="206" type="line"/>
      <point x="255" y="166" type="line"/>
      <point x="303" y="96" type="line"/>
      <point x="310" y="87"/>
      <point x="314" y="77"/>
      <point x="314" y="68" type="curve" smooth="yes"/>
      <point x="314" y="48"/>
      <point x="302" y="40"/>
      <point x="268" y="40" type="curve"/>
      <point x="268" y="0" type="line"/>
    </contour>
    <contour>
      <point x="178" y="0" type="line"/>
      <point x="178" y="40" type="line"/>
      <point x="147" y="40"/>
      <point x="138" y="46"/>
      <point x="138" y="59" type="curve" smooth="yes"/>
      <point x="138" y="74"/>
      <point x="148" y="87"/>
      <point x="168" y="113" type="curve" smooth="yes"/>
      <point x="233" y="197" type="line"/>
      <point x="248" y="197" type="line"/>
      <point x="216" y="238" type="line"/>
      <point x="77" y="92" type="line" smooth="yes"/>
      <point x="42" y="54"/>
      <point x="29" y="40"/>
      <point x="-6" y="40" type="curve"/>
      <point x="-6" y="0" type="line"/>
    </contour>
    <contour>
      <point x="441" y="390" type="line" smooth="yes"/>
      <point x="467" y="419"/>
      <point x="484" y="435"/>
      <point x="518" y="435" type="curve"/>
      <point x="518" y="473" type="line"/>
      <point x="334" y="473" type="line"/>
      <point x="334" y="435" type="line"/>
      <point x="362" y="435"/>
      <point x="375" y="427"/>
      <point x="375" y="412" type="curve" smooth="yes"/>
      <point x="375" y="396"/>
      <point x="373" y="383"/>
      <point x="341" y="342" type="curve"/>
      <point x="302" y="299" type="line"/>
      <point x="287" y="299" type="line"/>
      <point x="319" y="259" type="line"/>
    </contour>
  </outline>
</glyph>
<glyph name="y" format="2">
  <advance width="530"/>
  <unicode hex="0079"/>
  <anchor x="256" y="-220" name="bottom"/>
  <anchor x="256" y="-220" name="cedilla"/>
  <anchor x="256" y="-220" name="ogonek"/>
  <anchor x="292" y="473" name="top"/>
  <outline>
    <contour>
      <point x="89" y="-235" type="curve" smooth="yes"/>
      <point x="178" y="-235"/>
      <point x="240" y="-163"/>
      <point x="306" y="-16" type="curve" smooth="yes"/>
      <point x="484" y="382" type="line" smooth="yes"/>
      <point x="500" y="419"/>
      <point x="513" y="434"/>
      <point x="552" y="434" type="curve"/>
      <point x="552" y="473" type="line"/>
      <point x="367" y="473" type="line"/>
      <point x="367" y="434" type="line"/>
      <point x="398" y="434"/>
      <point x="417" y="427"/>
      <point x="417" y="410" type="curve" smooth="yes"/>
      <point x="417" y="406"/>
      <point x="416" y="399"/>
      <point x="414" y="391" type="curve"/>
      <point x="323" y="132" type="line"/>
      <point x="318" y="132" type="line"/>
      <point x="299" y="183" type="line"/>
      <point x="209" y="364" type="line" smooth="yes"/>
      <point x="201" y="380"/>
      <point x="194" y="394"/>
      <point x="194" y="407" type="curve" smooth="yes"/>
      <point x="194" y="425"/>
      <point x="207" y="433"/>
      <point x="249" y="433" type="curve"/>
      <point x="249" y="473" type="line"/>
      <point x="-21" y="473" type="line"/>
      <point x="-21" y="434" type="line"/>
      <point x="12" y="434"/>
      <point x="29" y="421"/>
      <point x="40" y="399" type="curve" smooth="yes"/>
      <point x="183" y="116" type="line" smooth="yes"/>
      <point x="206" y="70"/>
      <point x="235" y="18"/>
      <point x="235" y="-16" type="curve" smooth="yes"/>
      <point x="235" y="-60"/>
      <point x="187" y="-143"/>
      <point x="141" y="-143" type="curve" smooth="yes"/>
      <point x="116" y="-143"/>
      <point x="89" y="-119"/>
      <point x="56" y="-119" type="curve" smooth="yes"/>
      <point x="28" y="-119"/>
      <point x="7" y="-136"/>
      <point x="7" y="-171" type="curve" smooth="yes"/>
      <point x="7" y="-216"/>
      <point x="43" y="-235"/>
    </contour>
  </outline>
</glyph>
<glyph name="z" format="2">
  <advance width="495"/>
  <unicode hex="007A"/>
  <anchor x="248" y="0" name="bottom"/>
  <anchor x="252" y="0" name="cedilla"/>
  <anchor x="259" y="0" name="ogonek"/>
  <anchor x="260" y="473" name="top"/>
  <outline>
    <contour>
      <point x="448" y="0" type="line"/>
      <point x="458" y="169" type="line"/>
      <point x="411" y="169" type="line"/>
      <point x="395" y="70"/>
      <point x="356" y="49"/>
      <point x="280" y="49" type="curve" smooth="yes"/>
      <point x="195" y="49" type="line"/>
      <point x="195" y="54" type="line"/>
      <point x="455" y="426" type="line"/>
      <point x="455" y="473" type="line"/>
      <point x="58" y="473" type="line"/>
      <point x="53" y="314" type="line"/>
      <point x="98" y="314" type="line"/>
      <point x="107" y="373"/>
      <point x="135" y="422"/>
      <point x="204" y="422" type="curve" smooth="yes"/>
      <point x="294" y="422" type="line"/>
      <point x="294" y="418" type="line"/>
      <point x="34" y="44" type="line"/>
      <point x="34" y="0" type="line"/>
    </contour>
  </outline>
</glyph>
<glyph name="braceleft" format="2">
  <advance width="378"/>
  <unicode hex="007B"/>
  <outline>
    <contour>
      <point x="333" y="-141" type="line"/>
      <point x="281" y="-141"/>
      <point x="234" y="-106"/>
      <point x="234" y="-40" type="curve" smooth="yes"/>
      <point x="234" y="32"/>
      <point x="252" y="64"/>
      <point x="252" y="144" type="curve" smooth="yes"/>
      <point x="252" y="217"/>
      <point x="217" y="253"/>
      <point x="154" y="268" type="curve"/>
      <point x="154" y="274" type="line"/>
      <point x="203" y="291"/>
      <point x="255" y="334"/>
      <point x="255" y="405" type="curve" smooth="yes"/>
      <point x="255" y="480"/>
      <point x="234" y="529"/>
      <point x="234" y="583" type="curve" smooth="yes"/>
      <point x="234" y="665"/>
      <point x="281" y="687"/>
      <point x="333" y="687" type="curve"/>
      <point x="333" y="732" type="line"/>
      <point x="209" y="732"/>
      <point x="106" y="687"/>
      <point x="106" y="578" type="curve" smooth="yes"/>
      <point x="106" y="514"/>
      <point x="139" y="425"/>
      <point x="139" y="367" type="curve" smooth="yes"/>
      <point x="139" y="314"/>
      <point x="95" y="303"/>
      <point x="50" y="301" type="curve"/>
      <point x="50" y="236" type="line"/>
      <point x="95" y="235"/>
      <point x="139" y="226"/>
      <point x="139" y="175" type="curve" smooth="yes"/>
      <point x="139" y="121"/>
      <point x="106" y="31"/>
      <point x="106" y="-34" type="curve" smooth="yes"/>
      <point x="106" y="-141"/>
      <point x="209" y="-186"/>
      <point x="333" y="-186" type="curve"/>
    </contour>
  </outline>
</glyph>
<glyph name="bar" format="2">
  <advance width="293"/>
  <unicode hex="007C"/>
  <outline>
    <contour>
      <point x="188" y="-220" type="line"/>
      <point x="188" y="706" type="line"/>
      <point x="105" y="706" type="line"/>
      <point x="105" y="-220" type="line"/>
    </contour>
  </outline>
</glyph>
<glyph name="braceright" format="2">
  <advance width="378"/>
  <unicode hex="007D"/>
  <outline>
    <contour>
      <point x="45" y="-186" type="line"/>
      <point x="169" y="-186"/>
      <point x="272" y="-141"/>
      <point x="272" y="-34" type="curve" smooth="yes"/>
      <point x="272" y="31"/>
      <point x="239" y="121"/>
      <point x="239" y="175" type="curve" smooth="yes"/>
      <point x="239" y="226"/>
      <point x="283" y="235"/>
      <point x="328" y="236" type="curve"/>
      <point x="328" y="301" type="line"/>
      <point x="283" y="303"/>
      <point x="239" y="314"/>
      <point x="239" y="367" type="curve" smooth="yes"/>
      <point x="239" y="425"/>
      <point x="272" y="514"/>
      <point x="272" y="578" type="curve" smooth="yes"/>
      <point x="272" y="687"/>
      <point x="169" y="732"/>
      <point x="45" y="732" type="curve"/>
      <point x="45" y="687" type="line"/>
      <point x="97" y="687"/>
      <point x="144" y="665"/>
      <point x="144" y="583" type="curve" smooth="yes"/>
      <point x="144" y="529"/>
      <point x="123" y="480"/>
      <point x="123" y="405" type="curve" smooth="yes"/>
      <point x="123" y="334"/>
      <point x="175" y="291"/>
      <point x="224" y="274" type="curve"/>
      <point x="224" y="268" type="line"/>
      <point x="161" y="253"/>
      <point x="126" y="217"/>
      <point x="126" y="144" type="curve" smooth="yes"/>
      <point x="126" y="64"/>
      <point x="144" y="32"/>
      <point x="144" y="-40" type="curve" smooth="yes"/>
      <point x="144" y="-106"/>
      <point x="97" y="-141"/>
      <point x="45" y="-141" type="curve"/>
    </contour>
  </outline>
</glyph>
<glyph name="asciitilde" format="2">
  <advance width="599"/>
  <unicode hex="007E"/>
  <outline>
    <contour>
      <point x="101" y="161" type="line"/>
      <point x="128" y="207"/>
      <point x="156" y="230"/>
      <point x="194" y="230" type="curve" smooth="yes"/>
      <point x="270" y="230"/>
      <point x="331" y="180"/>
      <point x="405" y="180" type="curve" smooth="yes"/>
      <point x="490" y="180"/>
      <point x="527" y="232"/>
      <point x="569" y="315" type="curve"/>
      <point x="497" y="352" type="line"/>
      <point x="470" y="306"/>
      <point x="443" y="283"/>
      <point x="405" y="283" type="curve" smooth="yes"/>
      <point x="330" y="283"/>
      <point x="268" y="333"/>
      <point x="194" y="333" type="curve" smooth="yes"/>
      <point x="109" y="333"/>
      <point x="72" y="281"/>
      <point x="30" y="198" type="curve"/>
    </contour>
  </outline>
</glyph>
<glyph name="exclamdown" format="2">
  <advance width="326"/>
  <unicode hex="00A1"/>
  <outline>
    <contour>
      <point x="137" y="281" type="line"/>
      <point x="85" y="-64" type="line" smooth="yes"/>
      <point x="82" y="-87"/>
      <point x="80" y="-110"/>
      <point x="80" y="-127" type="curve" smooth="yes"/>
      <point x="80" y="-167"/>
      <point x="102" y="-195"/>
      <point x="163" y="-195" type="curve" smooth="yes"/>
      <point x="229" y="-195"/>
      <point x="246" y="-166"/>
      <point x="246" y="-129" type="curve" smooth="yes"/>
      <point x="246" y="-113"/>
      <point x="243" y="-92"/>
      <point x="240" y="-64" type="curve"/>
      <point x="192" y="281" type="line"/>
    </contour>
    <contour>
      <point x="89" y="412" type="curve" smooth="yes"/>
      <point x="88" y="364"/>
      <point x="116" y="335"/>
      <point x="166" y="335" type="curve" smooth="yes"/>
      <point x="220" y="335"/>
      <point x="244" y="364"/>
      <point x="244" y="411" type="curve" smooth="yes"/>
      <point x="244" y="458"/>
      <point x="218" y="482"/>
      <point x="166" y="482" type="curve" smooth="yes"/>
      <point x="114" y="482"/>
      <point x="90" y="460"/>
    </contour>
  </outline>
</glyph>
<glyph name="cent" format="2">
  <advance width="495"/>
  <unicode hex="00A2"/>
  <outline>
    <contour>
      <point x="243" y="75" type="curve" smooth="yes"/>
      <point x="352" y="75"/>
      <point x="408" y="109"/>
      <point x="471" y="239" type="curve"/>
      <point x="445" y="255" type="line"/>
      <point x="405" y="205"/>
      <point x="371" y="184"/>
      <point x="301" y="184" type="curve" smooth="yes"/>
      <point x="209" y="184"/>
      <point x="166" y="226"/>
      <point x="166" y="361" type="curve" smooth="yes"/>
      <point x="166" y="470"/>
      <point x="191" y="524"/>
      <point x="257" y="524" type="curve"/>
      <point x="296" y="484" type="line"/>
      <point x="317" y="484" type="line"/>
      <point x="331" y="449"/>
      <point x="337" y="397"/>
      <point x="386" y="397" type="curve" smooth="yes"/>
      <point x="426" y="397"/>
      <point x="460" y="418"/>
      <point x="460" y="460" type="curve" smooth="yes"/>
      <point x="460" y="524"/>
      <point x="390" y="572"/>
      <point x="277" y="572" type="curve" smooth="yes"/>
      <point x="107" y="572"/>
      <point x="23" y="461"/>
      <point x="23" y="317" type="curve" smooth="yes"/>
      <point x="23" y="155"/>
      <point x="109" y="75"/>
    </contour>
    <contour>
      <point x="280" y="-32" type="line"/>
      <point x="323" y="657" type="line"/>
      <point x="264" y="657" type="line"/>
      <point x="221" y="-32" type="line"/>
    </contour>
  </outline>
</glyph>
<glyph name="sterling" format="2">
  <advance width="495"/>
  <unicode hex="00A3"/>
  <outline>
    <contour>
      <point x="245" y="109" type="line"/>
      <point x="262" y="157"/>
      <point x="280" y="217"/>
      <point x="280" y="283" type="curve" smooth="yes"/>
      <point x="280" y="321"/>
      <point x="259" y="434"/>
      <point x="259" y="516" type="curve" smooth="yes"/>
      <point x="259" y="577"/>
      <point x="277" y="589"/>
      <point x="309" y="589" type="curve" smooth="yes"/>
      <point x="369" y="589"/>
      <point x="341" y="494"/>
      <point x="420" y="494" type="curve" smooth="yes"/>
      <point x="447" y="494"/>
      <point x="475" y="511"/>
      <point x="475" y="553" type="curve" smooth="yes"/>
      <point x="475" y="621"/>
      <point x="408" y="644"/>
      <point x="325" y="644" type="curve" smooth="yes"/>
      <point x="184" y="644"/>
      <point x="122" y="547"/>
      <point x="122" y="444" type="curve" smooth="yes"/>
      <point x="122" y="325"/>
      <point x="148" y="269"/>
      <point x="148" y="129" type="curve"/>
    </contour>
    <contour>
      <point x="80" y="-8" type="curve" smooth="yes"/>
      <point x="121" y="-8"/>
      <point x="180" y="6"/>
      <point x="215" y="58" type="curve"/>
      <point x="135" y="93" type="line"/>
      <point x="135" y="75" type="line"/>
      <point x="126" y="48"/>
      <point x="112" y="35"/>
      <point x="93" y="35" type="curve" smooth="yes"/>
      <point x="77" y="35"/>
      <point x="62" y="42"/>
      <point x="62" y="67" type="curve" smooth="yes"/>
      <point x="62" y="90"/>
      <point x="76" y="99"/>
      <point x="91" y="99" type="curve" smooth="yes"/>
      <point x="113" y="99"/>
      <point x="141" y="82"/>
      <point x="137" y="65" type="curve"/>
      <point x="184" y="54" type="line"/>
      <point x="251" y="15"/>
      <point x="272" y="-6"/>
      <point x="333" y="-6" type="curve" smooth="yes"/>
      <point x="427" y="-6"/>
      <point x="459" y="69"/>
      <point x="484" y="153" type="curve"/>
      <point x="457" y="169" type="line"/>
      <point x="413" y="122"/>
      <point x="377" y="104"/>
      <point x="335" y="104" type="curve" smooth="yes"/>
      <point x="305" y="104"/>
      <point x="273" y="114"/>
      <point x="231" y="130" type="curve"/>
      <point x="162" y="139" type="line"/>
      <point x="142" y="149"/>
      <point x="117" y="154"/>
      <point x="95" y="154" type="curve" smooth="yes"/>
      <point x="46" y="154"/>
      <point x="5" y="128"/>
      <point x="5" y="66" type="curve" smooth="yes"/>
      <point x="5" y="18"/>
      <point x="33" y="-8"/>
    </contour>
    <contour>
      <point x="399" y="304" type="line"/>
      <point x="399" y="357" type="line"/>
      <point x="40" y="357" type="line"/>
      <point x="40" y="304" type="line"/>
    </contour>
  </outline>
</glyph>
<glyph name="currency" format="2">
  <advance width="637"/>
  <unicode hex="00A4"/>
  <outline>
    <contour>
      <point x="320" y="48" type="curve" smooth="yes"/>
      <point x="437" y="48"/>
      <point x="539" y="142"/>
      <point x="539" y="269" type="curve" smooth="yes"/>
      <point x="539" y="396"/>
      <point x="443" y="488"/>
      <point x="320" y="488" type="curve" smooth="yes"/>
      <point x="193" y="488"/>
      <point x="99" y="391"/>
      <point x="99" y="268" type="curve" smooth="yes"/>
      <point x="99" y="143"/>
      <point x="199" y="48"/>
    </contour>
    <contour>
      <point x="201" y="101" type="line"/>
      <point x="152" y="150" type="line"/>
      <point x="40" y="41" type="line"/>
      <point x="91" y="-10" type="line"/>
    </contour>
    <contour>
      <point x="320" y="113" type="curve" smooth="yes"/>
      <point x="236" y="113"/>
      <point x="168" y="183"/>
      <point x="168" y="269" type="curve" smooth="yes"/>
      <point x="168" y="353"/>
      <point x="236" y="423"/>
      <point x="318" y="423" type="curve" smooth="yes"/>
      <point x="403" y="423"/>
      <point x="469" y="355"/>
      <point x="469" y="270" type="curve" smooth="yes"/>
      <point x="469" y="182"/>
      <point x="404" y="113"/>
    </contour>
    <contour>
      <point x="201" y="437" type="line"/>
      <point x="91" y="547" type="line"/>
      <point x="40" y="497" type="line"/>
      <point x="152" y="386" type="line"/>
    </contour>
    <contour>
      <point x="597" y="41" type="line"/>
      <point x="488" y="150" type="line"/>
      <point x="437" y="101" type="line"/>
      <point x="548" y="-10" type="line"/>
    </contour>
    <contour>
      <point x="597" y="497" type="line"/>
      <point x="548" y="547" type="line"/>
      <point x="437" y="437" type="line"/>
      <point x="488" y="386" type="line"/>
    </contour>
  </outline>
</glyph>
<glyph name="yen" format="2">
  <advance width="495"/>
  <unicode hex="00A5"/>
  <outline>
    <contour>
      <point x="409" y="0" type="line"/>
      <point x="409" y="40" type="line"/>
      <point x="336" y="40"/>
      <point x="321" y="43"/>
      <point x="321" y="133" type="curve" smooth="yes"/>
      <point x="321" y="288" type="line"/>
      <point x="421" y="495" type="line" smooth="yes"/>
      <point x="457" y="570"/>
      <point x="468" y="588"/>
      <point x="516" y="590" type="curve"/>
      <point x="516" y="630" type="line"/>
      <point x="334" y="630" type="line"/>
      <point x="334" y="590" type="line"/>
      <point x="370" y="589"/>
      <point x="385" y="580"/>
      <point x="385" y="561" type="curve" smooth="yes"/>
      <point x="385" y="551"/>
      <point x="381" y="538"/>
      <point x="374" y="523" type="curve" smooth="yes"/>
      <point x="296" y="353" type="line"/>
      <point x="290" y="353" type="line"/>
      <point x="268" y="408" type="line"/>
      <point x="212" y="508" type="line" smooth="yes"/>
      <point x="201" y="527"/>
      <point x="190" y="550"/>
      <point x="190" y="568" type="curve" smooth="yes"/>
      <point x="190" y="583"/>
      <point x="197" y="591"/>
      <point x="242" y="591" type="curve"/>
      <point x="242" y="630" type="line"/>
      <point x="-20" y="630" type="line"/>
      <point x="-20" y="591" type="line"/>
      <point x="13" y="591"/>
      <point x="16" y="576"/>
      <point x="73" y="480" type="curve" smooth="yes"/>
      <point x="186" y="290" type="line"/>
      <point x="186" y="133" type="line" smooth="yes"/>
      <point x="186" y="43"/>
      <point x="179" y="40"/>
      <point x="102" y="40" type="curve"/>
      <point x="102" y="0" type="line"/>
    </contour>
    <contour>
      <point x="451" y="142" type="line"/>
      <point x="451" y="197" type="line"/>
      <point x="54" y="197" type="line"/>
      <point x="54" y="142" type="line"/>
    </contour>
    <contour>
      <point x="451" y="250" type="line"/>
      <point x="451" y="305" type="line"/>
      <point x="54" y="305" type="line"/>
      <point x="54" y="250" type="line"/>
    </contour>
  </outline>
</glyph>
<glyph name="brokenbar" format="2">
  <advance width="293"/>
  <unicode hex="00A6"/>
  <outline>
    <contour>
      <point x="188" y="387" type="line"/>
      <point x="188" y="679" type="line"/>
      <point x="105" y="679" type="line"/>
      <point x="105" y="387" type="line"/>
    </contour>
    <contour>
      <point x="188" y="-38" type="line"/>
      <point x="188" y="254" type="line"/>
      <point x="105" y="254" type="line"/>
      <point x="105" y="-38" type="line"/>
    </contour>
  </outline>
</glyph>
<glyph name="section" format="2">
  <advance width="491"/>
  <unicode hex="00A7"/>
  <outline>
    <contour>
      <point x="336" y="92" type="line"/>
      <point x="388" y="117"/>
      <point x="446" y="150"/>
      <point x="446" y="226" type="curve" smooth="yes"/>
      <point x="446" y="392"/>
      <point x="174" y="435"/>
      <point x="174" y="548" type="curve" smooth="yes"/>
      <point x="174" y="594"/>
      <point x="205" y="611"/>
      <point x="245" y="611" type="curve" smooth="yes"/>
      <point x="282" y="611"/>
      <point x="312" y="596"/>
      <point x="312" y="573" type="curve" smooth="yes"/>
      <point x="312" y="546"/>
      <point x="299" y="539"/>
      <point x="299" y="510" type="curve" smooth="yes"/>
      <point x="299" y="481"/>
      <point x="323" y="466"/>
      <point x="352" y="466" type="curve" smooth="yes"/>
      <point x="388" y="466"/>
      <point x="408" y="493"/>
      <point x="408" y="532" type="curve" smooth="yes"/>
      <point x="408" y="601"/>
      <point x="341" y="652"/>
      <point x="245" y="652" type="curve" smooth="yes"/>
      <point x="153" y="652"/>
      <point x="69" y="614"/>
      <point x="69" y="509" type="curve" smooth="yes"/>
      <point x="69" y="443"/>
      <point x="99" y="398"/>
      <point x="182" y="330" type="curve" smooth="yes"/>
      <point x="250" y="275"/>
      <point x="328" y="232"/>
      <point x="328" y="171" type="curve" smooth="yes"/>
      <point x="328" y="142"/>
      <point x="316" y="129"/>
      <point x="288" y="111" type="curve"/>
      <point x="336" y="74" type="line"/>
    </contour>
    <contour>
      <point x="226" y="-208" type="curve" smooth="yes"/>
      <point x="318" y="-208"/>
      <point x="425" y="-170"/>
      <point x="425" y="-65" type="curve" smooth="yes"/>
      <point x="425" y="4"/>
      <point x="374" y="51"/>
      <point x="327" y="94" type="curve"/>
      <point x="312" y="110" type="line"/>
      <point x="245" y="168"/>
      <point x="169" y="204"/>
      <point x="169" y="267" type="curve" smooth="yes"/>
      <point x="169" y="293"/>
      <point x="179" y="315"/>
      <point x="204" y="328" type="curve"/>
      <point x="157" y="364" type="line"/>
      <point x="157" y="346" type="line"/>
      <point x="108" y="321"/>
      <point x="64" y="289"/>
      <point x="64" y="222" type="curve" smooth="yes"/>
      <point x="64" y="50"/>
      <point x="311" y="0"/>
      <point x="311" y="-104" type="curve" smooth="yes"/>
      <point x="311" y="-150"/>
      <point x="266" y="-167"/>
      <point x="226" y="-167" type="curve" smooth="yes"/>
      <point x="189" y="-167"/>
      <point x="164" y="-152"/>
      <point x="164" y="-129" type="curve" smooth="yes"/>
      <point x="164" y="-102"/>
      <point x="177" y="-95"/>
      <point x="177" y="-66" type="curve" smooth="yes"/>
      <point x="177" y="-37"/>
      <point x="153" y="-22"/>
      <point x="124" y="-22" type="curve" smooth="yes"/>
      <point x="88" y="-22"/>
      <point x="68" y="-49"/>
      <point x="68" y="-88" type="curve" smooth="yes"/>
      <point x="68" y="-157"/>
      <point x="130" y="-208"/>
    </contour>
  </outline>
</glyph>
<glyph name="copyright" format="2">
  <advance width="781"/>
  <unicode hex="00A9"/>
  <outline>
    <contour>
      <point x="389" y="-14" type="curve" smooth="yes"/>
      <point x="586" y="-14"/>
      <point x="726" y="129"/>
      <point x="726" y="330" type="curve" smooth="yes"/>
      <point x="726" y="532"/>
      <point x="586" y="676"/>
      <point x="389" y="676" type="curve" smooth="yes"/>
      <point x="194" y="676"/>
      <point x="55" y="532"/>
      <point x="55" y="330" type="curve" smooth="yes"/>
      <point x="55" y="129"/>
      <point x="194" y="-14"/>
    </contour>
    <contour>
      <point x="397" y="141" type="curve" smooth="yes"/>
      <point x="480" y="141"/>
      <point x="529" y="184"/>
      <point x="559" y="228" type="curve"/>
      <point x="537" y="246" type="line"/>
      <point x="503" y="212"/>
      <point x="474" y="202"/>
      <point x="417" y="202" type="curve" smooth="yes"/>
      <point x="342" y="202"/>
      <point x="308" y="250"/>
      <point x="308" y="338" type="curve" smooth="yes"/>
      <point x="308" y="425"/>
      <point x="325" y="481"/>
      <point x="400" y="481" type="curve" smooth="yes"/>
      <point x="462" y="481"/>
      <point x="496" y="455"/>
      <point x="509" y="388" type="curve"/>
      <point x="543" y="388" type="line"/>
      <point x="543" y="522" type="line"/>
      <point x="519" y="522" type="line"/>
      <point x="508" y="509"/>
      <point x="503" y="504"/>
      <point x="498" y="504" type="curve" smooth="yes"/>
      <point x="482" y="504"/>
      <point x="464" y="523"/>
      <point x="402" y="523" type="curve" smooth="yes"/>
      <point x="273" y="523"/>
      <point x="201" y="450"/>
      <point x="201" y="329" type="curve" smooth="yes"/>
      <point x="201" y="206"/>
      <point x="270" y="141"/>
    </contour>
    <contour>
      <point x="389" y="19" type="curve" smooth="yes"/>
      <point x="212" y="19"/>
      <point x="93" y="148"/>
      <point x="93" y="330" type="curve" smooth="yes"/>
      <point x="93" y="514"/>
      <point x="212" y="643"/>
      <point x="389" y="643" type="curve" smooth="yes"/>
      <point x="568" y="643"/>
      <point x="688" y="514"/>
      <point x="688" y="330" type="curve" smooth="yes"/>
      <point x="688" y="148"/>
      <point x="568" y="19"/>
    </contour>
  </outline>
</glyph>
<glyph name="guillemotleft" format="2">
  <advance width="567"/>
  <unicode hex="00AB"/>
  <outline>
    <contour>
      <point x="291" y="75" type="line"/>
      <point x="155" y="242" type="line"/>
      <point x="155" y="248" type="line"/>
      <point x="291" y="412" type="line"/>
      <point x="262" y="441" type="line"/>
      <point x="199" y="384"/>
      <point x="103" y="313"/>
      <point x="26" y="256" type="curve"/>
      <point x="26" y="231" type="line"/>
      <point x="103" y="174"/>
      <point x="199" y="103"/>
      <point x="262" y="46" type="curve"/>
    </contour>
    <contour>
      <point x="508" y="75" type="line"/>
      <point x="372" y="242" type="line"/>
      <point x="372" y="248" type="line"/>
      <point x="508" y="412" type="line"/>
      <point x="479" y="441" type="line"/>
      <point x="416" y="384"/>
      <point x="320" y="313"/>
      <point x="243" y="256" type="curve"/>
      <point x="243" y="231" type="line"/>
      <point x="320" y="174"/>
      <point x="416" y="103"/>
      <point x="479" y="46" type="curve"/>
    </contour>
  </outline>
</glyph>
<glyph name="registered" format="2">
  <advance width="413"/>
  <unicode hex="00AE"/>
  <outline>
    <contour>
      <point x="206" y="372" type="curve" smooth="yes"/>
      <point x="306" y="372"/>
      <point x="377" y="445"/>
      <point x="377" y="546" type="curve" smooth="yes"/>
      <point x="377" y="648"/>
      <point x="306" y="722"/>
      <point x="206" y="722" type="curve" smooth="yes"/>
      <point x="109" y="722"/>
      <point x="36" y="648"/>
      <point x="36" y="546" type="curve" smooth="yes"/>
      <point x="36" y="445"/>
      <point x="107" y="372"/>
    </contour>
    <contour>
      <point x="206" y="392" type="curve" smooth="yes"/>
      <point x="118" y="392"/>
      <point x="59" y="456"/>
      <point x="59" y="546" type="curve" smooth="yes"/>
      <point x="59" y="638"/>
      <point x="118" y="702"/>
      <point x="206" y="702" type="curve" smooth="yes"/>
      <point x="294" y="702"/>
      <point x="354" y="638"/>
      <point x="354" y="546" type="curve" smooth="yes"/>
      <point x="354" y="456"/>
      <point x="294" y="392"/>
    </contour>
    <contour>
      <point x="212" y="455" type="line"/>
      <point x="212" y="471" type="line"/>
      <point x="185" y="471"/>
      <point x="181" y="473"/>
      <point x="181" y="496" type="curve" smooth="yes"/>
      <point x="181" y="535" type="line"/>
      <point x="193" y="535" type="line" smooth="yes"/>
      <point x="198" y="535"/>
      <point x="199" y="534"/>
      <point x="204" y="528" type="curve" smooth="yes"/>
      <point x="217" y="511"/>
      <point x="224" y="501"/>
      <point x="256" y="455" type="curve"/>
      <point x="309" y="455" type="line"/>
      <point x="309" y="471" type="line"/>
      <point x="297" y="471"/>
      <point x="294" y="474"/>
      <point x="285" y="485" type="curve" smooth="yes"/>
      <point x="252" y="524"/>
      <point x="244" y="530"/>
      <point x="236" y="539" type="curve"/>
      <point x="236" y="541" type="line"/>
      <point x="260" y="546"/>
      <point x="285" y="557"/>
      <point x="285" y="590" type="curve" smooth="yes"/>
      <point x="285" y="628"/>
      <point x="245" y="638"/>
      <point x="202" y="638" type="curve" smooth="yes"/>
      <point x="116" y="638" type="line"/>
      <point x="116" y="624" type="line"/>
      <point x="139" y="624"/>
      <point x="142" y="620"/>
      <point x="142" y="603" type="curve" smooth="yes"/>
      <point x="142" y="496" type="line" smooth="yes"/>
      <point x="142" y="473"/>
      <point x="135" y="471"/>
      <point x="114" y="471" type="curve"/>
      <point x="114" y="455" type="line"/>
    </contour>
    <contour>
      <point x="181" y="619" type="line"/>
      <point x="199" y="619" type="line" smooth="yes"/>
      <point x="227" y="619"/>
      <point x="241" y="614"/>
      <point x="241" y="590" type="curve" smooth="yes"/>
      <point x="241" y="561"/>
      <point x="226" y="552"/>
      <point x="191" y="552" type="curve" smooth="yes"/>
      <point x="181" y="552" type="line"/>
    </contour>
  </outline>
</glyph>
<glyph name="macron" format="2">
  <advance width="350"/>
  <unicode hex="00AF"/>
  <outline>
    <contour>
      <point x="320" y="555" type="line"/>
      <point x="320" y="630" type="line"/>
      <point x="30" y="630" type="line"/>
      <point x="30" y="555" type="line"/>
    </contour>
  </outline>
</glyph>
<glyph name="degree" format="2">
  <advance width="429"/>
  <unicode hex="00B0"/>
  <outline>
    <contour>
      <point x="215" y="383" type="curve" smooth="yes"/>
      <point x="305" y="383"/>
      <point x="377" y="446"/>
      <point x="377" y="546" type="curve" smooth="yes"/>
      <point x="377" y="641"/>
      <point x="305" y="708"/>
      <point x="217" y="708" type="curve" smooth="yes"/>
      <point x="124" y="708"/>
      <point x="52" y="642"/>
      <point x="52" y="547" type="curve" smooth="yes"/>
      <point x="52" y="446"/>
      <point x="123" y="383"/>
    </contour>
    <contour>
      <point x="215" y="450" type="curve" smooth="yes"/>
      <point x="165" y="450"/>
      <point x="128" y="490"/>
      <point x="128" y="546" type="curve" smooth="yes"/>
      <point x="128" y="604"/>
      <point x="165" y="641"/>
      <point x="213" y="641" type="curve" smooth="yes"/>
      <point x="263" y="641"/>
      <point x="301" y="604"/>
      <point x="301" y="547" type="curve" smooth="yes"/>
      <point x="301" y="489"/>
      <point x="264" y="450"/>
    </contour>
  </outline>
</glyph>
<glyph name="twosuperior" format="2">
  <advance width="379"/>
  <unicode hex="00B2"/>
  <anchor x="186" y="252" name="bottom"/>
  <anchor x="188" y="726" name="top"/>
  <outline>
    <contour>
      <point x="335" y="252" type="line"/>
      <point x="360" y="401" type="line"/>
      <point x="323" y="401" type="line"/>
      <point x="304" y="355"/>
      <point x="296" y="338"/>
      <point x="253" y="338" type="curve" smooth="yes"/>
      <point x="166" y="338" type="line"/>
      <point x="109" y="335" type="line"/>
      <point x="109" y="340" type="line"/>
      <point x="206" y="415" type="line" smooth="yes"/>
      <point x="298" y="486"/>
      <point x="351" y="526"/>
      <point x="351" y="606" type="curve" smooth="yes"/>
      <point x="351" y="689"/>
      <point x="289" y="738"/>
      <point x="189" y="738" type="curve" smooth="yes"/>
      <point x="93" y="738"/>
      <point x="41" y="687"/>
      <point x="16" y="617" type="curve"/>
      <point x="44" y="603" type="line"/>
      <point x="71" y="648"/>
      <point x="98" y="664"/>
      <point x="151" y="664" type="curve" smooth="yes"/>
      <point x="197" y="664"/>
      <point x="224" y="639"/>
      <point x="224" y="593" type="curve" smooth="yes"/>
      <point x="224" y="520"/>
      <point x="188" y="481"/>
      <point x="112" y="402" type="curve" smooth="yes"/>
      <point x="19" y="305" type="line"/>
      <point x="19" y="252" type="line"/>
    </contour>
  </outline>
</glyph>
<glyph name="threesuperior" format="2">
  <advance width="384"/>
  <unicode hex="00B3"/>
  <anchor x="182" y="252" name="bottom"/>
  <anchor x="183" y="726" name="top"/>
  <outline>
    <contour>
      <point x="125" y="243" type="curve" smooth="yes"/>
      <point x="247" y="243"/>
      <point x="360" y="290"/>
      <point x="360" y="398" type="curve" smooth="yes"/>
      <point x="360" y="467"/>
      <point x="305" y="505"/>
      <point x="229" y="519" type="curve"/>
      <point x="229" y="524" type="line"/>
      <point x="285" y="547"/>
      <point x="335" y="576"/>
      <point x="335" y="637" type="curve" smooth="yes"/>
      <point x="335" y="697"/>
      <point x="272" y="741"/>
      <point x="183" y="741" type="curve" smooth="yes"/>
      <point x="115" y="741"/>
      <point x="60" y="709"/>
      <point x="27" y="643" type="curve"/>
      <point x="55" y="628" type="line"/>
      <point x="76" y="661"/>
      <point x="106" y="674"/>
      <point x="143" y="674" type="curve" smooth="yes"/>
      <point x="178" y="674"/>
      <point x="213" y="658"/>
      <point x="213" y="618" type="curve" smooth="yes"/>
      <point x="213" y="556"/>
      <point x="152" y="528"/>
      <point x="100" y="528" type="curve" smooth="yes"/>
      <point x="84" y="528" type="line"/>
      <point x="84" y="482" type="line"/>
      <point x="101" y="482" type="line" smooth="yes"/>
      <point x="177" y="482"/>
      <point x="238" y="454"/>
      <point x="238" y="378" type="curve" smooth="yes"/>
      <point x="238" y="296"/>
      <point x="201" y="286"/>
      <point x="169" y="286" type="curve" smooth="yes"/>
      <point x="126" y="286"/>
      <point x="106" y="339"/>
      <point x="65" y="339" type="curve" smooth="yes"/>
      <point x="36" y="339"/>
      <point x="25" y="319"/>
      <point x="25" y="301" type="curve" smooth="yes"/>
      <point x="25" y="266"/>
      <point x="47" y="243"/>
    </contour>
  </outline>
</glyph>
<glyph name="acute" format="2">
  <advance width="222"/>
  <unicode hex="00B4"/>
  <outline>
    <contour>
      <point x="71" y="521" type="line"/>
      <point x="204" y="642" type="line"/>
      <point x="204" y="674" type="line"/>
      <point x="91" y="674" type="line"/>
      <point x="22" y="521" type="line"/>
    </contour>
  </outline>
</glyph>
<glyph name="paragraph" format="2">
  <advance width="705"/>
  <unicode hex="00B6"/>
  <outline>
    <contour>
      <point x="377" y="-179" type="line"/>
      <point x="377" y="608" type="line"/>
      <point x="447" y="608" type="line"/>
      <point x="447" y="-179" type="line"/>
      <point x="645" y="-179" type="line"/>
      <point x="645" y="-136" type="line"/>
      <point x="563" y="-136"/>
      <point x="554" y="-119"/>
      <point x="554" y="-62" type="curve" smooth="yes"/>
      <point x="554" y="529" type="line" smooth="yes"/>
      <point x="554" y="591"/>
      <point x="566" y="614"/>
      <point x="645" y="614" type="curve"/>
      <point x="645" y="657" type="line"/>
      <point x="305" y="657" type="line" smooth="yes"/>
      <point x="141" y="657"/>
      <point x="55" y="587"/>
      <point x="55" y="440" type="curve" smooth="yes"/>
      <point x="55" y="283"/>
      <point x="147" y="238"/>
      <point x="286" y="225" type="curve"/>
      <point x="282" y="278" type="line"/>
      <point x="216" y="289"/>
      <point x="181" y="343"/>
      <point x="181" y="443" type="curve" smooth="yes"/>
      <point x="181" y="535"/>
      <point x="204" y="592"/>
      <point x="270" y="605" type="curve"/>
      <point x="270" y="-50" type="line" smooth="yes"/>
      <point x="270" y="-119"/>
      <point x="262" y="-136"/>
      <point x="179" y="-136" type="curve"/>
      <point x="179" y="-179" type="line"/>
    </contour>
  </outline>
</glyph>
<glyph name="periodcentered" format="2">
  <advance width="312"/>
  <unicode hex="00B7"/>
  <outline>
    <contour>
      <point x="156" y="198" type="curve" smooth="yes"/>
      <point x="208" y="198"/>
      <point x="232" y="220"/>
      <point x="233" y="268" type="curve" smooth="yes"/>
      <point x="234" y="316"/>
      <point x="206" y="345"/>
      <point x="156" y="345" type="curve" smooth="yes"/>
      <point x="102" y="345"/>
      <point x="78" y="316"/>
      <point x="78" y="269" type="curve" smooth="yes"/>
      <point x="78" y="222"/>
      <point x="104" y="198"/>
    </contour>
  </outline>
</glyph>
<glyph name="cedilla" format="2">
  <advance width="247"/>
  <unicode hex="00B8"/>
  <outline>
    <contour>
      <point x="114" y="-221" type="curve" smooth="yes"/>
      <point x="182" y="-221"/>
      <point x="231" y="-191"/>
      <point x="231" y="-128" type="curve" smooth="yes"/>
      <point x="231" y="-78"/>
      <point x="194" y="-51"/>
      <point x="137" y="-51" type="curve" smooth="yes"/>
      <point x="125" y="-51"/>
      <point x="113" y="-53"/>
      <point x="113" y="-53" type="curve"/>
      <point x="127" y="4" type="line"/>
      <point x="87" y="4" type="line"/>
      <point x="64" y="-84" type="line"/>
      <point x="80" y="-100" type="line"/>
      <point x="80" y="-100"/>
      <point x="97" y="-97"/>
      <point x="113" y="-97" type="curve" smooth="yes"/>
      <point x="146" y="-97"/>
      <point x="155" y="-111"/>
      <point x="155" y="-132" type="curve" smooth="yes"/>
      <point x="155" y="-162"/>
      <point x="136" y="-173"/>
      <point x="105" y="-173" type="curve" smooth="yes"/>
      <point x="80" y="-173"/>
      <point x="58" y="-164"/>
      <point x="40" y="-152" type="curve"/>
      <point x="22" y="-184" type="line"/>
      <point x="46" y="-203"/>
      <point x="73" y="-221"/>
    </contour>
  </outline>
</glyph>
<glyph name="onesuperior" format="2">
  <advance width="364"/>
  <unicode hex="00B9"/>
  <anchor x="183" y="252" name="bottom"/>
  <anchor x="185" y="726" name="top"/>
  <outline>
    <contour>
      <point x="337" y="252" type="line"/>
      <point x="337" y="289" type="line"/>
      <point x="269" y="289"/>
      <point x="247" y="301"/>
      <point x="247" y="338" type="curve" smooth="yes"/>
      <point x="247" y="735" type="line"/>
      <point x="164" y="735" type="line"/>
      <point x="29" y="699" type="line"/>
      <point x="29" y="659" type="line"/>
      <point x="47" y="663"/>
      <point x="80" y="669"/>
      <point x="96" y="669" type="curve" smooth="yes"/>
      <point x="117" y="669"/>
      <point x="124" y="657"/>
      <point x="124" y="631" type="curve" smooth="yes"/>
      <point x="124" y="338" type="line" smooth="yes"/>
      <point x="124" y="301"/>
      <point x="105" y="289"/>
      <point x="35" y="289" type="curve"/>
      <point x="35" y="252" type="line"/>
    </contour>
  </outline>
</glyph>
<glyph name="guillemotright" format="2">
  <advance width="567"/>
  <unicode hex="00BB"/>
  <outline>
    <contour>
      <point x="305" y="46" type="line"/>
      <point x="368" y="103"/>
      <point x="464" y="174"/>
      <point x="541" y="231" type="curve"/>
      <point x="541" y="256" type="line"/>
      <point x="464" y="313"/>
      <point x="368" y="384"/>
      <point x="305" y="441" type="curve"/>
      <point x="276" y="412" type="line"/>
      <point x="412" y="248" type="line"/>
      <point x="412" y="242" type="line"/>
      <point x="276" y="75" type="line"/>
    </contour>
    <contour>
      <point x="88" y="46" type="line"/>
      <point x="151" y="103"/>
      <point x="247" y="174"/>
      <point x="324" y="231" type="curve"/>
      <point x="324" y="256" type="line"/>
      <point x="247" y="313"/>
      <point x="151" y="384"/>
      <point x="88" y="441" type="curve"/>
      <point x="59" y="412" type="line"/>
      <point x="195" y="248" type="line"/>
      <point x="195" y="242" type="line"/>
      <point x="59" y="75" type="line"/>
    </contour>
  </outline>
</glyph>
<glyph name="questiondown" format="2">
  <advance width="461"/>
  <unicode hex="00BF"/>
  <outline>
    <contour>
      <point x="239" y="-198" type="curve" smooth="yes"/>
      <point x="357" y="-198"/>
      <point x="440" y="-141"/>
      <point x="440" y="-57" type="curve" smooth="yes"/>
      <point x="440" y="-2"/>
      <point x="408" y="27"/>
      <point x="367" y="27" type="curve" smooth="yes"/>
      <point x="337" y="27"/>
      <point x="307" y="12"/>
      <point x="307" y="-29" type="curve" smooth="yes"/>
      <point x="307" y="-67"/>
      <point x="328" y="-68"/>
      <point x="328" y="-101" type="curve" smooth="yes"/>
      <point x="328" y="-132"/>
      <point x="306" y="-153"/>
      <point x="265" y="-153" type="curve" smooth="yes"/>
      <point x="220" y="-153"/>
      <point x="186" y="-122"/>
      <point x="186" y="-43" type="curve" smooth="yes"/>
      <point x="186" y="111"/>
      <point x="275" y="124"/>
      <point x="275" y="254" type="curve" smooth="yes"/>
      <point x="275" y="281" type="line"/>
      <point x="213" y="281" type="line"/>
      <point x="213" y="265" type="line" smooth="yes"/>
      <point x="213" y="156"/>
      <point x="36" y="117"/>
      <point x="36" y="-46" type="curve" smooth="yes"/>
      <point x="36" y="-159"/>
      <point x="138" y="-198"/>
    </contour>
    <contour>
      <point x="242" y="335" type="curve" smooth="yes"/>
      <point x="296" y="335"/>
      <point x="320" y="364"/>
      <point x="320" y="411" type="curve" smooth="yes"/>
      <point x="320" y="458"/>
      <point x="294" y="482"/>
      <point x="242" y="482" type="curve" smooth="yes"/>
      <point x="190" y="482"/>
      <point x="166" y="460"/>
      <point x="165" y="412" type="curve" smooth="yes"/>
      <point x="164" y="364"/>
      <point x="192" y="335"/>
    </contour>
  </outline>
</glyph>
<glyph name="AE" format="2">
  <advance width="954"/>
  <unicode hex="00C6"/>
  <anchor x="482" y="0" name="bottom"/>
  <anchor x="656" y="0" name="cedilla"/>
  <anchor x="804" y="0" name="ogonek"/>
  <anchor x="600" y="657" name="top"/>
  <outline>
    <contour>
      <point x="211" y="0" type="line"/>
      <point x="211" y="43" type="line"/>
      <point x="164" y="43"/>
      <point x="144" y="50"/>
      <point x="144" y="81" type="curve" smooth="yes"/>
      <point x="144" y="103"/>
      <point x="152" y="120"/>
      <point x="159" y="132" type="curve" smooth="yes"/>
      <point x="261" y="314" type="line"/>
      <point x="273" y="342" type="line"/>
      <point x="414" y="594" type="line"/>
      <point x="421" y="594" type="line"/>
      <point x="421" y="355" type="line"/>
      <point x="265" y="355" type="line"/>
      <point x="239" y="301" type="line"/>
      <point x="421" y="301" type="line"/>
      <point x="421" y="158" type="line" smooth="yes"/>
      <point x="421" y="56"/>
      <point x="415" y="43"/>
      <point x="324" y="43" type="curve"/>
      <point x="324" y="0" type="line"/>
      <point x="900" y="0" type="line"/>
      <point x="926" y="197" type="line"/>
      <point x="877" y="197" type="line"/>
      <point x="844" y="80"/>
      <point x="812" y="61"/>
      <point x="685" y="61" type="curve" smooth="yes"/>
      <point x="569" y="61" type="line"/>
      <point x="569" y="301" type="line"/>
      <point x="656" y="301" type="line" smooth="yes"/>
      <point x="748" y="301"/>
      <point x="767" y="292"/>
      <point x="767" y="212" type="curve"/>
      <point x="814" y="212" type="line"/>
      <point x="814" y="440" type="line"/>
      <point x="767" y="440" type="line"/>
      <point x="767" y="360"/>
      <point x="748" y="355"/>
      <point x="656" y="355" type="curve" smooth="yes"/>
      <point x="569" y="355" type="line"/>
      <point x="569" y="594" type="line"/>
      <point x="704" y="594" type="line" smooth="yes"/>
      <point x="799" y="594"/>
      <point x="831" y="576"/>
      <point x="845" y="476" type="curve"/>
      <point x="896" y="476" type="line"/>
      <point x="890" y="657" type="line"/>
      <point x="267" y="657" type="line"/>
      <point x="267" y="615" type="line"/>
      <point x="307" y="615"/>
      <point x="331" y="611"/>
      <point x="331" y="584" type="curve" smooth="yes"/>
      <point x="331" y="569"/>
      <point x="325" y="556"/>
      <point x="318" y="542" type="curve"/>
      <point x="92" y="147" type="line"/>
      <point x="51" y="72"/>
      <point x="30" y="43"/>
      <point x="-26" y="43" type="curve"/>
      <point x="-26" y="0" type="line"/>
    </contour>
  </outline>
</glyph>
<glyph name="Eth" format="2">
  <advance width="765"/>
  <unicode hex="00D0"/>
  <anchor x="348" y="0" name="bottom"/>
  <anchor x="348" y="0" name="cedilla"/>
  <anchor x="348" y="0" name="ogonek"/>
  <anchor x="369" y="657" name="top"/>
  <outline>
    <contour>
      <point x="331" y="0" type="line" smooth="yes"/>
      <point x="548" y="0"/>
      <point x="725" y="79"/>
      <point x="725" y="340" type="curve" smooth="yes"/>
      <point x="725" y="603"/>
      <point x="527" y="657"/>
      <point x="327" y="657" type="curve" smooth="yes"/>
      <point x="39" y="657" type="line"/>
      <point x="39" y="611" type="line"/>
      <point x="109" y="611"/>
      <point x="132" y="603"/>
      <point x="132" y="529" type="curve" smooth="yes"/>
      <point x="132" y="137" type="line" smooth="yes"/>
      <point x="132" y="55"/>
      <point x="121" y="43"/>
      <point x="39" y="43" type="curve"/>
      <point x="39" y="0" type="line"/>
    </contour>
    <contour>
      <point x="432" y="305" type="line"/>
      <point x="432" y="370" type="line"/>
      <point x="43" y="370" type="line"/>
      <point x="43" y="305" type="line"/>
    </contour>
    <contour>
      <point x="326" y="57" type="curve" smooth="yes"/>
      <point x="312" y="57"/>
      <point x="296" y="57"/>
      <point x="280" y="58" type="curve"/>
      <point x="280" y="599" type="line"/>
      <point x="297" y="600"/>
      <point x="307" y="600"/>
      <point x="319" y="600" type="curve" smooth="yes"/>
      <point x="488" y="600"/>
      <point x="567" y="503"/>
      <point x="567" y="329" type="curve" smooth="yes"/>
      <point x="567" y="107"/>
      <point x="476" y="57"/>
    </contour>
  </outline>
</glyph>
<glyph name="multiply" format="2">
  <advance width="700"/>
  <unicode hex="00D7"/>
  <outline>
    <contour>
      <point x="650" y="495" type="line"/>
      <point x="587" y="557" type="line"/>
      <point x="51" y="21" type="line"/>
      <point x="114" y="-42" type="line"/>
    </contour>
    <contour>
      <point x="650" y="22" type="line"/>
      <point x="115" y="557" type="line"/>
      <point x="50" y="495" type="line"/>
      <point x="588" y="-43" type="line"/>
    </contour>
  </outline>
</glyph>
<glyph name="Oslash" format="2">
  <advance width="749"/>
  <unicode hex="00D8"/>
  <anchor x="374" y="0" name="bottom"/>
  <anchor x="376" y="0" name="cedilla"/>
  <anchor x="442" y="0" name="ogonek"/>
  <anchor x="374" y="657" name="top"/>
  <outline>
    <contour>
      <point x="375" y="-14" type="curve" smooth="yes"/>
      <point x="585" y="-14"/>
      <point x="704" y="119"/>
      <point x="704" y="338" type="curve" smooth="yes"/>
      <point x="704" y="540"/>
      <point x="585" y="669"/>
      <point x="375" y="669" type="curve" smooth="yes"/>
      <point x="168" y="669"/>
      <point x="46" y="538"/>
      <point x="46" y="329" type="curve" smooth="yes"/>
      <point x="46" y="111"/>
      <point x="162" y="-14"/>
    </contour>
    <contour>
      <point x="187" y="49" type="line"/>
      <point x="137" y="91" type="line"/>
      <point x="82" y="26" type="line"/>
      <point x="132" y="-16" type="line"/>
    </contour>
    <contour>
      <point x="545" y="471" type="line"/>
      <point x="519" y="542" type="line"/>
      <point x="208" y="174" type="line"/>
      <point x="234" y="104" type="line"/>
    </contour>
    <contour>
      <point x="376" y="38" type="curve" smooth="yes"/>
      <point x="244" y="38"/>
      <point x="202" y="175"/>
      <point x="202" y="335" type="curve" smooth="yes"/>
      <point x="202" y="519"/>
      <point x="267" y="619"/>
      <point x="372" y="619" type="curve" smooth="yes"/>
      <point x="495" y="619"/>
      <point x="548" y="490"/>
      <point x="548" y="335" type="curve" smooth="yes"/>
      <point x="548" y="130"/>
      <point x="492" y="38"/>
    </contour>
    <contour>
      <point x="682" y="633" type="line"/>
      <point x="632" y="675" type="line"/>
      <point x="569" y="601" type="line"/>
      <point x="618" y="558" type="line"/>
    </contour>
  </outline>
</glyph>
<glyph name="Thorn" format="2">
  <advance width="641"/>
  <unicode hex="00DE"/>
  <anchor x="304" y="0" name="bottom"/>
  <anchor x="221" y="0" name="cedilla"/>
  <anchor x="220" y="0" name="ogonek"/>
  <anchor x="318" y="657" name="top"/>
  <outline>
    <contour>
      <point x="366" y="0" type="line"/>
      <point x="366" y="43" type="line"/>
      <point x="281" y="43"/>
      <point x="277" y="59"/>
      <point x="277" y="144" type="curve" smooth="yes"/>
      <point x="277" y="159" type="line"/>
      <point x="298" y="154"/>
      <point x="325" y="148"/>
      <point x="352" y="148" type="curve" smooth="yes"/>
      <point x="490" y="148"/>
      <point x="611" y="196"/>
      <point x="611" y="357" type="curve" smooth="yes"/>
      <point x="611" y="501"/>
      <point x="497" y="533"/>
      <point x="363" y="533" type="curve" smooth="yes"/>
      <point x="324" y="533"/>
      <point x="292" y="530"/>
      <point x="277" y="529" type="curve"/>
      <point x="277" y="532" type="line" smooth="yes"/>
      <point x="277" y="592"/>
      <point x="290" y="614"/>
      <point x="370" y="614" type="curve"/>
      <point x="370" y="657" type="line"/>
      <point x="35" y="657" type="line"/>
      <point x="35" y="614" type="line"/>
      <point x="121" y="614"/>
      <point x="128" y="590"/>
      <point x="128" y="511" type="curve" smooth="yes"/>
      <point x="128" y="144" type="line" smooth="yes"/>
      <point x="128" y="58"/>
      <point x="123" y="43"/>
      <point x="35" y="43" type="curve"/>
      <point x="35" y="0" type="line"/>
    </contour>
    <contour>
      <point x="326" y="206" type="curve" smooth="yes"/>
      <point x="300" y="206"/>
      <point x="289" y="208"/>
      <point x="277" y="210" type="curve"/>
      <point x="277" y="481" type="line"/>
      <point x="294" y="483"/>
      <point x="305" y="484"/>
      <point x="322" y="484" type="curve" smooth="yes"/>
      <point x="424" y="484"/>
      <point x="457" y="442"/>
      <point x="457" y="350" type="curve" smooth="yes"/>
      <point x="457" y="231"/>
      <point x="418" y="206"/>
    </contour>
  </outline>
</glyph>
<glyph name="germandbls" format="2">
  <advance width="664"/>
  <unicode hex="00DF"/>
  <anchor x="331" y="0" name="bottom"/>
  <anchor x="332" y="0" name="cedilla"/>
  <anchor x="425" y="0" name="ogonek"/>
  <anchor x="347" y="693" name="top"/>
  <outline>
    <contour>
      <point x="398" y="-6" type="curve" smooth="yes"/>
      <point x="513" y="-6"/>
      <point x="633" y="45"/>
      <point x="633" y="189" type="curve" smooth="yes"/>
      <point x="633" y="330"/>
      <point x="511" y="393"/>
      <point x="411" y="407" type="curve"/>
      <point x="411" y="411" type="line"/>
      <point x="520" y="440"/>
      <point x="575" y="486"/>
      <point x="575" y="568" type="curve" smooth="yes"/>
      <point x="575" y="662"/>
      <point x="485" y="717"/>
      <point x="347" y="717" type="curve" smooth="yes"/>
      <point x="237" y="717"/>
      <point x="188" y="691"/>
      <point x="150" y="650" type="curve" smooth="yes"/>
      <point x="95" y="592"/>
      <point x="94" y="544"/>
      <point x="94" y="448" type="curve" smooth="yes"/>
      <point x="94" y="134" type="line" smooth="yes"/>
      <point x="94" y="50"/>
      <point x="81" y="40"/>
      <point x="6" y="40" type="curve"/>
      <point x="6" y="0" type="line"/>
      <point x="237" y="0" type="line"/>
      <point x="237" y="560" type="line" smooth="yes"/>
      <point x="237" y="628"/>
      <point x="250" y="668"/>
      <point x="332" y="668" type="curve" smooth="yes"/>
      <point x="409" y="668"/>
      <point x="437" y="634"/>
      <point x="437" y="563" type="curve" smooth="yes"/>
      <point x="437" y="477"/>
      <point x="396" y="449"/>
      <point x="313" y="437" type="curve"/>
      <point x="313" y="373" type="line"/>
      <point x="422" y="361"/>
      <point x="486" y="307"/>
      <point x="486" y="185" type="curve" smooth="yes"/>
      <point x="486" y="59"/>
      <point x="456" y="45"/>
      <point x="426" y="45" type="curve" smooth="yes"/>
      <point x="378" y="45"/>
      <point x="382" y="142"/>
      <point x="320" y="142" type="curve" smooth="yes"/>
      <point x="289" y="142"/>
      <point x="270" y="120"/>
      <point x="270" y="83" type="curve" smooth="yes"/>
      <point x="270" y="30"/>
      <point x="324" y="-6"/>
    </contour>
    <contour>
      <point x="109" y="407" type="line"/>
      <point x="109" y="468" type="line"/>
      <point x="13" y="468" type="line"/>
      <point x="13" y="407" type="line"/>
    </contour>
  </outline>
</glyph>
<glyph name="ae" format="2">
  <advance width="760"/>
  <unicode hex="00E6"/>
  <anchor x="346" y="0" name="bottom"/>
  <anchor x="345" y="0" name="cedilla"/>
  <anchor x="554" y="0" name="ogonek"/>
  <anchor x="379" y="473" name="top"/>
  <outline>
    <contour>
      <point x="509" y="-11" type="curve" smooth="yes"/>
      <point x="653" y="-11"/>
      <point x="692" y="68"/>
      <point x="734" y="146" type="curve"/>
      <point x="708" y="164" type="line"/>
      <point x="676" y="123"/>
      <point x="638" y="97"/>
      <point x="562" y="97" type="curve" smooth="yes"/>
      <point x="476" y="97"/>
      <point x="433" y="145"/>
      <point x="433" y="269" type="curve" smooth="yes"/>
      <point x="433" y="396"/>
      <point x="449" y="441"/>
      <point x="508" y="441" type="curve" smooth="yes"/>
      <point x="557" y="441"/>
      <point x="571" y="386"/>
      <point x="571" y="304" type="curve"/>
      <point x="421" y="304" type="line"/>
      <point x="422" y="257" type="line"/>
      <point x="728" y="257" type="line"/>
      <point x="726" y="408"/>
      <point x="645" y="485"/>
      <point x="522" y="485" type="curve" smooth="yes"/>
      <point x="467" y="485"/>
      <point x="425" y="466"/>
      <point x="385" y="424" type="curve"/>
      <point x="380" y="424" type="line"/>
      <point x="354" y="463"/>
      <point x="316" y="486"/>
      <point x="245" y="486" type="curve" smooth="yes"/>
      <point x="145" y="486"/>
      <point x="55" y="440"/>
      <point x="55" y="371" type="curve" smooth="yes"/>
      <point x="55" y="329"/>
      <point x="87" y="307"/>
      <point x="116" y="307" type="curve" smooth="yes"/>
      <point x="151" y="307"/>
      <point x="182" y="325"/>
      <point x="182" y="371" type="curve" smooth="yes"/>
      <point x="182" y="428"/>
      <point x="210" y="442"/>
      <point x="241" y="442" type="curve" smooth="yes"/>
      <point x="276" y="442"/>
      <point x="299" y="424"/>
      <point x="299" y="339" type="curve" smooth="yes"/>
      <point x="299" y="260" type="line" smooth="yes"/>
      <point x="299" y="195"/>
      <point x="309" y="137"/>
      <point x="332" y="91" type="curve"/>
      <point x="364" y="28"/>
      <point x="420" y="-11"/>
    </contour>
    <contour>
      <point x="159" y="-11" type="curve" smooth="yes"/>
      <point x="242" y="-11"/>
      <point x="292" y="23"/>
      <point x="340" y="66" type="curve"/>
      <point x="357" y="66" type="line"/>
      <point x="332" y="115" type="line"/>
      <point x="303" y="82"/>
      <point x="258" y="60"/>
      <point x="222" y="60" type="curve" smooth="yes"/>
      <point x="191" y="60"/>
      <point x="176" y="82"/>
      <point x="176" y="131" type="curve" smooth="yes"/>
      <point x="176" y="210"/>
      <point x="234" y="232"/>
      <point x="311" y="255" type="curve"/>
      <point x="308" y="298" type="line"/>
      <point x="215" y="268"/>
      <point x="33" y="246"/>
      <point x="33" y="103" type="curve" smooth="yes"/>
      <point x="33" y="22"/>
      <point x="86" y="-11"/>
    </contour>
  </outline>
</glyph>
<glyph name="icircumflex" format="2">
  <advance width="326"/>
  <unicode hex="00EE"/>
  <anchor x="167" y="0" name="bottom"/>
  <anchor x="169" y="0" name="cedilla"/>
  <anchor x="183" y="0" name="ogonek"/>
  <anchor x="150" y="674" name="top.mkmk"/>
  <outline>
    <contour>
      <point x="311" y="0" type="line"/>
      <point x="311" y="40" type="line"/>
      <point x="244" y="40"/>
      <point x="234" y="55"/>
      <point x="234" y="113" type="curve" smooth="yes"/>
      <point x="234" y="482" type="line"/>
      <point x="167" y="482" type="line"/>
      <point x="17" y="454" type="line"/>
      <point x="17" y="412" type="line"/>
      <point x="17" y="412"/>
      <point x="29" y="414"/>
      <point x="43" y="414" type="curve" smooth="yes"/>
      <point x="73" y="414"/>
      <point x="94" y="410"/>
      <point x="94" y="365" type="curve" smooth="yes"/>
      <point x="94" y="110" type="line" smooth="yes"/>
      <point x="94" y="53"/>
      <point x="83" y="40"/>
      <point x="18" y="40" type="curve"/>
      <point x="18" y="0" type="line"/>
    </contour>
    <contour>
      <point x="61" y="521" type="line"/>
      <point x="150" y="607" type="line"/>
      <point x="238" y="521" type="line"/>
      <point x="296" y="521" type="line"/>
      <point x="194" y="674" type="line"/>
      <point x="105" y="674" type="line"/>
      <point x="2" y="521" type="line"/>
    </contour>
  </outline>
</glyph>
<glyph name="idieresis" format="2">
  <advance width="326"/>
  <unicode hex="00EF"/>
  <anchor x="167" y="0" name="bottom"/>
  <anchor x="169" y="0" name="cedilla"/>
  <anchor x="183" y="0" name="ogonek"/>
  <anchor x="150" y="700" name="top.mkmk"/>
  <outline>
    <contour>
      <point x="311" y="0" type="line"/>
      <point x="311" y="40" type="line"/>
      <point x="244" y="40"/>
      <point x="234" y="55"/>
      <point x="234" y="113" type="curve" smooth="yes"/>
      <point x="234" y="482" type="line"/>
      <point x="167" y="482" type="line"/>
      <point x="17" y="454" type="line"/>
      <point x="17" y="412" type="line"/>
      <point x="17" y="412"/>
      <point x="29" y="414"/>
      <point x="43" y="414" type="curve" smooth="yes"/>
      <point x="73" y="414"/>
      <point x="94" y="410"/>
      <point x="94" y="365" type="curve" smooth="yes"/>
      <point x="94" y="110" type="line" smooth="yes"/>
      <point x="94" y="53"/>
      <point x="83" y="40"/>
      <point x="18" y="40" type="curve"/>
      <point x="18" y="0" type="line"/>
    </contour>
    <contour>
      <point x="46" y="551" type="curve" smooth="yes"/>
      <point x="95" y="551"/>
      <point x="122" y="580"/>
      <point x="122" y="625" type="curve" smooth="yes"/>
      <point x="122" y="668"/>
      <point x="95" y="697"/>
      <point x="46" y="697" type="curve" smooth="yes"/>
      <point x="-2" y="697"/>
      <point x="-29" y="668"/>
      <point x="-29" y="624" type="curve" smooth="yes"/>
      <point x="-29" y="580"/>
      <point x="-1" y="551"/>
    </contour>
    <contour>
      <point x="253" y="552" type="curve" smooth="yes"/>
      <point x="302" y="552"/>
      <point x="329" y="581"/>
      <point x="329" y="626" type="curve" smooth="yes"/>
      <point x="329" y="669"/>
      <point x="302" y="698"/>
      <point x="253" y="698" type="curve" smooth="yes"/>
      <point x="205" y="698"/>
      <point x="178" y="669"/>
      <point x="178" y="625" type="curve" smooth="yes"/>
      <point x="178" y="581"/>
      <point x="206" y="552"/>
    </contour>
  </outline>
</glyph>
<glyph name="eth" format="2">
  <advance width="560"/>
  <unicode hex="00F0"/>
  <anchor x="274" y="0" name="bottom"/>
  <anchor x="275" y="0" name="cedilla"/>
  <anchor x="275" y="0" name="ogonek"/>
  <anchor x="274" y="693" name="top"/>
  <outline>
    <contour>
      <point x="272" y="-10" type="curve" smooth="yes"/>
      <point x="416" y="-10"/>
      <point x="514" y="82"/>
      <point x="514" y="311" type="curve" smooth="yes"/>
      <point x="514" y="542"/>
      <point x="439" y="718"/>
      <point x="234" y="718" type="curve" smooth="yes"/>
      <point x="163" y="718"/>
      <point x="117" y="697"/>
      <point x="72" y="659" type="curve"/>
      <point x="88" y="627" type="line"/>
      <point x="104" y="634"/>
      <point x="141" y="642"/>
      <point x="188" y="642" type="curve" smooth="yes"/>
      <point x="299" y="642"/>
      <point x="364" y="551"/>
      <point x="381" y="424" type="curve"/>
      <point x="374" y="421" type="line"/>
      <point x="338" y="455"/>
      <point x="301" y="469"/>
      <point x="255" y="469" type="curve" smooth="yes"/>
      <point x="121" y="469"/>
      <point x="32" y="374"/>
      <point x="32" y="235" type="curve" smooth="yes"/>
      <point x="32" y="65"/>
      <point x="121" y="-10"/>
    </contour>
    <contour>
      <point x="277" y="40" type="curve" smooth="yes"/>
      <point x="215" y="40"/>
      <point x="184" y="109"/>
      <point x="184" y="253" type="curve" smooth="yes"/>
      <point x="184" y="367"/>
      <point x="212" y="419"/>
      <point x="263" y="419" type="curve" smooth="yes"/>
      <point x="326" y="419"/>
      <point x="363" y="361"/>
      <point x="363" y="237" type="curve" smooth="yes"/>
      <point x="363" y="96"/>
      <point x="330" y="40"/>
    </contour>
    <contour>
      <point x="507" y="666" type="line"/>
      <point x="487" y="705" type="line"/>
      <point x="201" y="561" type="line"/>
      <point x="222" y="522" type="line"/>
    </contour>
  </outline>
</glyph>
<glyph name="divide" format="2">
  <advance width="673"/>
  <unicode hex="00F7"/>
  <outline>
    <contour>
      <point x="607" y="213" type="line"/>
      <point x="607" y="305" type="line"/>
      <point x="66" y="305" type="line"/>
      <point x="66" y="213" type="line"/>
    </contour>
    <contour>
      <point x="337" y="-22" type="curve" smooth="yes"/>
      <point x="373" y="-22"/>
      <point x="406" y="8"/>
      <point x="406" y="45" type="curve" smooth="yes"/>
      <point x="406" y="83"/>
      <point x="373" y="115"/>
      <point x="338" y="115" type="curve" smooth="yes"/>
      <point x="299" y="115"/>
      <point x="268" y="85"/>
      <point x="268" y="46" type="curve" smooth="yes"/>
      <point x="268" y="7"/>
      <point x="298" y="-22"/>
    </contour>
    <contour>
      <point x="337" y="402" type="curve" smooth="yes"/>
      <point x="373" y="402"/>
      <point x="406" y="433"/>
      <point x="406" y="470" type="curve" smooth="yes"/>
      <point x="406" y="506"/>
      <point x="373" y="540"/>
      <point x="338" y="540" type="curve" smooth="yes"/>
      <point x="299" y="540"/>
      <point x="268" y="510"/>
      <point x="268" y="471" type="curve" smooth="yes"/>
      <point x="268" y="432"/>
      <point x="298" y="402"/>
    </contour>
  </outline>
</glyph>
<glyph name="oslash" format="2">
  <advance width="548"/>
  <unicode hex="00F8"/>
  <anchor x="274" y="0" name="bottom"/>
  <anchor x="275" y="0" name="cedilla"/>
  <anchor x="319" y="0" name="ogonek"/>
  <anchor x="276" y="473" name="top"/>
  <outline>
    <contour>
      <point x="274" y="-10" type="curve" smooth="yes"/>
      <point x="431" y="-10"/>
      <point x="516" y="80"/>
      <point x="516" y="251" type="curve" smooth="yes"/>
      <point x="516" y="403"/>
      <point x="427" y="485"/>
      <point x="277" y="485" type="curve" smooth="yes"/>
      <point x="109" y="485"/>
      <point x="32" y="380"/>
      <point x="32" y="240" type="curve" smooth="yes"/>
      <point x="32" y="77"/>
      <point x="106" y="-10"/>
    </contour>
    <contour>
      <point x="130" y="36" type="line"/>
      <point x="94" y="67" type="line"/>
      <point x="37" y="3" type="line"/>
      <point x="73" y="-27" type="line"/>
    </contour>
    <contour>
      <point x="277" y="39" type="curve" smooth="yes"/>
      <point x="200" y="39"/>
      <point x="184" y="137"/>
      <point x="184" y="250" type="curve" smooth="yes"/>
      <point x="184" y="364"/>
      <point x="205" y="437"/>
      <point x="269" y="437" type="curve" smooth="yes"/>
      <point x="344" y="437"/>
      <point x="364" y="344"/>
      <point x="364" y="243" type="curve" smooth="yes"/>
      <point x="364" y="105"/>
      <point x="343" y="39"/>
    </contour>
    <contour>
      <point x="372" y="311" type="line"/>
      <point x="361" y="372" type="line"/>
      <point x="177" y="163" type="line"/>
      <point x="188" y="103" type="line"/>
    </contour>
    <contour>
      <point x="505" y="462" type="line"/>
      <point x="469" y="493" type="line"/>
      <point x="418" y="437" type="line"/>
      <point x="455" y="406" type="line"/>
    </contour>
  </outline>
</glyph>
<glyph name="thorn" format="2">
  <advance width="571"/>
  <unicode hex="00FE"/>
  <anchor x="232" y="-220" name="bottom"/>
  <anchor x="189" y="-220" name="cedilla"/>
  <anchor x="188" y="-220" name="ogonek"/>
  <anchor x="241" y="693" name="top"/>
  <outline>
    <contour>
      <point x="312" y="-220" type="line"/>
      <point x="312" y="-179" type="line"/>
      <point x="234" y="-179"/>
      <point x="215" y="-166"/>
      <point x="215" y="-101" type="curve" smooth="yes"/>
      <point x="215" y="15" type="line"/>
      <point x="218" y="15" type="line"/>
      <point x="249" y="-5"/>
      <point x="279" y="-11"/>
      <point x="317" y="-11" type="curve" smooth="yes"/>
      <point x="438" y="-11"/>
      <point x="538" y="91"/>
      <point x="538" y="261" type="curve" smooth="yes"/>
      <point x="538" y="418"/>
      <point x="473" y="486"/>
      <point x="377" y="486" type="curve" smooth="yes"/>
      <point x="311" y="486"/>
      <point x="270" y="455"/>
      <point x="220" y="402" type="curve"/>
      <point x="215" y="402" type="line"/>
      <point x="215" y="706" type="line"/>
      <point x="156" y="706" type="line"/>
      <point x="2" y="678" type="line"/>
      <point x="2" y="636" type="line"/>
      <point x="2" y="636"/>
      <point x="21" y="638"/>
      <point x="34" y="638" type="curve" smooth="yes"/>
      <point x="67" y="638"/>
      <point x="72" y="625"/>
      <point x="72" y="585" type="curve" smooth="yes"/>
      <point x="72" y="-108" type="line" smooth="yes"/>
      <point x="72" y="-164"/>
      <point x="62" y="-180"/>
      <point x="-1" y="-180" type="curve"/>
      <point x="-1" y="-220" type="line"/>
    </contour>
    <contour>
      <point x="292" y="45" type="curve" smooth="yes"/>
      <point x="252" y="45"/>
      <point x="229" y="74"/>
      <point x="215" y="95" type="curve"/>
      <point x="215" y="343" type="line"/>
      <point x="236" y="364"/>
      <point x="267" y="392"/>
      <point x="307" y="392" type="curve" smooth="yes"/>
      <point x="356" y="392"/>
      <point x="382" y="348"/>
      <point x="382" y="233" type="curve" smooth="yes"/>
      <point x="382" y="93"/>
      <point x="344" y="45"/>
    </contour>
  </outline>
</glyph>
<glyph name="Aogonek" format="2">
  <advance width="749"/>
  <unicode hex="0104"/>
  <anchor x="337" y="-250" name="bottom.mkmk"/>
  <anchor x="338" y="-250" name="cedilla"/>
  <anchor x="338" y="-250" name="ogonek"/>
  <anchor x="371" y="657" name="top"/>
  <outline>
    <contour>
      <point x="432" y="-221" type="curve" smooth="yes"/>
      <point x="493" y="-221"/>
      <point x="530" y="-193"/>
      <point x="569" y="-154" type="curve"/>
      <point x="546" y="-126" type="line"/>
      <point x="518" y="-147"/>
      <point x="501" y="-155"/>
      <point x="473" y="-155" type="curve" smooth="yes"/>
      <point x="435" y="-155"/>
      <point x="416" y="-140"/>
      <point x="416" y="-101" type="curve" smooth="yes"/>
      <point x="416" y="-45"/>
      <point x="455" y="0"/>
      <point x="540" y="0" type="curve" smooth="yes"/>
      <point x="740" y="0" type="line"/>
      <point x="740" y="43" type="line"/>
      <point x="694" y="43"/>
      <point x="667" y="74"/>
      <point x="641" y="138" type="curve" smooth="yes"/>
      <point x="425" y="662" type="line"/>
      <point x="320" y="662" type="line"/>
      <point x="103" y="140" type="line" smooth="yes"/>
      <point x="70" y="62"/>
      <point x="53" y="43"/>
      <point x="2" y="43" type="curve"/>
      <point x="2" y="0" type="line"/>
      <point x="230" y="0" type="line"/>
      <point x="230" y="43" type="line"/>
      <point x="181" y="43"/>
      <point x="162" y="48"/>
      <point x="162" y="79" type="curve" smooth="yes"/>
      <point x="162" y="98"/>
      <point x="169" y="121"/>
      <point x="176" y="138" type="curve" smooth="yes"/>
      <point x="210" y="224" type="line"/>
      <point x="218" y="250" type="line"/>
      <point x="324" y="512" type="line"/>
      <point x="328" y="512" type="line"/>
      <point x="422" y="250" type="line"/>
      <point x="430" y="224" type="line"/>
      <point x="458" y="151" type="line" smooth="yes"/>
      <point x="470" y="119"/>
      <point x="477" y="91"/>
      <point x="477" y="77" type="curve" smooth="yes"/>
      <point x="477" y="48"/>
      <point x="446" y="32"/>
      <point x="397" y="-7" type="curve" smooth="yes"/>
      <point x="351" y="-44"/>
      <point x="320" y="-78"/>
      <point x="320" y="-128" type="curve" smooth="yes"/>
      <point x="320" y="-190"/>
      <point x="368" y="-221"/>
    </contour>
    <contour>
      <point x="449" y="211" type="line"/>
      <point x="431" y="263" type="line"/>
      <point x="209" y="263" type="line"/>
      <point x="191" y="211" type="line"/>
    </contour>
  </outline>
</glyph>
<glyph name="aogonek" format="2">
  <advance width="528"/>
  <unicode hex="0105"/>
  <anchor x="257" y="-250" name="bottom.mkmk"/>
  <anchor x="257" y="-250" name="cedilla"/>
  <anchor x="257" y="-250" name="ogonek"/>
  <anchor x="257" y="473" name="top"/>
  <outline>
    <contour>
      <point x="409" y="-221" type="curve" smooth="yes"/>
      <point x="468" y="-221"/>
      <point x="505" y="-193"/>
      <point x="544" y="-154" type="curve"/>
      <point x="521" y="-126" type="line"/>
      <point x="491" y="-148"/>
      <point x="479" y="-155"/>
      <point x="441" y="-155" type="curve" smooth="yes"/>
      <point x="410" y="-155"/>
      <point x="391" y="-137"/>
      <point x="391" y="-100" type="curve" smooth="yes"/>
      <point x="391" y="-42"/>
      <point x="432" y="-22"/>
      <point x="469" y="4" type="curve"/>
      <point x="498" y="18"/>
      <point x="519" y="41"/>
      <point x="539" y="71" type="curve"/>
      <point x="517" y="93" type="line"/>
      <point x="502" y="78"/>
      <point x="485" y="66"/>
      <point x="469" y="66" type="curve" smooth="yes"/>
      <point x="448" y="66"/>
      <point x="438" y="74"/>
      <point x="438" y="114" type="curve" smooth="yes"/>
      <point x="438" y="331" type="line" smooth="yes"/>
      <point x="438" y="441"/>
      <point x="369" y="486"/>
      <point x="244" y="486" type="curve" smooth="yes"/>
      <point x="128" y="486"/>
      <point x="55" y="434"/>
      <point x="55" y="374" type="curve" smooth="yes"/>
      <point x="55" y="329"/>
      <point x="87" y="307"/>
      <point x="116" y="307" type="curve" smooth="yes"/>
      <point x="151" y="307"/>
      <point x="182" y="325"/>
      <point x="182" y="371" type="curve" smooth="yes"/>
      <point x="182" y="428"/>
      <point x="193" y="442"/>
      <point x="233" y="442" type="curve" smooth="yes"/>
      <point x="281" y="442"/>
      <point x="295" y="424"/>
      <point x="295" y="339" type="curve" smooth="yes"/>
      <point x="295" y="291" type="line"/>
      <point x="200" y="263"/>
      <point x="33" y="242"/>
      <point x="33" y="103" type="curve" smooth="yes"/>
      <point x="33" y="22"/>
      <point x="86" y="-11"/>
      <point x="159" y="-11" type="curve" smooth="yes"/>
      <point x="228" y="-11"/>
      <point x="250" y="13"/>
      <point x="298" y="53" type="curve"/>
      <point x="313" y="53" type="line"/>
      <point x="307" y="109" type="line"/>
      <point x="271" y="72"/>
      <point x="251" y="60"/>
      <point x="222" y="60" type="curve" smooth="yes"/>
      <point x="191" y="60"/>
      <point x="176" y="82"/>
      <point x="176" y="131" type="curve" smooth="yes"/>
      <point x="176" y="206"/>
      <point x="217" y="228"/>
      <point x="295" y="252" type="curve"/>
      <point x="295" y="86" type="line"/>
      <point x="300" y="67" type="line"/>
      <point x="306" y="15"/>
      <point x="326" y="-2"/>
      <point x="379" y="-6" type="curve"/>
      <point x="379" y="-10" type="line"/>
      <point x="342" y="-34"/>
      <point x="295" y="-66"/>
      <point x="295" y="-134" type="curve" smooth="yes"/>
      <point x="295" y="-184"/>
      <point x="340" y="-221"/>
    </contour>
  </outline>
</glyph>
<glyph name="dcroat" format="2">
  <advance width="592"/>
  <unicode hex="0111"/>
  <anchor x="298" y="0" name="bottom"/>
  <anchor x="298" y="0" name="cedilla"/>
  <anchor x="431" y="0" name="ogonek"/>
  <anchor x="297" y="693" name="top"/>
  <outline>
    <contour>
      <point x="203" y="-10" type="curve" smooth="yes"/>
      <point x="269" y="-10"/>
      <point x="319" y="26"/>
      <point x="357" y="59" type="curve"/>
      <point x="361" y="59" type="line"/>
      <point x="361" y="-5" type="line"/>
      <point x="396" y="-5" type="line"/>
      <point x="575" y="12" type="line"/>
      <point x="575" y="53" type="line"/>
      <point x="554" y="53" type="line" smooth="yes"/>
      <point x="517" y="53"/>
      <point x="502" y="63"/>
      <point x="502" y="114" type="curve" smooth="yes"/>
      <point x="502" y="528" type="line"/>
      <point x="568" y="528" type="line"/>
      <point x="568" y="581" type="line"/>
      <point x="502" y="581" type="line"/>
      <point x="502" y="706" type="line"/>
      <point x="446" y="706" type="line"/>
      <point x="286" y="676" type="line"/>
      <point x="286" y="633" type="line"/>
      <point x="286" y="633"/>
      <point x="305" y="634"/>
      <point x="315" y="634" type="curve" smooth="yes"/>
      <point x="352" y="634"/>
      <point x="358" y="625"/>
      <point x="359" y="581" type="curve"/>
      <point x="212" y="581" type="line"/>
      <point x="212" y="528" type="line"/>
      <point x="359" y="528" type="line"/>
      <point x="359" y="457" type="line"/>
      <point x="325" y="474"/>
      <point x="291" y="479"/>
      <point x="259" y="479" type="curve" smooth="yes"/>
      <point x="133" y="479"/>
      <point x="32" y="401"/>
      <point x="32" y="219" type="curve" smooth="yes"/>
      <point x="32" y="93"/>
      <point x="88" y="-10"/>
    </contour>
    <contour>
      <point x="267" y="73" type="curve" smooth="yes"/>
      <point x="214" y="73"/>
      <point x="187" y="125"/>
      <point x="187" y="249" type="curve" smooth="yes"/>
      <point x="187" y="367"/>
      <point x="218" y="420"/>
      <point x="269" y="420" type="curve" smooth="yes"/>
      <point x="324" y="420"/>
      <point x="350" y="382"/>
      <point x="359" y="346" type="curve"/>
      <point x="359" y="108" type="line"/>
      <point x="326" y="86"/>
      <point x="306" y="73"/>
    </contour>
  </outline>
</glyph>
